{"glyphs":{"0":{"ha":882,"x_min":69,"x_max":813,"o":"m 360 540 l 69 540 q 154 889 75 778 q 406 1010 233 1000 l 406 782 q 360 540 364 740 m 813 540 l 521 540 q 478 778 517 733 l 478 1010 q 728 888 649 1000 q 813 540 807 776 m 521 474 l 813 474 q 727 117 807 235 q 476 -12 647 -1 l 476 219 q 521 474 517 268 m 69 474 l 360 474 q 407 217 361 264 l 407 -12 q 155 116 235 -3 q 69 474 75 235 z "},"1":{"ha":532,"x_min":21,"x_max":469,"o":"m 469 867 l 44 690 l 21 899 l 251 1000 l 469 1000 l 469 867 m 197 679 l 469 790 l 469 0 l 197 0 l 197 679 z "},"2":{"ha":711,"x_min":40,"x_max":669,"o":"m 426 293 l 138 293 l 261 454 q 339 576 306 513 q 372 694 372 640 q 333 765 372 744 q 239 785 294 785 q 160 778 201 785 q 82 758 118 771 l 40 963 q 189 999 115 986 q 328 1011 263 1011 q 495 983 422 1011 q 610 895 568 956 q 651 736 651 835 q 615 572 651 651 q 522 418 579 492 l 426 293 m 88 222 l 669 222 l 669 0 l 49 0 l 49 175 l 88 222 z "},"3":{"ha":701,"x_min":35,"x_max":681,"o":"m 335 779 l 335 1011 q 503 985 428 1011 q 623 905 578 960 q 669 760 668 850 q 633 603 669 664 q 524 506 597 542 l 524 503 q 638 421 594 476 q 681 269 681 365 q 631 113 681 175 q 499 19 581 50 q 319 -14 417 -11 l 319 213 q 376 242 356 221 q 397 301 397 264 q 363 374 397 350 q 250 397 329 397 l 149 397 l 149 600 l 254 600 q 365 625 332 600 q 397 703 397 650 q 380 753 397 735 q 335 779 363 771 m 265 1008 l 265 789 l 261 789 q 181 783 222 789 q 100 767 139 776 l 61 965 q 163 992 111 982 q 265 1008 215 1003 m 251 206 l 251 -12 q 35 35 143 -4 l 60 247 q 251 206 158 208 z "},"4":{"ha":808,"x_min":28,"x_max":807,"o":"m 28 185 l 28 385 l 356 1008 l 600 993 l 283 396 l 419 396 l 419 503 l 681 989 l 681 396 l 807 396 l 767 185 l 28 185 m 419 117 l 681 117 l 681 0 l 419 0 l 419 117 z "},"5":{"ha":693,"x_min":15,"x_max":671,"o":"m 64 1000 l 311 1000 l 311 617 l 376 617 q 582 556 501 617 q 671 358 663 496 l 394 358 q 349 413 383 396 q 266 434 314 429 q 165 436 218 439 q 64 431 113 433 l 64 1000 m 382 750 l 382 1000 l 656 1000 l 607 750 l 382 750 m 394 286 l 671 286 q 567 65 661 143 q 275 -14 472 -14 q 135 1 203 -14 q 15 33 67 15 l 43 246 q 154 214 97 225 q 261 205 211 203 q 347 226 311 207 q 394 286 382 246 z "},"6":{"ha":797,"x_min":49,"x_max":769,"o":"m 385 174 l 385 -11 q 137 113 225 0 q 49 458 49 225 q 71 667 49 568 q 146 844 93 767 q 289 965 199 921 q 514 1010 379 1010 q 607 1004 561 1010 q 694 990 653 999 l 668 771 q 535 786 590 786 q 408 754 451 786 q 348 652 364 722 q 332 469 332 582 q 335 301 332 363 q 350 210 339 239 q 385 174 361 182 m 401 460 l 401 636 q 507 653 458 653 q 696 575 622 653 q 769 347 769 497 q 692 90 769 182 q 456 -11 615 -3 l 456 185 q 486 234 475 201 q 497 311 497 267 q 476 426 497 392 q 401 460 454 460 z "},"7":{"ha":679,"x_min":35,"x_max":658,"o":"m 658 750 l 35 750 l 35 1000 l 658 1000 l 658 750 m 374 681 l 619 681 l 396 0 l 107 0 l 374 681 z "},"8":{"ha":792,"x_min":28,"x_max":764,"o":"m 435 -12 l 435 153 q 481 288 481 179 q 461 395 481 360 q 396 431 442 431 q 331 395 350 431 q 311 288 311 360 q 363 150 311 172 l 363 -12 q 110 71 193 -6 q 28 257 28 147 q 211 528 28 463 l 211 531 q 57 749 57 581 q 133 936 57 869 q 361 1008 210 1003 l 361 833 q 325 733 325 811 q 341 641 325 669 q 396 613 357 613 q 451 641 435 613 q 467 733 467 669 q 431 832 467 813 l 431 1008 q 658 936 582 1003 q 735 749 735 869 q 581 531 735 581 l 581 528 q 764 257 764 463 q 683 72 764 149 q 435 -12 601 -4 z "},"9":{"ha":797,"x_min":28,"x_max":749,"o":"m 413 824 l 413 1008 q 660 885 572 997 q 749 539 749 772 q 726 330 749 429 q 651 153 704 231 q 509 32 599 76 q 283 -12 419 -12 q 190 -7 236 -12 q 103 7 144 -1 l 129 226 q 263 211 207 211 q 390 244 347 211 q 449 346 433 276 q 465 528 465 415 q 462 698 465 636 q 447 788 458 760 q 413 824 436 817 m 396 538 l 396 361 q 290 344 340 344 q 102 422 176 344 q 28 650 28 500 q 105 908 28 815 q 342 1008 182 1000 l 342 813 q 312 763 324 796 q 300 686 300 731 q 322 572 300 606 q 396 538 344 538 z "}," ":{"ha":347,"x_min":0,"x_max":0,"o":""}," ":{"ha":347,"x_min":0,"x_max":0,"o":""},"A":{"ha":819,"x_min":7,"x_max":813,"o":"m 288 1011 l 581 1011 l 813 0 l 525 0 l 510 65 l 381 65 l 418 281 l 460 281 l 288 1011 m 297 0 l 7 0 l 238 918 l 367 376 l 297 0 z "},"Á":{"ha":819,"x_min":7,"x_max":813,"o":"m 288 1011 l 581 1011 l 813 0 l 525 0 l 510 65 l 381 65 l 418 281 l 460 281 l 288 1011 m 297 0 l 7 0 l 238 918 l 367 376 l 297 0 m 364 1238 l 622 1238 l 511 1071 l 301 1071 l 364 1238 z "},"Ă":{"ha":819,"x_min":7,"x_max":813,"o":"m 288 1011 l 581 1011 l 813 0 l 525 0 l 510 65 l 381 65 l 418 281 l 460 281 l 288 1011 m 297 0 l 7 0 l 238 918 l 367 376 l 297 0 m 410 1071 q 256 1117 304 1071 q 197 1265 208 1164 l 317 1265 q 410 1208 339 1208 q 503 1265 481 1208 l 622 1265 q 565 1117 613 1164 q 410 1071 517 1071 z "},"Ắ":{"ha":819,"x_min":7,"x_max":813,"o":"m 288 1011 l 581 1011 l 813 0 l 525 0 l 510 65 l 381 65 l 418 281 l 460 281 l 288 1011 m 297 0 l 7 0 l 238 918 l 367 376 l 297 0 m 410 1071 q 256 1117 304 1071 q 197 1265 208 1164 l 317 1265 q 410 1208 339 1208 q 503 1265 481 1208 l 622 1265 q 565 1117 613 1164 q 410 1071 517 1071 m 364 1468 l 622 1468 l 511 1301 l 301 1301 l 364 1468 z "},"Ặ":{"ha":819,"x_min":7,"x_max":813,"o":"m 288 1011 l 581 1011 l 813 0 l 525 0 l 510 65 l 381 65 l 418 281 l 460 281 l 288 1011 m 297 0 l 7 0 l 238 918 l 367 376 l 297 0 m 279 -64 l 543 -64 l 543 -253 l 279 -253 l 279 -64 m 410 1071 q 256 1117 304 1071 q 197 1265 208 1164 l 317 1265 q 410 1208 339 1208 q 503 1265 481 1208 l 622 1265 q 565 1117 613 1164 q 410 1071 517 1071 z "},"Ằ":{"ha":819,"x_min":7,"x_max":813,"o":"m 288 1011 l 581 1011 l 813 0 l 525 0 l 510 65 l 381 65 l 418 281 l 460 281 l 288 1011 m 297 0 l 7 0 l 238 918 l 367 376 l 297 0 m 410 1071 q 256 1117 304 1071 q 197 1265 208 1164 l 317 1265 q 410 1208 339 1208 q 503 1265 481 1208 l 622 1265 q 565 1117 613 1164 q 410 1071 517 1071 m 463 1468 l 525 1301 l 315 1301 l 204 1468 l 463 1468 z "},"Ẳ":{"ha":819,"x_min":7,"x_max":813,"o":"m 288 1011 l 581 1011 l 813 0 l 525 0 l 510 65 l 381 65 l 418 281 l 460 281 l 288 1011 m 297 0 l 7 0 l 238 918 l 367 376 l 297 0 m 410 1071 q 256 1117 304 1071 q 197 1265 208 1164 l 317 1265 q 410 1208 339 1208 q 503 1265 481 1208 l 622 1265 q 565 1117 613 1164 q 410 1071 517 1071 m 403 1282 l 343 1354 q 386 1394 374 1369 q 388 1438 399 1418 q 340 1457 378 1457 q 299 1453 319 1457 q 268 1446 279 1450 l 278 1565 q 388 1583 329 1583 q 492 1558 453 1583 q 544 1492 531 1532 q 547 1410 558 1453 q 500 1333 536 1368 q 403 1282 464 1297 z "},"Ẵ":{"ha":819,"x_min":7,"x_max":813,"o":"m 288 1011 l 581 1011 l 813 0 l 525 0 l 510 65 l 381 65 l 418 281 l 460 281 l 288 1011 m 297 0 l 7 0 l 238 918 l 367 376 l 297 0 m 410 1071 q 256 1117 304 1071 q 197 1265 208 1164 l 317 1265 q 410 1208 339 1208 q 503 1265 481 1208 l 622 1265 q 565 1117 613 1164 q 410 1071 517 1071 m 553 1493 q 558 1465 556 1479 q 560 1436 560 1450 q 527 1335 560 1376 q 428 1294 494 1294 q 375 1307 400 1294 q 330 1331 350 1319 q 296 1343 310 1343 q 271 1332 278 1343 q 264 1306 264 1321 l 165 1306 q 160 1335 163 1321 q 158 1363 158 1349 q 191 1464 158 1424 q 290 1504 224 1504 q 343 1492 318 1504 q 388 1468 368 1481 q 422 1456 408 1456 q 448 1467 442 1456 q 454 1493 454 1478 l 553 1493 z "},"Â":{"ha":819,"x_min":7,"x_max":813,"o":"m 288 1011 l 581 1011 l 813 0 l 525 0 l 510 65 l 381 65 l 418 281 l 460 281 l 288 1011 m 297 0 l 7 0 l 238 918 l 367 376 l 297 0 m 340 1238 l 494 1238 l 644 1071 l 479 1071 l 340 1238 m 294 1203 l 381 1103 l 347 1071 l 175 1071 l 294 1203 z "},"Ấ":{"ha":819,"x_min":7,"x_max":813,"o":"m 288 1011 l 581 1011 l 813 0 l 525 0 l 510 65 l 381 65 l 418 281 l 460 281 l 288 1011 m 297 0 l 7 0 l 238 918 l 367 376 l 297 0 m 340 1238 l 494 1238 l 644 1071 l 479 1071 l 340 1238 m 294 1203 l 381 1103 l 347 1071 l 175 1071 l 294 1203 m 364 1444 l 622 1444 l 511 1278 l 301 1278 l 364 1444 z "},"Ậ":{"ha":819,"x_min":7,"x_max":813,"o":"m 288 1011 l 581 1011 l 813 0 l 525 0 l 510 65 l 381 65 l 418 281 l 460 281 l 288 1011 m 297 0 l 7 0 l 238 918 l 367 376 l 297 0 m 279 -64 l 543 -64 l 543 -253 l 279 -253 l 279 -64 m 340 1238 l 494 1238 l 644 1071 l 479 1071 l 340 1238 m 294 1203 l 381 1103 l 347 1071 l 175 1071 l 294 1203 z "},"Ầ":{"ha":819,"x_min":7,"x_max":813,"o":"m 288 1011 l 581 1011 l 813 0 l 525 0 l 510 65 l 381 65 l 418 281 l 460 281 l 288 1011 m 297 0 l 7 0 l 238 918 l 367 376 l 297 0 m 340 1238 l 494 1238 l 644 1071 l 479 1071 l 340 1238 m 294 1203 l 381 1103 l 347 1071 l 175 1071 l 294 1203 m 463 1444 l 525 1278 l 315 1278 l 204 1444 l 463 1444 z "},"Ẩ":{"ha":819,"x_min":7,"x_max":813,"o":"m 288 1011 l 581 1011 l 813 0 l 525 0 l 510 65 l 381 65 l 418 281 l 460 281 l 288 1011 m 297 0 l 7 0 l 238 918 l 367 376 l 297 0 m 340 1238 l 494 1238 l 644 1071 l 479 1071 l 340 1238 m 294 1203 l 381 1103 l 347 1071 l 175 1071 l 294 1203 m 621 1149 l 561 1221 q 604 1260 592 1236 q 606 1304 617 1285 q 558 1324 596 1324 q 517 1320 538 1324 q 486 1313 497 1317 l 496 1432 q 606 1450 547 1450 q 710 1424 671 1450 q 763 1359 749 1399 q 765 1277 776 1319 q 718 1199 754 1235 q 621 1149 682 1164 z "},"Ẫ":{"ha":819,"x_min":7,"x_max":813,"o":"m 288 1011 l 581 1011 l 813 0 l 525 0 l 510 65 l 381 65 l 418 281 l 460 281 l 288 1011 m 297 0 l 7 0 l 238 918 l 367 376 l 297 0 m 340 1238 l 494 1238 l 644 1071 l 479 1071 l 340 1238 m 294 1203 l 381 1103 l 347 1071 l 175 1071 l 294 1203 m 553 1469 q 558 1441 556 1456 q 560 1413 560 1426 q 527 1312 560 1353 q 428 1271 494 1271 q 375 1283 400 1271 q 330 1308 350 1296 q 296 1319 310 1319 q 271 1308 278 1319 q 264 1282 264 1297 l 165 1282 q 160 1311 163 1297 q 158 1339 158 1325 q 191 1440 158 1400 q 290 1481 224 1481 q 343 1469 318 1481 q 388 1444 368 1457 q 422 1432 408 1432 q 448 1443 442 1432 q 454 1469 454 1454 l 553 1469 z "},"Ȁ":{"ha":819,"x_min":7,"x_max":813,"o":"m 288 1011 l 581 1011 l 813 0 l 525 0 l 510 65 l 381 65 l 418 281 l 460 281 l 288 1011 m 297 0 l 7 0 l 238 918 l 367 376 l 297 0 m 596 1238 l 658 1071 l 449 1071 l 360 1238 l 596 1238 m 285 1238 l 375 1071 l 165 1071 l 49 1238 l 285 1238 z "},"Ä":{"ha":819,"x_min":7,"x_max":813,"o":"m 288 1011 l 581 1011 l 813 0 l 525 0 l 510 65 l 381 65 l 418 281 l 460 281 l 288 1011 m 297 0 l 7 0 l 238 918 l 367 376 l 297 0 m 157 1268 l 379 1268 l 379 1079 l 157 1079 l 157 1268 m 440 1268 l 663 1268 l 663 1079 l 440 1079 l 440 1268 z "},"Ạ":{"ha":819,"x_min":7,"x_max":813,"o":"m 288 1011 l 581 1011 l 813 0 l 525 0 l 510 65 l 381 65 l 418 281 l 460 281 l 288 1011 m 297 0 l 7 0 l 238 918 l 367 376 l 297 0 m 279 -64 l 543 -64 l 543 -253 l 279 -253 l 279 -64 z "},"À":{"ha":819,"x_min":7,"x_max":813,"o":"m 288 1011 l 581 1011 l 813 0 l 525 0 l 510 65 l 381 65 l 418 281 l 460 281 l 288 1011 m 297 0 l 7 0 l 238 918 l 367 376 l 297 0 m 463 1238 l 525 1071 l 315 1071 l 204 1238 l 463 1238 z "},"Ả":{"ha":819,"x_min":7,"x_max":813,"o":"m 288 1011 l 581 1011 l 813 0 l 525 0 l 510 65 l 381 65 l 418 281 l 460 281 l 288 1011 m 297 0 l 7 0 l 238 918 l 367 376 l 297 0 m 403 1051 l 343 1124 q 386 1163 374 1139 q 388 1207 399 1188 q 340 1226 378 1226 q 299 1223 319 1226 q 268 1215 279 1219 l 278 1335 q 388 1353 329 1353 q 492 1327 453 1353 q 544 1262 531 1301 q 547 1180 558 1222 q 500 1102 536 1138 q 403 1051 464 1067 z "},"Ȃ":{"ha":819,"x_min":7,"x_max":813,"o":"m 288 1011 l 581 1011 l 813 0 l 525 0 l 510 65 l 381 65 l 418 281 l 460 281 l 288 1011 m 297 0 l 7 0 l 238 918 l 367 376 l 297 0 m 410 1267 q 565 1220 517 1267 q 622 1072 613 1174 l 503 1072 q 410 1129 481 1129 q 317 1072 339 1129 l 197 1072 q 256 1220 208 1174 q 410 1267 304 1267 z "},"Ā":{"ha":819,"x_min":7,"x_max":813,"o":"m 288 1011 l 581 1011 l 813 0 l 525 0 l 510 65 l 381 65 l 418 281 l 460 281 l 288 1011 m 297 0 l 7 0 l 238 918 l 367 376 l 297 0 m 160 1246 l 571 1246 l 571 1093 l 160 1093 l 160 1246 z "},"Ą":{"ha":819,"x_min":7,"x_max":813,"o":"m 288 1011 l 581 1011 l 813 0 l 525 0 l 510 65 l 381 65 l 418 281 l 460 281 l 288 1011 m 297 0 l 7 0 l 238 918 l 367 376 l 297 0 m 564 -71 l 725 -71 q 799 -104 736 -115 l 799 -212 q 760 -219 779 -217 q 722 -222 740 -222 q 590 -176 629 -222 q 564 -71 551 -131 z "},"Å":{"ha":819,"x_min":7,"x_max":813,"o":"m 288 1011 l 581 1011 l 813 0 l 525 0 l 510 65 l 381 65 l 418 281 l 460 281 l 288 1011 m 297 0 l 7 0 l 238 918 l 367 376 l 297 0 m 446 1200 l 446 1292 q 547 1260 515 1288 q 579 1176 579 1233 q 446 1068 579 1076 l 446 1158 q 448 1167 447 1163 q 449 1178 449 1172 q 446 1200 449 1189 m 376 1292 l 376 1203 q 372 1178 372 1194 q 376 1156 372 1164 l 376 1068 q 273 1099 306 1072 q 240 1176 240 1125 q 273 1260 240 1233 q 376 1292 306 1288 z "},"Ǻ":{"ha":819,"x_min":7,"x_max":813,"o":"m 288 1011 l 581 1011 l 813 0 l 525 0 l 510 65 l 381 65 l 418 281 l 460 281 l 288 1011 m 297 0 l 7 0 l 238 918 l 367 376 l 297 0 m 446 1200 l 446 1292 q 547 1260 515 1288 q 579 1176 579 1233 q 446 1068 579 1076 l 446 1158 q 448 1167 447 1163 q 449 1178 449 1172 q 446 1200 449 1189 m 376 1292 l 376 1203 q 372 1178 372 1194 q 376 1156 372 1164 l 376 1068 q 273 1099 306 1072 q 240 1176 240 1125 q 273 1260 240 1233 q 376 1292 306 1288 m 364 1367 l 622 1367 l 511 1200 l 301 1200 l 364 1367 z "},"Ã":{"ha":819,"x_min":7,"x_max":813,"o":"m 288 1011 l 581 1011 l 813 0 l 525 0 l 510 65 l 381 65 l 418 281 l 460 281 l 288 1011 m 297 0 l 7 0 l 238 918 l 367 376 l 297 0 m 553 1263 q 558 1234 556 1249 q 560 1206 560 1219 q 527 1105 560 1146 q 428 1064 494 1064 q 375 1076 400 1064 q 330 1101 350 1089 q 296 1113 310 1113 q 271 1101 278 1113 q 264 1075 264 1090 l 165 1075 q 160 1104 163 1090 q 158 1132 158 1118 q 191 1233 158 1193 q 290 1274 224 1274 q 343 1262 318 1274 q 388 1238 368 1250 q 422 1225 408 1225 q 448 1236 442 1225 q 454 1263 454 1247 l 553 1263 z "},"Æ":{"ha":1046,"x_min":8,"x_max":1025,"o":"m 385 350 l 385 135 l 300 135 l 274 0 l 8 0 l 208 854 l 169 1000 l 1015 1000 l 974 778 l 417 778 l 342 350 l 385 350 m 454 708 l 725 708 l 725 625 l 957 625 l 915 403 l 725 403 l 725 222 l 1025 222 l 983 0 l 454 0 l 454 708 z "},"Ǽ":{"ha":1046,"x_min":8,"x_max":1025,"o":"m 385 350 l 385 135 l 300 135 l 274 0 l 8 0 l 208 854 l 169 1000 l 1015 1000 l 974 778 l 417 778 l 342 350 l 385 350 m 454 708 l 725 708 l 725 625 l 957 625 l 915 403 l 725 403 l 725 222 l 1025 222 l 983 0 l 454 0 l 454 708 m 563 1238 l 821 1238 l 710 1071 l 500 1071 l 563 1238 z "},"B":{"ha":811,"x_min":0,"x_max":778,"o":"m 347 458 l 347 183 l 361 183 q 463 209 431 183 q 496 300 496 235 q 464 393 496 360 q 581 429 528 407 q 669 488 633 451 q 753 399 728 453 q 778 268 778 346 q 683 69 778 139 q 396 0 589 0 l 76 0 l 76 740 l 347 740 l 347 589 l 360 589 q 451 613 422 589 q 479 699 479 638 q 451 785 479 761 q 360 810 422 810 l 76 810 l 0 1000 l 417 1000 q 661 931 585 1000 q 738 736 738 861 q 702 603 738 657 q 608 518 667 550 q 482 472 550 486 q 347 458 414 458 z "},"C":{"ha":701,"x_min":28,"x_max":667,"o":"m 319 529 l 28 529 q 80 817 32 713 q 218 967 128 922 q 442 1011 308 1011 q 544 1006 486 1011 q 656 989 601 1001 l 656 622 l 488 622 l 465 790 q 403 782 431 790 q 358 748 376 774 q 331 669 340 722 q 319 529 321 617 m 28 460 l 319 460 q 379 265 326 318 q 538 211 432 211 q 601 215 571 211 q 667 225 632 219 l 667 6 q 569 -9 626 -4 q 468 -14 513 -14 q 137 106 239 -14 q 28 460 35 225 z "},"Ć":{"ha":701,"x_min":28,"x_max":667,"o":"m 319 529 l 28 529 q 80 817 32 713 q 218 967 128 922 q 442 1011 308 1011 q 544 1006 486 1011 q 656 989 601 1001 l 656 622 l 488 622 l 465 790 q 403 782 431 790 q 358 748 376 774 q 331 669 340 722 q 319 529 321 617 m 28 460 l 319 460 q 379 265 326 318 q 538 211 432 211 q 601 215 571 211 q 667 225 632 219 l 667 6 q 569 -9 626 -4 q 468 -14 513 -14 q 137 106 239 -14 q 28 460 35 225 m 396 1238 l 654 1238 l 543 1071 l 333 1071 l 396 1238 z "},"Č":{"ha":701,"x_min":28,"x_max":676,"o":"m 319 529 l 28 529 q 80 817 32 713 q 218 967 128 922 q 442 1011 308 1011 q 544 1006 486 1011 q 656 989 601 1001 l 656 622 l 488 622 l 465 790 q 403 782 431 790 q 358 748 376 774 q 331 669 340 722 q 319 529 321 617 m 28 460 l 319 460 q 379 265 326 318 q 538 211 432 211 q 601 215 571 211 q 667 225 632 219 l 667 6 q 569 -9 626 -4 q 468 -14 513 -14 q 137 106 239 -14 q 28 460 35 225 m 372 1071 l 511 1238 l 676 1238 l 526 1071 l 372 1071 m 326 1106 l 207 1238 l 379 1238 l 413 1206 l 326 1106 z "},"Ç":{"ha":701,"x_min":28,"x_max":667,"o":"m 319 529 l 28 529 q 80 817 32 713 q 218 967 128 922 q 442 1011 308 1011 q 544 1006 486 1011 q 656 989 601 1001 l 656 622 l 488 622 l 465 790 q 403 782 431 790 q 358 748 376 774 q 331 669 340 722 q 319 529 321 617 m 28 460 l 319 460 q 379 265 326 318 q 538 211 432 211 q 601 215 571 211 q 667 225 632 219 l 667 6 q 569 -9 626 -4 q 468 -14 513 -14 q 137 106 239 -14 q 28 460 35 225 m 342 -69 l 499 -69 l 499 -81 q 449 -191 499 -160 q 333 -222 400 -222 q 284 -221 311 -222 q 226 -214 257 -219 l 226 -100 q 256 -104 240 -101 q 285 -107 271 -107 q 342 -69 329 -107 z "},"Ĉ":{"ha":701,"x_min":28,"x_max":676,"o":"m 319 529 l 28 529 q 80 817 32 713 q 218 967 128 922 q 442 1011 308 1011 q 544 1006 486 1011 q 656 989 601 1001 l 656 622 l 488 622 l 465 790 q 403 782 431 790 q 358 748 376 774 q 331 669 340 722 q 319 529 321 617 m 28 460 l 319 460 q 379 265 326 318 q 538 211 432 211 q 601 215 571 211 q 667 225 632 219 l 667 6 q 569 -9 626 -4 q 468 -14 513 -14 q 137 106 239 -14 q 28 460 35 225 m 372 1238 l 526 1238 l 676 1071 l 511 1071 l 372 1238 m 326 1203 l 413 1103 l 379 1071 l 207 1071 l 326 1203 z "},"Ċ":{"ha":701,"x_min":28,"x_max":667,"o":"m 319 529 l 28 529 q 80 817 32 713 q 218 967 128 922 q 442 1011 308 1011 q 544 1006 486 1011 q 656 989 601 1001 l 656 622 l 488 622 l 465 790 q 403 782 431 790 q 358 748 376 774 q 331 669 340 722 q 319 529 321 617 m 28 460 l 319 460 q 379 265 326 318 q 538 211 432 211 q 601 215 571 211 q 667 225 632 219 l 667 6 q 569 -9 626 -4 q 468 -14 513 -14 q 137 106 239 -14 q 28 460 35 225 m 310 1268 l 574 1268 l 574 1079 l 310 1079 l 310 1268 z "},"D":{"ha":833,"x_min":0,"x_max":806,"o":"m 76 778 l 0 1000 l 407 1000 q 638 956 550 1000 q 765 808 725 913 q 806 519 806 703 q 767 210 806 324 q 642 49 728 97 q 417 0 557 1 l 417 225 q 492 301 469 236 q 514 519 514 367 q 503 680 514 624 q 465 757 492 736 q 390 778 439 778 l 76 778 m 76 0 l 76 708 l 347 708 l 347 0 l 76 0 z "},"Ǆ":{"ha":1536,"x_min":0,"x_max":1515,"o":"m 76 778 l 0 1000 l 407 1000 q 638 956 550 1000 q 765 808 725 913 q 806 519 806 703 q 767 210 806 324 q 642 49 728 97 q 417 0 557 1 l 417 225 q 492 301 469 236 q 514 519 514 367 q 503 680 514 624 q 465 757 492 736 q 390 778 439 778 l 76 778 m 76 0 l 76 708 l 347 708 l 347 0 l 76 0 m 1214 1000 l 1096 778 l 868 778 l 868 1000 l 1214 1000 m 1071 0 l 854 0 l 854 168 l 1290 1000 l 1508 1000 l 1508 832 l 1071 0 m 1149 0 l 1267 222 l 1515 222 l 1515 0 l 1149 0 m 1115 1071 l 1254 1238 l 1419 1238 l 1269 1071 l 1115 1071 m 1069 1106 l 950 1238 l 1122 1238 l 1156 1206 l 1069 1106 z "},"Ď":{"ha":833,"x_min":0,"x_max":806,"o":"m 76 778 l 0 1000 l 407 1000 q 638 956 550 1000 q 765 808 725 913 q 806 519 806 703 q 767 210 806 324 q 642 49 728 97 q 417 0 557 1 l 417 225 q 492 301 469 236 q 514 519 514 367 q 503 680 514 624 q 465 757 492 736 q 390 778 439 778 l 76 778 m 76 0 l 76 708 l 347 708 l 347 0 l 76 0 m 321 1071 l 460 1238 l 625 1238 l 475 1071 l 321 1071 m 275 1106 l 156 1238 l 328 1238 l 361 1206 l 275 1106 z "},"Đ":{"ha":833,"x_min":0,"x_max":806,"o":"m 76 379 l 347 379 l 347 222 l 390 222 q 462 249 435 222 q 501 341 489 276 q 514 519 514 406 q 503 680 514 624 q 465 757 492 736 q 390 778 439 778 l 347 778 l 347 633 l 76 633 l 76 810 l 0 1000 l 407 1000 q 638 956 550 1000 q 765 808 725 913 q 806 519 806 703 q 765 208 806 322 q 638 47 725 94 q 407 0 550 0 l 76 0 l 76 379 m 18 449 l 18 564 l 443 564 l 443 449 l 18 449 z "},"ǅ":{"ha":1468,"x_min":0,"x_max":1426,"o":"m 76 778 l 0 1000 l 407 1000 q 638 956 550 1000 q 765 808 725 913 q 806 519 806 703 q 767 210 806 324 q 642 49 728 97 q 417 0 557 1 l 417 225 q 492 301 469 236 q 514 519 514 367 q 503 680 514 624 q 465 757 492 736 q 390 778 439 778 l 76 778 m 76 0 l 76 708 l 347 708 l 347 0 l 76 0 m 1150 799 l 1044 604 l 885 604 l 885 799 l 1150 799 m 1069 3 l 875 3 l 875 153 l 1222 799 l 1414 799 l 1414 651 l 1069 3 m 1140 0 l 1244 194 l 1426 194 l 1426 0 l 1140 0 m 1057 897 l 932 1068 l 1114 1068 l 1142 1035 l 1057 897 m 1247 1068 l 1404 1068 l 1253 861 l 1118 861 l 1247 1068 z "},"Ð":{"ha":833,"x_min":0,"x_max":806,"o":"m 76 379 l 347 379 l 347 222 l 390 222 q 462 249 435 222 q 501 341 489 276 q 514 519 514 406 q 503 680 514 624 q 465 757 492 736 q 390 778 439 778 l 347 778 l 347 633 l 76 633 l 76 810 l 0 1000 l 407 1000 q 638 956 550 1000 q 765 808 725 913 q 806 519 806 703 q 765 208 806 322 q 638 47 725 94 q 407 0 550 0 l 76 0 l 76 379 m 18 449 l 18 564 l 443 564 l 443 449 l 18 449 z "},"E":{"ha":696,"x_min":0,"x_max":675,"o":"m 89 778 l 0 1000 l 665 1000 l 624 778 l 89 778 m 76 708 l 347 708 l 347 625 l 607 625 l 565 403 l 347 403 l 347 222 l 675 222 l 633 0 l 76 0 l 76 708 z "},"É":{"ha":696,"x_min":0,"x_max":675,"o":"m 89 778 l 0 1000 l 665 1000 l 624 778 l 89 778 m 76 708 l 347 708 l 347 625 l 607 625 l 565 403 l 347 403 l 347 222 l 675 222 l 633 0 l 76 0 l 76 708 m 314 1238 l 572 1238 l 461 1071 l 251 1071 l 314 1238 z "},"Ĕ":{"ha":696,"x_min":0,"x_max":675,"o":"m 89 778 l 0 1000 l 665 1000 l 624 778 l 89 778 m 76 708 l 347 708 l 347 625 l 607 625 l 565 403 l 347 403 l 347 222 l 675 222 l 633 0 l 76 0 l 76 708 m 360 1071 q 206 1117 254 1071 q 147 1265 158 1164 l 267 1265 q 360 1208 289 1208 q 453 1265 431 1208 l 572 1265 q 515 1117 563 1164 q 360 1071 467 1071 z "},"Ě":{"ha":696,"x_min":0,"x_max":675,"o":"m 89 778 l 0 1000 l 665 1000 l 624 778 l 89 778 m 76 708 l 347 708 l 347 625 l 607 625 l 565 403 l 347 403 l 347 222 l 675 222 l 633 0 l 76 0 l 76 708 m 290 1071 l 429 1238 l 594 1238 l 444 1071 l 290 1071 m 244 1106 l 125 1238 l 297 1238 l 331 1206 l 244 1106 z "},"Ê":{"ha":696,"x_min":0,"x_max":675,"o":"m 89 778 l 0 1000 l 665 1000 l 624 778 l 89 778 m 76 708 l 347 708 l 347 625 l 607 625 l 565 403 l 347 403 l 347 222 l 675 222 l 633 0 l 76 0 l 76 708 m 290 1238 l 444 1238 l 594 1071 l 429 1071 l 290 1238 m 244 1203 l 331 1103 l 297 1071 l 125 1071 l 244 1203 z "},"Ế":{"ha":696,"x_min":0,"x_max":675,"o":"m 89 778 l 0 1000 l 665 1000 l 624 778 l 89 778 m 76 708 l 347 708 l 347 625 l 607 625 l 565 403 l 347 403 l 347 222 l 675 222 l 633 0 l 76 0 l 76 708 m 290 1238 l 444 1238 l 594 1071 l 429 1071 l 290 1238 m 244 1203 l 331 1103 l 297 1071 l 125 1071 l 244 1203 m 314 1444 l 572 1444 l 461 1278 l 251 1278 l 314 1444 z "},"Ệ":{"ha":696,"x_min":0,"x_max":675,"o":"m 89 778 l 0 1000 l 665 1000 l 624 778 l 89 778 m 76 708 l 347 708 l 347 625 l 607 625 l 565 403 l 347 403 l 347 222 l 675 222 l 633 0 l 76 0 l 76 708 m 251 -64 l 515 -64 l 515 -253 l 251 -253 l 251 -64 m 290 1238 l 444 1238 l 594 1071 l 429 1071 l 290 1238 m 244 1203 l 331 1103 l 297 1071 l 125 1071 l 244 1203 z "},"Ề":{"ha":696,"x_min":0,"x_max":675,"o":"m 89 778 l 0 1000 l 665 1000 l 624 778 l 89 778 m 76 708 l 347 708 l 347 625 l 607 625 l 565 403 l 347 403 l 347 222 l 675 222 l 633 0 l 76 0 l 76 708 m 290 1238 l 444 1238 l 594 1071 l 429 1071 l 290 1238 m 244 1203 l 331 1103 l 297 1071 l 125 1071 l 244 1203 m 413 1444 l 475 1278 l 265 1278 l 154 1444 l 413 1444 z "},"Ể":{"ha":696,"x_min":0,"x_max":740,"o":"m 89 778 l 0 1000 l 665 1000 l 624 778 l 89 778 m 76 708 l 347 708 l 347 625 l 607 625 l 565 403 l 347 403 l 347 222 l 675 222 l 633 0 l 76 0 l 76 708 m 290 1238 l 444 1238 l 594 1071 l 429 1071 l 290 1238 m 244 1203 l 331 1103 l 297 1071 l 125 1071 l 244 1203 m 585 1149 l 525 1221 q 568 1260 556 1236 q 570 1304 581 1285 q 522 1324 560 1324 q 481 1320 501 1324 q 450 1313 461 1317 l 460 1432 q 569 1450 511 1450 q 674 1424 635 1450 q 726 1359 713 1399 q 729 1277 740 1319 q 682 1199 718 1235 q 585 1149 646 1164 z "},"Ễ":{"ha":696,"x_min":0,"x_max":675,"o":"m 89 778 l 0 1000 l 665 1000 l 624 778 l 89 778 m 76 708 l 347 708 l 347 625 l 607 625 l 565 403 l 347 403 l 347 222 l 675 222 l 633 0 l 76 0 l 76 708 m 290 1238 l 444 1238 l 594 1071 l 429 1071 l 290 1238 m 244 1203 l 331 1103 l 297 1071 l 125 1071 l 244 1203 m 503 1469 q 508 1441 506 1456 q 510 1413 510 1426 q 477 1312 510 1353 q 378 1271 444 1271 q 325 1283 350 1271 q 280 1308 300 1296 q 246 1319 260 1319 q 221 1308 228 1319 q 214 1282 214 1297 l 115 1282 q 110 1311 113 1297 q 108 1339 108 1325 q 141 1440 108 1400 q 240 1481 174 1481 q 293 1469 268 1481 q 338 1444 318 1457 q 372 1432 358 1432 q 398 1443 392 1432 q 404 1469 404 1454 l 503 1469 z "},"Ȅ":{"ha":696,"x_min":-1,"x_max":675,"o":"m 89 778 l 0 1000 l 665 1000 l 624 778 l 89 778 m 76 708 l 347 708 l 347 625 l 607 625 l 565 403 l 347 403 l 347 222 l 675 222 l 633 0 l 76 0 l 76 708 m 546 1238 l 608 1071 l 399 1071 l 310 1238 l 546 1238 m 235 1238 l 325 1071 l 115 1071 l -1 1238 l 235 1238 z "},"Ë":{"ha":696,"x_min":0,"x_max":675,"o":"m 89 778 l 0 1000 l 665 1000 l 624 778 l 89 778 m 76 708 l 347 708 l 347 625 l 607 625 l 565 403 l 347 403 l 347 222 l 675 222 l 633 0 l 76 0 l 76 708 m 107 1268 l 329 1268 l 329 1079 l 107 1079 l 107 1268 m 390 1268 l 613 1268 l 613 1079 l 390 1079 l 390 1268 z "},"Ė":{"ha":696,"x_min":0,"x_max":675,"o":"m 89 778 l 0 1000 l 665 1000 l 624 778 l 89 778 m 76 708 l 347 708 l 347 625 l 607 625 l 565 403 l 347 403 l 347 222 l 675 222 l 633 0 l 76 0 l 76 708 m 228 1268 l 492 1268 l 492 1079 l 228 1079 l 228 1268 z "},"Ẹ":{"ha":696,"x_min":0,"x_max":675,"o":"m 89 778 l 0 1000 l 665 1000 l 624 778 l 89 778 m 76 708 l 347 708 l 347 625 l 607 625 l 565 403 l 347 403 l 347 222 l 675 222 l 633 0 l 76 0 l 76 708 m 251 -64 l 515 -64 l 515 -253 l 251 -253 l 251 -64 z "},"È":{"ha":696,"x_min":0,"x_max":675,"o":"m 89 778 l 0 1000 l 665 1000 l 624 778 l 89 778 m 76 708 l 347 708 l 347 625 l 607 625 l 565 403 l 347 403 l 347 222 l 675 222 l 633 0 l 76 0 l 76 708 m 413 1238 l 475 1071 l 265 1071 l 154 1238 l 413 1238 z "},"Ẻ":{"ha":696,"x_min":0,"x_max":675,"o":"m 89 778 l 0 1000 l 665 1000 l 624 778 l 89 778 m 76 708 l 347 708 l 347 625 l 607 625 l 565 403 l 347 403 l 347 222 l 675 222 l 633 0 l 76 0 l 76 708 m 353 1051 l 293 1124 q 336 1163 324 1139 q 338 1207 349 1188 q 290 1226 328 1226 q 249 1223 269 1226 q 218 1215 229 1219 l 228 1335 q 338 1353 279 1353 q 442 1327 403 1353 q 494 1262 481 1301 q 497 1180 508 1222 q 450 1102 486 1138 q 353 1051 414 1067 z "},"Ȇ":{"ha":696,"x_min":0,"x_max":675,"o":"m 89 778 l 0 1000 l 665 1000 l 624 778 l 89 778 m 76 708 l 347 708 l 347 625 l 607 625 l 565 403 l 347 403 l 347 222 l 675 222 l 633 0 l 76 0 l 76 708 m 360 1267 q 515 1220 467 1267 q 572 1072 563 1174 l 453 1072 q 360 1129 431 1129 q 267 1072 289 1129 l 147 1072 q 206 1220 158 1174 q 360 1267 254 1267 z "},"Ē":{"ha":696,"x_min":0,"x_max":675,"o":"m 89 778 l 0 1000 l 665 1000 l 624 778 l 89 778 m 76 708 l 347 708 l 347 625 l 607 625 l 565 403 l 347 403 l 347 222 l 675 222 l 633 0 l 76 0 l 76 708 m 110 1246 l 521 1246 l 521 1093 l 110 1093 l 110 1246 z "},"Ę":{"ha":696,"x_min":0,"x_max":675,"o":"m 89 778 l 0 1000 l 665 1000 l 624 778 l 89 778 m 76 708 l 347 708 l 347 625 l 607 625 l 565 403 l 347 403 l 347 222 l 675 222 l 633 0 l 76 0 l 76 708 m 440 -71 l 601 -71 q 675 -104 613 -115 l 675 -212 q 636 -219 656 -217 q 599 -222 617 -222 q 467 -176 506 -222 q 440 -71 428 -131 z "},"Ẽ":{"ha":696,"x_min":0,"x_max":675,"o":"m 89 778 l 0 1000 l 665 1000 l 624 778 l 89 778 m 76 708 l 347 708 l 347 625 l 607 625 l 565 403 l 347 403 l 347 222 l 675 222 l 633 0 l 76 0 l 76 708 m 503 1263 q 508 1234 506 1249 q 510 1206 510 1219 q 477 1105 510 1146 q 378 1064 444 1064 q 325 1076 350 1064 q 280 1101 300 1089 q 246 1113 260 1113 q 221 1101 228 1113 q 214 1075 214 1090 l 115 1075 q 110 1104 113 1090 q 108 1132 108 1118 q 141 1233 108 1193 q 240 1274 174 1274 q 293 1262 268 1274 q 338 1238 318 1250 q 372 1225 358 1225 q 398 1236 392 1225 q 404 1263 404 1247 l 503 1263 z "},"Ə":{"ha":796,"x_min":21,"x_max":768,"o":"m 422 -12 l 422 208 q 469 300 456 231 q 483 490 483 369 q 457 669 483 608 q 378 751 431 729 q 249 774 326 774 q 78 757 172 774 l 53 982 q 191 1004 129 997 q 313 1011 253 1011 q 653 874 538 1011 q 768 496 768 736 q 686 123 768 244 q 422 -12 604 1 m 353 207 l 353 -14 q 160 48 233 -10 q 53 203 86 106 q 21 426 21 301 q 24 508 21 467 q 32 593 26 550 l 407 593 q 413 541 411 567 q 414 489 414 515 q 413 445 414 467 q 413 401 413 424 l 296 401 q 296 382 296 392 q 308 280 296 332 q 353 207 319 228 z "},"F":{"ha":658,"x_min":0,"x_max":644,"o":"m 89 778 l 0 1000 l 644 1000 l 603 778 l 89 778 m 76 708 l 347 708 l 347 589 l 578 589 l 536 367 l 347 367 l 347 0 l 76 0 l 76 708 z "},"G":{"ha":760,"x_min":28,"x_max":739,"o":"m 319 531 l 28 531 q 93 807 35 701 q 252 962 151 913 q 483 1011 353 1011 q 585 1003 532 1011 q 693 983 638 994 l 668 756 q 590 769 622 764 q 524 774 557 774 q 411 753 456 774 q 345 679 367 732 q 319 531 324 626 m 489 -14 l 489 304 l 413 494 l 739 494 l 739 47 q 628 3 694 18 q 489 -14 563 -11 m 419 224 l 419 -12 q 216 44 303 -6 q 81 197 129 94 q 28 461 33 299 l 319 461 q 344 300 322 356 q 419 224 367 244 z "},"Ğ":{"ha":760,"x_min":28,"x_max":739,"o":"m 319 531 l 28 531 q 93 807 35 701 q 252 962 151 913 q 483 1011 353 1011 q 585 1003 532 1011 q 693 983 638 994 l 668 756 q 590 769 622 764 q 524 774 557 774 q 411 753 456 774 q 345 679 367 732 q 319 531 324 626 m 489 -14 l 489 304 l 413 494 l 739 494 l 739 47 q 628 3 694 18 q 489 -14 563 -11 m 419 224 l 419 -12 q 216 44 303 -6 q 81 197 129 94 q 28 461 33 299 l 319 461 q 344 300 322 356 q 419 224 367 244 m 467 1071 q 313 1117 361 1071 q 254 1265 265 1164 l 374 1265 q 467 1208 396 1208 q 560 1265 538 1208 l 679 1265 q 622 1117 669 1164 q 467 1071 574 1071 z "},"Ǧ":{"ha":760,"x_min":28,"x_max":739,"o":"m 319 531 l 28 531 q 93 807 35 701 q 252 962 151 913 q 483 1011 353 1011 q 585 1003 532 1011 q 693 983 638 994 l 668 756 q 590 769 622 764 q 524 774 557 774 q 411 753 456 774 q 345 679 367 732 q 319 531 324 626 m 489 -14 l 489 304 l 413 494 l 739 494 l 739 47 q 628 3 694 18 q 489 -14 563 -11 m 419 224 l 419 -12 q 216 44 303 -6 q 81 197 129 94 q 28 461 33 299 l 319 461 q 344 300 322 356 q 419 224 367 244 m 397 1071 l 536 1238 l 701 1238 l 551 1071 l 397 1071 m 351 1106 l 232 1238 l 404 1238 l 438 1206 l 351 1106 z "},"Ĝ":{"ha":760,"x_min":28,"x_max":739,"o":"m 319 531 l 28 531 q 93 807 35 701 q 252 962 151 913 q 483 1011 353 1011 q 585 1003 532 1011 q 693 983 638 994 l 668 756 q 590 769 622 764 q 524 774 557 774 q 411 753 456 774 q 345 679 367 732 q 319 531 324 626 m 489 -14 l 489 304 l 413 494 l 739 494 l 739 47 q 628 3 694 18 q 489 -14 563 -11 m 419 224 l 419 -12 q 216 44 303 -6 q 81 197 129 94 q 28 461 33 299 l 319 461 q 344 300 322 356 q 419 224 367 244 m 397 1238 l 551 1238 l 701 1071 l 536 1071 l 397 1238 m 351 1203 l 438 1103 l 404 1071 l 232 1071 l 351 1203 z "},"Ģ":{"ha":760,"x_min":28,"x_max":739,"o":"m 319 531 l 28 531 q 93 807 35 701 q 252 962 151 913 q 483 1011 353 1011 q 585 1003 532 1011 q 693 983 638 994 l 668 756 q 590 769 622 764 q 524 774 557 774 q 411 753 456 774 q 345 679 367 732 q 319 531 324 626 m 489 -14 l 489 304 l 413 494 l 739 494 l 739 47 q 628 3 694 18 q 489 -14 563 -11 m 419 224 l 419 -12 q 216 44 303 -6 q 81 197 129 94 q 28 461 33 299 l 319 461 q 344 300 322 356 q 419 224 367 244 m 314 -208 l 353 -51 l 590 -51 l 506 -208 l 314 -208 z "},"Ġ":{"ha":760,"x_min":28,"x_max":739,"o":"m 319 531 l 28 531 q 93 807 35 701 q 252 962 151 913 q 483 1011 353 1011 q 585 1003 532 1011 q 693 983 638 994 l 668 756 q 590 769 622 764 q 524 774 557 774 q 411 753 456 774 q 345 679 367 732 q 319 531 324 626 m 489 -14 l 489 304 l 413 494 l 739 494 l 739 47 q 628 3 694 18 q 489 -14 563 -11 m 419 224 l 419 -12 q 216 44 303 -6 q 81 197 129 94 q 28 461 33 299 l 319 461 q 344 300 322 356 q 419 224 367 244 m 335 1268 l 599 1268 l 599 1079 l 335 1079 l 335 1268 z "},"H":{"ha":806,"x_min":63,"x_max":743,"o":"m 472 683 l 472 1000 l 743 1000 l 743 683 l 472 683 m 333 0 l 63 0 l 63 1000 l 333 1000 l 333 615 l 743 615 l 743 394 l 333 394 l 333 0 m 743 324 l 743 0 l 472 0 l 472 324 l 743 324 z "},"Ħ":{"ha":806,"x_min":21,"x_max":785,"o":"m 333 914 l 63 914 l 63 1000 l 333 1000 l 333 914 m 743 914 l 472 914 l 472 1000 l 743 1000 l 743 914 m 21 729 l 21 844 l 785 844 l 785 729 l 21 729 m 472 660 l 743 660 l 743 0 l 472 0 l 472 393 l 333 393 l 333 0 l 63 0 l 63 660 l 333 660 l 333 615 l 472 615 l 472 660 z "},"Ĥ":{"ha":806,"x_min":63,"x_max":743,"o":"m 472 683 l 472 1000 l 743 1000 l 743 683 l 472 683 m 333 0 l 63 0 l 63 1000 l 333 1000 l 333 615 l 743 615 l 743 394 l 333 394 l 333 0 m 743 324 l 743 0 l 472 0 l 472 324 l 743 324 m 333 1238 l 488 1238 l 638 1071 l 472 1071 l 333 1238 m 288 1203 l 374 1103 l 340 1071 l 168 1071 l 288 1203 z "},"I":{"ha":396,"x_min":63,"x_max":333,"o":"m 63 1000 l 333 1000 l 333 0 l 63 0 l 63 1000 z "},"Ĳ":{"ha":983,"x_min":63,"x_max":928,"o":"m 63 1000 l 333 1000 l 333 0 l 63 0 l 63 1000 m 657 810 l 581 1000 l 928 1000 l 928 299 q 912 138 928 199 q 860 43 896 76 q 766 -2 825 10 q 621 -14 707 -14 q 554 -10 594 -14 q 474 0 514 -7 q 410 14 435 7 l 436 235 q 483 224 458 229 q 532 219 508 219 q 613 234 586 219 q 649 285 640 249 q 657 390 657 322 l 657 810 z "},"Í":{"ha":396,"x_min":63,"x_max":410,"o":"m 63 1000 l 333 1000 l 333 0 l 63 0 l 63 1000 m 151 1238 l 410 1238 l 299 1071 l 89 1071 l 151 1238 z "},"Ĭ":{"ha":396,"x_min":-15,"x_max":410,"o":"m 63 1000 l 333 1000 l 333 0 l 63 0 l 63 1000 m 197 1071 q 44 1117 92 1071 q -15 1265 -4 1164 l 104 1265 q 197 1208 126 1208 q 290 1265 268 1208 l 410 1265 q 352 1117 400 1164 q 197 1071 304 1071 z "},"Î":{"ha":396,"x_min":-37,"x_max":432,"o":"m 63 1000 l 333 1000 l 333 0 l 63 0 l 63 1000 m 128 1238 l 282 1238 l 432 1071 l 267 1071 l 128 1238 m 82 1203 l 168 1103 l 135 1071 l -37 1071 l 82 1203 z "},"Ȉ":{"ha":396,"x_min":-164,"x_max":446,"o":"m 63 1000 l 333 1000 l 333 0 l 63 0 l 63 1000 m 383 1238 l 446 1071 l 236 1071 l 147 1238 l 383 1238 m 72 1238 l 163 1071 l -47 1071 l -164 1238 l 72 1238 z "},"Ï":{"ha":396,"x_min":-56,"x_max":450,"o":"m 63 1000 l 333 1000 l 333 0 l 63 0 l 63 1000 m -56 1268 l 167 1268 l 167 1079 l -56 1079 l -56 1268 m 228 1268 l 450 1268 l 450 1079 l 228 1079 l 228 1268 z "},"İ":{"ha":396,"x_min":63,"x_max":333,"o":"m 63 1000 l 333 1000 l 333 0 l 63 0 l 63 1000 m 65 1268 l 329 1268 l 329 1079 l 65 1079 l 65 1268 z "},"Ị":{"ha":396,"x_min":63,"x_max":333,"o":"m 63 1000 l 333 1000 l 333 0 l 63 0 l 63 1000 m 65 -64 l 329 -64 l 329 -253 l 65 -253 l 65 -64 z "},"Ì":{"ha":396,"x_min":-8,"x_max":333,"o":"m 63 1000 l 333 1000 l 333 0 l 63 0 l 63 1000 m 250 1238 l 313 1071 l 103 1071 l -8 1238 l 250 1238 z "},"Ỉ":{"ha":396,"x_min":56,"x_max":346,"o":"m 63 1000 l 333 1000 l 333 0 l 63 0 l 63 1000 m 190 1051 l 131 1124 q 174 1163 161 1139 q 176 1207 186 1188 q 128 1226 165 1226 q 87 1223 107 1226 q 56 1215 67 1219 l 65 1335 q 175 1353 117 1353 q 279 1327 240 1353 q 332 1262 318 1301 q 335 1180 346 1222 q 288 1102 324 1138 q 190 1051 251 1067 z "},"Ȋ":{"ha":396,"x_min":-15,"x_max":410,"o":"m 63 1000 l 333 1000 l 333 0 l 63 0 l 63 1000 m 197 1267 q 352 1220 304 1267 q 410 1072 400 1174 l 290 1072 q 197 1129 268 1129 q 104 1072 126 1129 l -15 1072 q 44 1220 -4 1174 q 197 1267 92 1267 z "},"Ī":{"ha":396,"x_min":-53,"x_max":358,"o":"m 63 1000 l 333 1000 l 333 0 l 63 0 l 63 1000 m -53 1246 l 358 1246 l 358 1093 l -53 1093 l -53 1246 z "},"Į":{"ha":396,"x_min":63,"x_max":333,"o":"m 63 1000 l 333 1000 l 333 0 l 63 0 l 63 1000 m 94 -71 l 256 -71 q 329 -104 267 -115 l 329 -212 q 290 -219 310 -217 q 253 -222 271 -222 q 121 -176 160 -222 q 94 -71 82 -131 z "},"Ĩ":{"ha":396,"x_min":-54,"x_max":347,"o":"m 63 1000 l 333 1000 l 333 0 l 63 0 l 63 1000 m 340 1263 q 345 1234 343 1249 q 347 1206 347 1219 q 315 1105 347 1146 q 215 1064 282 1064 q 163 1076 188 1064 q 117 1101 138 1089 q 83 1113 97 1113 q 58 1101 65 1113 q 51 1075 51 1090 l -47 1075 q -52 1104 -50 1090 q -54 1132 -54 1118 q -22 1233 -54 1193 q 78 1274 11 1274 q 131 1262 106 1274 q 176 1238 156 1250 q 210 1225 196 1225 q 235 1236 229 1225 q 242 1263 242 1247 l 340 1263 z "},"J":{"ha":588,"x_min":14,"x_max":532,"o":"m 261 810 l 185 1000 l 532 1000 l 532 299 q 516 138 532 199 q 465 43 500 76 q 370 -2 429 10 q 225 -14 311 -14 q 158 -10 199 -14 q 78 0 118 -7 q 14 14 39 7 l 40 235 q 88 224 63 229 q 136 219 113 219 q 217 234 190 219 q 253 285 244 249 q 261 390 261 322 l 261 810 z "},"Ĵ":{"ha":588,"x_min":14,"x_max":624,"o":"m 261 810 l 185 1000 l 532 1000 l 532 299 q 516 138 532 199 q 465 43 500 76 q 370 -2 429 10 q 225 -14 311 -14 q 158 -10 199 -14 q 78 0 118 -7 q 14 14 39 7 l 40 235 q 88 224 63 229 q 136 219 113 219 q 217 234 190 219 q 253 285 244 249 q 261 390 261 322 l 261 810 m 319 1238 l 474 1238 l 624 1071 l 458 1071 l 319 1238 m 274 1203 l 360 1103 l 326 1071 l 154 1071 l 274 1203 z "},"K":{"ha":785,"x_min":63,"x_max":764,"o":"m 333 817 l 63 181 l 63 1000 l 333 1000 l 333 817 m 339 0 l 63 0 l 482 1000 l 760 1000 l 339 0 m 447 79 l 606 450 l 764 0 l 472 0 l 447 79 z "},"Ķ":{"ha":785,"x_min":63,"x_max":764,"o":"m 333 817 l 63 181 l 63 1000 l 333 1000 l 333 817 m 339 0 l 63 0 l 482 1000 l 760 1000 l 339 0 m 447 79 l 606 450 l 764 0 l 472 0 l 447 79 m 242 -208 l 281 -51 l 518 -51 l 433 -208 l 242 -208 z "},"L":{"ha":647,"x_min":63,"x_max":640,"o":"m 333 306 l 63 306 l 63 1000 l 333 1000 l 333 306 m 63 236 l 640 236 l 597 0 l 63 0 l 63 236 z "},"Ǉ":{"ha":1228,"x_min":63,"x_max":1172,"o":"m 333 306 l 63 306 l 63 1000 l 333 1000 l 333 306 m 63 236 l 640 236 l 597 0 l 63 0 l 63 236 m 901 810 l 825 1000 l 1172 1000 l 1172 299 q 1156 138 1172 199 q 1105 43 1140 76 q 1010 -2 1069 10 q 865 -14 951 -14 q 799 -10 839 -14 q 719 0 758 -7 q 654 14 679 7 l 681 235 q 728 224 703 229 q 776 219 753 219 q 858 234 831 219 q 893 285 885 249 q 901 390 901 322 l 901 810 z "},"Ĺ":{"ha":647,"x_min":63,"x_max":640,"o":"m 333 306 l 63 306 l 63 1000 l 333 1000 l 333 306 m 63 236 l 640 236 l 597 0 l 63 0 l 63 236 m 156 1238 l 414 1238 l 303 1071 l 93 1071 l 156 1238 z "},"Ľ":{"ha":647,"x_min":63,"x_max":646,"o":"m 333 306 l 63 306 l 63 1000 l 333 1000 l 333 306 m 63 236 l 640 236 l 597 0 l 63 0 l 63 236 m 417 1049 l 646 1049 l 563 833 l 374 833 l 417 1049 z "},"Ļ":{"ha":647,"x_min":63,"x_max":640,"o":"m 333 306 l 63 306 l 63 1000 l 333 1000 l 333 306 m 63 236 l 640 236 l 597 0 l 63 0 l 63 236 m 174 -208 l 213 -51 l 450 -51 l 365 -208 l 174 -208 z "},"Ŀ":{"ha":796,"x_min":63,"x_max":761,"o":"m 333 306 l 63 306 l 63 1000 l 333 1000 l 333 306 m 63 236 l 640 236 l 597 0 l 63 0 l 63 236 m 517 560 l 761 560 l 761 331 l 517 331 l 517 560 z "},"ǈ":{"ha":1008,"x_min":63,"x_max":960,"o":"m 333 306 l 63 306 l 63 1000 l 333 1000 l 333 306 m 63 236 l 640 236 l 597 0 l 63 0 l 63 236 m 703 799 l 953 799 l 953 -174 l 703 -208 l 703 799 m 696 1049 l 960 1049 l 960 860 l 696 860 l 696 1049 z "},"Ł":{"ha":647,"x_min":-25,"x_max":640,"o":"m 333 769 l 63 663 l 63 1000 l 333 1000 l 333 769 m -25 557 l 460 746 l 460 604 l -25 414 l -25 557 m 63 374 l 333 481 l 333 236 l 640 236 l 597 0 l 63 0 l 63 374 z "},"M":{"ha":1024,"x_min":-28,"x_max":976,"o":"m 575 206 l 435 206 l -28 1000 l 317 1000 l 511 582 l 706 1000 l 976 1000 l 575 206 m 697 300 l 961 825 l 961 0 l 697 0 l 697 300 m 63 717 l 326 250 l 326 0 l 63 0 l 63 717 z "},"N":{"ha":886,"x_min":0,"x_max":824,"o":"m 824 0 l 499 0 l 0 1000 l 322 1000 l 824 0 m 824 156 l 560 668 l 560 1000 l 824 1000 l 824 156 m 57 740 l 321 207 l 321 0 l 57 0 l 57 740 z "},"Ǌ":{"ha":1474,"x_min":0,"x_max":1418,"o":"m 824 0 l 499 0 l 0 1000 l 322 1000 l 824 0 m 824 156 l 560 668 l 560 1000 l 824 1000 l 824 156 m 57 740 l 321 207 l 321 0 l 57 0 l 57 740 m 1147 810 l 1071 1000 l 1418 1000 l 1418 299 q 1402 138 1418 199 q 1351 43 1386 76 q 1256 -2 1315 10 q 1111 -14 1197 -14 q 1044 -10 1085 -14 q 965 0 1004 -7 q 900 14 925 7 l 926 235 q 974 224 949 229 q 1022 219 999 219 q 1103 234 1076 219 q 1139 285 1131 249 q 1147 390 1147 322 l 1147 810 z "},"Ń":{"ha":886,"x_min":0,"x_max":824,"o":"m 824 0 l 499 0 l 0 1000 l 322 1000 l 824 0 m 824 156 l 560 668 l 560 1000 l 824 1000 l 824 156 m 57 740 l 321 207 l 321 0 l 57 0 l 57 740 m 425 1238 l 683 1238 l 572 1071 l 363 1071 l 425 1238 z "},"Ň":{"ha":886,"x_min":0,"x_max":824,"o":"m 824 0 l 499 0 l 0 1000 l 322 1000 l 824 0 m 824 156 l 560 668 l 560 1000 l 824 1000 l 824 156 m 57 740 l 321 207 l 321 0 l 57 0 l 57 740 m 401 1071 l 540 1238 l 706 1238 l 556 1071 l 401 1071 m 356 1106 l 236 1238 l 408 1238 l 442 1206 l 356 1106 z "},"Ņ":{"ha":886,"x_min":0,"x_max":824,"o":"m 824 0 l 499 0 l 0 1000 l 322 1000 l 824 0 m 824 156 l 560 668 l 560 1000 l 824 1000 l 824 156 m 57 740 l 321 207 l 321 0 l 57 0 l 57 740 m 328 -208 l 367 -51 l 604 -51 l 519 -208 l 328 -208 z "},"ǋ":{"ha":1247,"x_min":0,"x_max":1199,"o":"m 824 0 l 499 0 l 0 1000 l 322 1000 l 824 0 m 824 156 l 560 668 l 560 1000 l 824 1000 l 824 156 m 57 740 l 321 207 l 321 0 l 57 0 l 57 740 m 942 799 l 1192 799 l 1192 -174 l 942 -208 l 942 799 m 935 1049 l 1199 1049 l 1199 860 l 935 860 l 935 1049 z "},"Ñ":{"ha":886,"x_min":0,"x_max":824,"o":"m 824 0 l 499 0 l 0 1000 l 322 1000 l 824 0 m 824 156 l 560 668 l 560 1000 l 824 1000 l 824 156 m 57 740 l 321 207 l 321 0 l 57 0 l 57 740 m 614 1263 q 619 1234 617 1249 q 621 1206 621 1219 q 588 1105 621 1146 q 489 1064 556 1064 q 436 1076 461 1064 q 391 1101 411 1089 q 357 1113 371 1113 q 332 1101 339 1113 q 325 1075 325 1090 l 226 1075 q 222 1104 224 1090 q 219 1132 219 1118 q 252 1233 219 1193 q 351 1274 285 1274 q 404 1262 379 1274 q 449 1238 429 1250 q 483 1225 469 1225 q 509 1236 503 1225 q 515 1263 515 1247 l 614 1263 z "},"Ŋ":{"ha":886,"x_min":0,"x_max":824,"o":"m 0 1000 l 322 1000 l 824 42 q 799 -128 824 -71 q 718 -206 775 -186 q 563 -225 661 -225 q 506 -222 540 -225 q 438 -212 471 -218 q 383 -201 404 -207 l 399 -60 q 439 -65 418 -61 q 481 -68 460 -68 q 553 -54 531 -68 l 0 1000 m 824 194 l 560 697 l 560 1000 l 824 1000 l 824 194 m 57 725 l 321 211 l 321 0 l 57 0 l 57 725 z "},"O":{"ha":814,"x_min":28,"x_max":786,"o":"m 442 -12 l 442 210 q 483 293 472 228 q 494 501 494 358 q 483 709 494 646 q 442 789 472 772 l 442 1010 q 641 956 565 1006 q 751 796 717 906 q 786 499 786 686 q 751 201 786 311 q 641 42 717 92 q 442 -12 565 -7 m 372 210 l 372 -14 q 174 42 250 -8 q 63 201 97 92 q 28 499 28 311 q 63 796 28 686 q 173 956 97 906 q 372 1010 249 1006 l 372 789 q 331 708 342 772 q 319 501 319 644 q 331 292 319 358 q 372 210 342 226 z "},"Ó":{"ha":814,"x_min":28,"x_max":786,"o":"m 442 -12 l 442 210 q 483 293 472 228 q 494 501 494 358 q 483 709 494 646 q 442 789 472 772 l 442 1010 q 641 956 565 1006 q 751 796 717 906 q 786 499 786 686 q 751 201 786 311 q 641 42 717 92 q 442 -12 565 -7 m 372 210 l 372 -14 q 174 42 250 -8 q 63 201 97 92 q 28 499 28 311 q 63 796 28 686 q 173 956 97 906 q 372 1010 249 1006 l 372 789 q 331 708 342 772 q 319 501 319 644 q 331 292 319 358 q 372 210 342 226 m 361 1238 l 619 1238 l 508 1071 l 299 1071 l 361 1238 z "},"Ŏ":{"ha":814,"x_min":28,"x_max":786,"o":"m 442 -12 l 442 210 q 483 293 472 228 q 494 501 494 358 q 483 709 494 646 q 442 789 472 772 l 442 1010 q 641 956 565 1006 q 751 796 717 906 q 786 499 786 686 q 751 201 786 311 q 641 42 717 92 q 442 -12 565 -7 m 372 210 l 372 -14 q 174 42 250 -8 q 63 201 97 92 q 28 499 28 311 q 63 796 28 686 q 173 956 97 906 q 372 1010 249 1006 l 372 789 q 331 708 342 772 q 319 501 319 644 q 331 292 319 358 q 372 210 342 226 m 407 1071 q 253 1117 301 1071 q 194 1265 206 1164 l 314 1265 q 407 1208 336 1208 q 500 1265 478 1208 l 619 1265 q 562 1117 610 1164 q 407 1071 514 1071 z "},"Ô":{"ha":814,"x_min":28,"x_max":786,"o":"m 442 -12 l 442 210 q 483 293 472 228 q 494 501 494 358 q 483 709 494 646 q 442 789 472 772 l 442 1010 q 641 956 565 1006 q 751 796 717 906 q 786 499 786 686 q 751 201 786 311 q 641 42 717 92 q 442 -12 565 -7 m 372 210 l 372 -14 q 174 42 250 -8 q 63 201 97 92 q 28 499 28 311 q 63 796 28 686 q 173 956 97 906 q 372 1010 249 1006 l 372 789 q 331 708 342 772 q 319 501 319 644 q 331 292 319 358 q 372 210 342 226 m 338 1238 l 492 1238 l 642 1071 l 476 1071 l 338 1238 m 292 1203 l 378 1103 l 344 1071 l 172 1071 l 292 1203 z "},"Ố":{"ha":814,"x_min":28,"x_max":786,"o":"m 442 -12 l 442 210 q 483 293 472 228 q 494 501 494 358 q 483 709 494 646 q 442 789 472 772 l 442 1010 q 641 956 565 1006 q 751 796 717 906 q 786 499 786 686 q 751 201 786 311 q 641 42 717 92 q 442 -12 565 -7 m 372 210 l 372 -14 q 174 42 250 -8 q 63 201 97 92 q 28 499 28 311 q 63 796 28 686 q 173 956 97 906 q 372 1010 249 1006 l 372 789 q 331 708 342 772 q 319 501 319 644 q 331 292 319 358 q 372 210 342 226 m 338 1238 l 492 1238 l 642 1071 l 476 1071 l 338 1238 m 292 1203 l 378 1103 l 344 1071 l 172 1071 l 292 1203 m 361 1444 l 619 1444 l 508 1278 l 299 1278 l 361 1444 z "},"Ộ":{"ha":814,"x_min":28,"x_max":786,"o":"m 442 -12 l 442 210 q 483 293 472 228 q 494 501 494 358 q 483 709 494 646 q 442 789 472 772 l 442 1010 q 641 956 565 1006 q 751 796 717 906 q 786 499 786 686 q 751 201 786 311 q 641 42 717 92 q 442 -12 565 -7 m 372 210 l 372 -14 q 174 42 250 -8 q 63 201 97 92 q 28 499 28 311 q 63 796 28 686 q 173 956 97 906 q 372 1010 249 1006 l 372 789 q 331 708 342 772 q 319 501 319 644 q 331 292 319 358 q 372 210 342 226 m 275 -64 l 539 -64 l 539 -253 l 275 -253 l 275 -64 m 338 1238 l 492 1238 l 642 1071 l 476 1071 l 338 1238 m 292 1203 l 378 1103 l 344 1071 l 172 1071 l 292 1203 z "},"Ồ":{"ha":814,"x_min":28,"x_max":786,"o":"m 442 -12 l 442 210 q 483 293 472 228 q 494 501 494 358 q 483 709 494 646 q 442 789 472 772 l 442 1010 q 641 956 565 1006 q 751 796 717 906 q 786 499 786 686 q 751 201 786 311 q 641 42 717 92 q 442 -12 565 -7 m 372 210 l 372 -14 q 174 42 250 -8 q 63 201 97 92 q 28 499 28 311 q 63 796 28 686 q 173 956 97 906 q 372 1010 249 1006 l 372 789 q 331 708 342 772 q 319 501 319 644 q 331 292 319 358 q 372 210 342 226 m 338 1238 l 492 1238 l 642 1071 l 476 1071 l 338 1238 m 292 1203 l 378 1103 l 344 1071 l 172 1071 l 292 1203 m 460 1444 l 522 1278 l 313 1278 l 201 1444 l 460 1444 z "},"Ổ":{"ha":814,"x_min":28,"x_max":788,"o":"m 442 -12 l 442 210 q 483 293 472 228 q 494 501 494 358 q 483 709 494 646 q 442 789 472 772 l 442 1010 q 641 956 565 1006 q 751 796 717 906 q 786 499 786 686 q 751 201 786 311 q 641 42 717 92 q 442 -12 565 -7 m 372 210 l 372 -14 q 174 42 250 -8 q 63 201 97 92 q 28 499 28 311 q 63 796 28 686 q 173 956 97 906 q 372 1010 249 1006 l 372 789 q 331 708 342 772 q 319 501 319 644 q 331 292 319 358 q 372 210 342 226 m 338 1238 l 492 1238 l 642 1071 l 476 1071 l 338 1238 m 292 1203 l 378 1103 l 344 1071 l 172 1071 l 292 1203 m 632 1149 l 572 1221 q 615 1260 603 1236 q 617 1304 628 1285 q 569 1324 607 1324 q 528 1320 549 1324 q 497 1313 508 1317 l 507 1432 q 617 1450 558 1450 q 721 1424 682 1450 q 774 1359 760 1399 q 776 1277 788 1319 q 729 1199 765 1235 q 632 1149 693 1164 z "},"Ỗ":{"ha":814,"x_min":28,"x_max":786,"o":"m 442 -12 l 442 210 q 483 293 472 228 q 494 501 494 358 q 483 709 494 646 q 442 789 472 772 l 442 1010 q 641 956 565 1006 q 751 796 717 906 q 786 499 786 686 q 751 201 786 311 q 641 42 717 92 q 442 -12 565 -7 m 372 210 l 372 -14 q 174 42 250 -8 q 63 201 97 92 q 28 499 28 311 q 63 796 28 686 q 173 956 97 906 q 372 1010 249 1006 l 372 789 q 331 708 342 772 q 319 501 319 644 q 331 292 319 358 q 372 210 342 226 m 338 1238 l 492 1238 l 642 1071 l 476 1071 l 338 1238 m 292 1203 l 378 1103 l 344 1071 l 172 1071 l 292 1203 m 550 1469 q 555 1441 553 1456 q 557 1413 557 1426 q 524 1312 557 1353 q 425 1271 492 1271 q 372 1283 397 1271 q 327 1308 347 1296 q 293 1319 307 1319 q 268 1308 275 1319 q 261 1282 261 1297 l 163 1282 q 158 1311 160 1297 q 156 1339 156 1325 q 188 1440 156 1400 q 288 1481 221 1481 q 340 1469 315 1481 q 385 1444 365 1457 q 419 1432 406 1432 q 445 1443 439 1432 q 451 1469 451 1454 l 550 1469 z "},"Ȍ":{"ha":814,"x_min":28,"x_max":786,"o":"m 442 -12 l 442 210 q 483 293 472 228 q 494 501 494 358 q 483 709 494 646 q 442 789 472 772 l 442 1010 q 641 956 565 1006 q 751 796 717 906 q 786 499 786 686 q 751 201 786 311 q 641 42 717 92 q 442 -12 565 -7 m 372 210 l 372 -14 q 174 42 250 -8 q 63 201 97 92 q 28 499 28 311 q 63 796 28 686 q 173 956 97 906 q 372 1010 249 1006 l 372 789 q 331 708 342 772 q 319 501 319 644 q 331 292 319 358 q 372 210 342 226 m 593 1238 l 656 1071 l 446 1071 l 357 1238 l 593 1238 m 282 1238 l 372 1071 l 163 1071 l 46 1238 l 282 1238 z "},"Ö":{"ha":814,"x_min":28,"x_max":786,"o":"m 442 -12 l 442 210 q 483 293 472 228 q 494 501 494 358 q 483 709 494 646 q 442 789 472 772 l 442 1010 q 641 956 565 1006 q 751 796 717 906 q 786 499 786 686 q 751 201 786 311 q 641 42 717 92 q 442 -12 565 -7 m 372 210 l 372 -14 q 174 42 250 -8 q 63 201 97 92 q 28 499 28 311 q 63 796 28 686 q 173 956 97 906 q 372 1010 249 1006 l 372 789 q 331 708 342 772 q 319 501 319 644 q 331 292 319 358 q 372 210 342 226 m 154 1268 l 376 1268 l 376 1079 l 154 1079 l 154 1268 m 438 1268 l 660 1268 l 660 1079 l 438 1079 l 438 1268 z "},"Ȫ":{"ha":814,"x_min":28,"x_max":786,"o":"m 442 -12 l 442 210 q 483 293 472 228 q 494 501 494 358 q 483 709 494 646 q 442 789 472 772 l 442 1010 q 641 956 565 1006 q 751 796 717 906 q 786 499 786 686 q 751 201 786 311 q 641 42 717 92 q 442 -12 565 -7 m 372 210 l 372 -14 q 174 42 250 -8 q 63 201 97 92 q 28 499 28 311 q 63 796 28 686 q 173 956 97 906 q 372 1010 249 1006 l 372 789 q 331 708 342 772 q 319 501 319 644 q 331 292 319 358 q 372 210 342 226 m 154 1268 l 376 1268 l 376 1079 l 154 1079 l 154 1268 m 438 1268 l 660 1268 l 660 1079 l 438 1079 l 438 1268 m 157 1461 l 568 1461 l 568 1308 l 157 1308 l 157 1461 z "},"Ȱ":{"ha":814,"x_min":28,"x_max":786,"o":"m 442 -12 l 442 210 q 483 293 472 228 q 494 501 494 358 q 483 709 494 646 q 442 789 472 772 l 442 1010 q 641 956 565 1006 q 751 796 717 906 q 786 499 786 686 q 751 201 786 311 q 641 42 717 92 q 442 -12 565 -7 m 372 210 l 372 -14 q 174 42 250 -8 q 63 201 97 92 q 28 499 28 311 q 63 796 28 686 q 173 956 97 906 q 372 1010 249 1006 l 372 789 q 331 708 342 772 q 319 501 319 644 q 331 292 319 358 q 372 210 342 226 m 275 1268 l 539 1268 l 539 1079 l 275 1079 l 275 1268 m 157 1461 l 568 1461 l 568 1308 l 157 1308 l 157 1461 z "},"Ọ":{"ha":814,"x_min":28,"x_max":786,"o":"m 442 -12 l 442 210 q 483 293 472 228 q 494 501 494 358 q 483 709 494 646 q 442 789 472 772 l 442 1010 q 641 956 565 1006 q 751 796 717 906 q 786 499 786 686 q 751 201 786 311 q 641 42 717 92 q 442 -12 565 -7 m 372 210 l 372 -14 q 174 42 250 -8 q 63 201 97 92 q 28 499 28 311 q 63 796 28 686 q 173 956 97 906 q 372 1010 249 1006 l 372 789 q 331 708 342 772 q 319 501 319 644 q 331 292 319 358 q 372 210 342 226 m 275 -64 l 539 -64 l 539 -253 l 275 -253 l 275 -64 z "},"Ò":{"ha":814,"x_min":28,"x_max":786,"o":"m 442 -12 l 442 210 q 483 293 472 228 q 494 501 494 358 q 483 709 494 646 q 442 789 472 772 l 442 1010 q 641 956 565 1006 q 751 796 717 906 q 786 499 786 686 q 751 201 786 311 q 641 42 717 92 q 442 -12 565 -7 m 372 210 l 372 -14 q 174 42 250 -8 q 63 201 97 92 q 28 499 28 311 q 63 796 28 686 q 173 956 97 906 q 372 1010 249 1006 l 372 789 q 331 708 342 772 q 319 501 319 644 q 331 292 319 358 q 372 210 342 226 m 460 1238 l 522 1071 l 313 1071 l 201 1238 l 460 1238 z "},"Ỏ":{"ha":814,"x_min":28,"x_max":786,"o":"m 442 -12 l 442 210 q 483 293 472 228 q 494 501 494 358 q 483 709 494 646 q 442 789 472 772 l 442 1010 q 641 956 565 1006 q 751 796 717 906 q 786 499 786 686 q 751 201 786 311 q 641 42 717 92 q 442 -12 565 -7 m 372 210 l 372 -14 q 174 42 250 -8 q 63 201 97 92 q 28 499 28 311 q 63 796 28 686 q 173 956 97 906 q 372 1010 249 1006 l 372 789 q 331 708 342 772 q 319 501 319 644 q 331 292 319 358 q 372 210 342 226 m 400 1051 l 340 1124 q 383 1163 371 1139 q 385 1207 396 1188 q 338 1226 375 1226 q 297 1223 317 1226 q 265 1215 276 1219 l 275 1335 q 385 1353 326 1353 q 489 1327 450 1353 q 542 1262 528 1301 q 544 1180 556 1222 q 497 1102 533 1138 q 400 1051 461 1067 z "},"Ơ":{"ha":814,"x_min":28,"x_max":918,"o":"m 442 -12 l 442 210 q 483 293 472 228 q 494 501 494 358 q 483 709 494 646 q 442 789 472 772 l 442 1011 l 639 1011 q 707 1096 707 1011 l 707 1196 l 918 1196 l 918 1100 q 878 890 918 951 q 736 836 839 829 q 774 693 763 776 q 786 499 786 610 q 751 201 786 311 q 641 42 717 92 q 442 -12 565 -7 m 372 -14 q 174 42 250 -8 q 63 201 97 92 q 28 499 28 311 q 63 796 28 686 q 173 956 97 906 q 372 1010 249 1006 l 372 789 q 331 708 342 772 q 319 501 319 644 q 331 292 319 358 q 372 210 342 226 l 372 -14 z "},"Ớ":{"ha":814,"x_min":28,"x_max":918,"o":"m 442 -12 l 442 210 q 483 293 472 228 q 494 501 494 358 q 483 709 494 646 q 442 789 472 772 l 442 1011 l 639 1011 q 707 1096 707 1011 l 707 1196 l 918 1196 l 918 1100 q 878 890 918 951 q 736 836 839 829 q 774 693 763 776 q 786 499 786 610 q 751 201 786 311 q 641 42 717 92 q 442 -12 565 -7 m 372 -14 q 174 42 250 -8 q 63 201 97 92 q 28 499 28 311 q 63 796 28 686 q 173 956 97 906 q 372 1010 249 1006 l 372 789 q 331 708 342 772 q 319 501 319 644 q 331 292 319 358 q 372 210 342 226 l 372 -14 m 361 1238 l 619 1238 l 508 1071 l 299 1071 l 361 1238 z "},"Ợ":{"ha":814,"x_min":28,"x_max":918,"o":"m 442 -12 l 442 210 q 483 293 472 228 q 494 501 494 358 q 483 709 494 646 q 442 789 472 772 l 442 1011 l 639 1011 q 707 1096 707 1011 l 707 1196 l 918 1196 l 918 1100 q 878 890 918 951 q 736 836 839 829 q 774 693 763 776 q 786 499 786 610 q 751 201 786 311 q 641 42 717 92 q 442 -12 565 -7 m 372 -14 q 174 42 250 -8 q 63 201 97 92 q 28 499 28 311 q 63 796 28 686 q 173 956 97 906 q 372 1010 249 1006 l 372 789 q 331 708 342 772 q 319 501 319 644 q 331 292 319 358 q 372 210 342 226 l 372 -14 m 275 -64 l 539 -64 l 539 -253 l 275 -253 l 275 -64 z "},"Ờ":{"ha":814,"x_min":28,"x_max":918,"o":"m 442 -12 l 442 210 q 483 293 472 228 q 494 501 494 358 q 483 709 494 646 q 442 789 472 772 l 442 1011 l 639 1011 q 707 1096 707 1011 l 707 1196 l 918 1196 l 918 1100 q 878 890 918 951 q 736 836 839 829 q 774 693 763 776 q 786 499 786 610 q 751 201 786 311 q 641 42 717 92 q 442 -12 565 -7 m 372 -14 q 174 42 250 -8 q 63 201 97 92 q 28 499 28 311 q 63 796 28 686 q 173 956 97 906 q 372 1010 249 1006 l 372 789 q 331 708 342 772 q 319 501 319 644 q 331 292 319 358 q 372 210 342 226 l 372 -14 m 460 1238 l 522 1071 l 313 1071 l 201 1238 l 460 1238 z "},"Ở":{"ha":814,"x_min":28,"x_max":918,"o":"m 442 -12 l 442 210 q 483 293 472 228 q 494 501 494 358 q 483 709 494 646 q 442 789 472 772 l 442 1011 l 639 1011 q 707 1096 707 1011 l 707 1196 l 918 1196 l 918 1100 q 878 890 918 951 q 736 836 839 829 q 774 693 763 776 q 786 499 786 610 q 751 201 786 311 q 641 42 717 92 q 442 -12 565 -7 m 372 -14 q 174 42 250 -8 q 63 201 97 92 q 28 499 28 311 q 63 796 28 686 q 173 956 97 906 q 372 1010 249 1006 l 372 789 q 331 708 342 772 q 319 501 319 644 q 331 292 319 358 q 372 210 342 226 l 372 -14 m 400 1051 l 340 1124 q 383 1163 371 1139 q 385 1207 396 1188 q 338 1226 375 1226 q 297 1223 317 1226 q 265 1215 276 1219 l 275 1335 q 385 1353 326 1353 q 489 1327 450 1353 q 542 1262 528 1301 q 544 1180 556 1222 q 497 1102 533 1138 q 400 1051 461 1067 z "},"Ỡ":{"ha":814,"x_min":28,"x_max":918,"o":"m 442 -12 l 442 210 q 483 293 472 228 q 494 501 494 358 q 483 709 494 646 q 442 789 472 772 l 442 1011 l 639 1011 q 707 1096 707 1011 l 707 1196 l 918 1196 l 918 1100 q 878 890 918 951 q 736 836 839 829 q 774 693 763 776 q 786 499 786 610 q 751 201 786 311 q 641 42 717 92 q 442 -12 565 -7 m 372 -14 q 174 42 250 -8 q 63 201 97 92 q 28 499 28 311 q 63 796 28 686 q 173 956 97 906 q 372 1010 249 1006 l 372 789 q 331 708 342 772 q 319 501 319 644 q 331 292 319 358 q 372 210 342 226 l 372 -14 m 550 1263 q 555 1234 553 1249 q 557 1206 557 1219 q 524 1105 557 1146 q 425 1064 492 1064 q 372 1076 397 1064 q 327 1101 347 1089 q 293 1113 307 1113 q 268 1101 275 1113 q 261 1075 261 1090 l 163 1075 q 158 1104 160 1090 q 156 1132 156 1118 q 188 1233 156 1193 q 288 1274 221 1274 q 340 1262 315 1274 q 385 1238 365 1250 q 419 1225 406 1225 q 445 1236 439 1225 q 451 1263 451 1247 l 550 1263 z "},"Ő":{"ha":814,"x_min":28,"x_max":786,"o":"m 442 -12 l 442 210 q 483 293 472 228 q 494 501 494 358 q 483 709 494 646 q 442 789 472 772 l 442 1010 q 641 956 565 1006 q 751 796 717 906 q 786 499 786 686 q 751 201 786 311 q 641 42 717 92 q 442 -12 565 -7 m 372 210 l 372 -14 q 174 42 250 -8 q 63 201 97 92 q 28 499 28 311 q 63 796 28 686 q 173 956 97 906 q 372 1010 249 1006 l 372 789 q 331 708 342 772 q 319 501 319 644 q 331 292 319 358 q 372 210 342 226 m 221 1238 l 457 1238 l 368 1071 l 158 1071 l 221 1238 m 532 1238 l 768 1238 l 651 1071 l 442 1071 l 532 1238 z "},"Ȏ":{"ha":814,"x_min":28,"x_max":786,"o":"m 442 -12 l 442 210 q 483 293 472 228 q 494 501 494 358 q 483 709 494 646 q 442 789 472 772 l 442 1010 q 641 956 565 1006 q 751 796 717 906 q 786 499 786 686 q 751 201 786 311 q 641 42 717 92 q 442 -12 565 -7 m 372 210 l 372 -14 q 174 42 250 -8 q 63 201 97 92 q 28 499 28 311 q 63 796 28 686 q 173 956 97 906 q 372 1010 249 1006 l 372 789 q 331 708 342 772 q 319 501 319 644 q 331 292 319 358 q 372 210 342 226 m 407 1267 q 562 1220 514 1267 q 619 1072 610 1174 l 500 1072 q 407 1129 478 1129 q 314 1072 336 1129 l 194 1072 q 253 1220 206 1174 q 407 1267 301 1267 z "},"Ō":{"ha":814,"x_min":28,"x_max":786,"o":"m 442 -12 l 442 210 q 483 293 472 228 q 494 501 494 358 q 483 709 494 646 q 442 789 472 772 l 442 1010 q 641 956 565 1006 q 751 796 717 906 q 786 499 786 686 q 751 201 786 311 q 641 42 717 92 q 442 -12 565 -7 m 372 210 l 372 -14 q 174 42 250 -8 q 63 201 97 92 q 28 499 28 311 q 63 796 28 686 q 173 956 97 906 q 372 1010 249 1006 l 372 789 q 331 708 342 772 q 319 501 319 644 q 331 292 319 358 q 372 210 342 226 m 157 1246 l 568 1246 l 568 1093 l 157 1093 l 157 1246 z "},"Ǫ":{"ha":814,"x_min":28,"x_max":786,"o":"m 442 -12 l 442 210 q 483 293 472 228 q 494 501 494 358 q 483 709 494 646 q 442 789 472 772 l 442 1010 q 641 956 565 1006 q 751 796 717 906 q 786 499 786 686 q 751 201 786 311 q 641 42 717 92 q 442 -12 565 -7 m 372 210 l 372 -14 q 174 42 250 -8 q 63 201 97 92 q 28 499 28 311 q 63 796 28 686 q 173 956 97 906 q 372 1010 249 1006 l 372 789 q 331 708 342 772 q 319 501 319 644 q 331 292 319 358 q 372 210 342 226 m 397 -71 l 558 -71 q 632 -104 569 -115 l 632 -212 q 593 -219 613 -217 q 556 -222 574 -222 q 424 -176 463 -222 q 397 -71 385 -131 z "},"Ø":{"ha":814,"x_min":28,"x_max":786,"o":"m 42 -6 l 675 1063 l 776 1001 l 143 -67 l 42 -6 m 551 994 l 432 793 q 420 795 426 794 q 407 796 414 796 q 345 758 364 796 q 321 607 326 719 l 69 183 q 38 319 47 240 q 28 499 28 397 q 66 806 28 694 q 188 965 104 918 q 407 1011 271 1011 q 551 994 489 1011 m 493 394 l 746 814 q 786 499 786 701 q 748 191 786 303 q 626 33 710 79 q 407 -14 543 -14 q 257 3 322 -14 l 379 206 q 407 201 392 201 q 469 242 450 201 q 493 394 488 282 z "},"Ǿ":{"ha":814,"x_min":28,"x_max":786,"o":"m 42 -6 l 675 1063 l 776 1001 l 143 -67 l 42 -6 m 551 994 l 432 793 q 420 795 426 794 q 407 796 414 796 q 345 758 364 796 q 321 607 326 719 l 69 183 q 38 319 47 240 q 28 499 28 397 q 66 806 28 694 q 188 965 104 918 q 407 1011 271 1011 q 551 994 489 1011 m 493 394 l 746 814 q 786 499 786 701 q 748 191 786 303 q 626 33 710 79 q 407 -14 543 -14 q 257 3 322 -14 l 379 206 q 407 201 392 201 q 469 242 450 201 q 493 394 488 282 m 361 1238 l 619 1238 l 508 1071 l 299 1071 l 361 1238 z "},"Õ":{"ha":814,"x_min":28,"x_max":786,"o":"m 442 -12 l 442 210 q 483 293 472 228 q 494 501 494 358 q 483 709 494 646 q 442 789 472 772 l 442 1010 q 641 956 565 1006 q 751 796 717 906 q 786 499 786 686 q 751 201 786 311 q 641 42 717 92 q 442 -12 565 -7 m 372 210 l 372 -14 q 174 42 250 -8 q 63 201 97 92 q 28 499 28 311 q 63 796 28 686 q 173 956 97 906 q 372 1010 249 1006 l 372 789 q 331 708 342 772 q 319 501 319 644 q 331 292 319 358 q 372 210 342 226 m 550 1263 q 555 1234 553 1249 q 557 1206 557 1219 q 524 1105 557 1146 q 425 1064 492 1064 q 372 1076 397 1064 q 327 1101 347 1089 q 293 1113 307 1113 q 268 1101 275 1113 q 261 1075 261 1090 l 163 1075 q 158 1104 160 1090 q 156 1132 156 1118 q 188 1233 156 1193 q 288 1274 221 1274 q 340 1262 315 1274 q 385 1238 365 1250 q 419 1225 406 1225 q 445 1236 439 1225 q 451 1263 451 1247 l 550 1263 z "},"Ȭ":{"ha":814,"x_min":28,"x_max":786,"o":"m 442 -12 l 442 210 q 483 293 472 228 q 494 501 494 358 q 483 709 494 646 q 442 789 472 772 l 442 1010 q 641 956 565 1006 q 751 796 717 906 q 786 499 786 686 q 751 201 786 311 q 641 42 717 92 q 442 -12 565 -7 m 372 210 l 372 -14 q 174 42 250 -8 q 63 201 97 92 q 28 499 28 311 q 63 796 28 686 q 173 956 97 906 q 372 1010 249 1006 l 372 789 q 331 708 342 772 q 319 501 319 644 q 331 292 319 358 q 372 210 342 226 m 550 1263 q 555 1234 553 1249 q 557 1206 557 1219 q 524 1105 557 1146 q 425 1064 492 1064 q 372 1076 397 1064 q 327 1101 347 1089 q 293 1113 307 1113 q 268 1101 275 1113 q 261 1075 261 1090 l 163 1075 q 158 1104 160 1090 q 156 1132 156 1118 q 188 1233 156 1193 q 288 1274 221 1274 q 341 1262 317 1274 q 385 1238 365 1250 q 419 1225 406 1225 q 445 1236 439 1225 q 451 1263 451 1247 l 550 1263 m 157 1461 l 568 1461 l 568 1308 l 157 1308 l 157 1461 z "},"Œ":{"ha":1121,"x_min":28,"x_max":1100,"o":"m 407 -14 q 188 33 271 -14 q 66 191 104 79 q 28 499 28 303 q 66 806 28 694 q 188 965 104 918 q 407 1011 271 1011 q 470 1008 440 1011 q 526 1000 500 1006 l 1090 1000 l 1049 779 l 454 779 q 407 796 438 796 q 354 772 374 796 q 327 684 335 747 q 319 501 319 621 q 327 318 319 383 q 354 227 335 253 q 407 201 374 201 q 425 203 419 201 l 425 -14 l 407 -14 m 494 0 l 494 708 l 760 708 l 760 625 l 1032 625 l 990 403 l 760 403 l 760 222 l 1100 222 l 1058 0 l 494 0 z "},"P":{"ha":790,"x_min":0,"x_max":769,"o":"m 76 804 l 0 1000 l 400 1000 q 607 966 525 1000 q 729 851 689 932 q 769 632 769 771 q 682 359 769 444 q 415 271 594 274 l 415 482 q 463 534 447 497 q 479 635 479 571 q 467 742 479 706 q 427 791 456 778 q 347 804 399 804 l 76 804 m 76 735 l 347 735 l 347 0 l 76 0 l 76 735 z "},"Þ":{"ha":776,"x_min":63,"x_max":756,"o":"m 404 147 l 404 360 q 450 411 435 375 q 465 511 465 447 q 453 618 465 582 q 413 667 442 654 q 333 681 385 681 l 63 681 l 63 1001 l 332 1001 l 332 876 l 388 876 q 594 842 513 876 q 715 728 675 808 q 756 510 756 649 q 669 236 756 322 q 404 147 582 150 m 63 0 l 63 611 l 335 611 l 335 0 l 63 0 z "},"Q":{"ha":814,"x_min":28,"x_max":786,"o":"m 786 536 l 494 536 q 486 697 494 640 q 459 774 478 753 q 407 796 440 796 q 356 774 375 796 q 328 697 336 753 q 319 536 321 640 l 28 536 q 71 820 32 717 q 192 967 110 924 q 407 1011 275 1011 q 622 967 539 1011 q 744 820 704 924 q 786 536 783 717 m 494 467 l 786 467 q 755 213 783 311 q 667 61 726 114 q 725 8 699 39 q 768 -62 751 -22 l 511 -210 l 400 -14 q 188 32 269 -12 q 69 181 107 76 q 28 467 31 286 l 319 467 q 329 305 321 363 q 356 224 338 247 q 407 201 375 201 q 458 224 440 201 q 485 305 476 247 q 494 467 493 363 z "},"R":{"ha":810,"x_min":0,"x_max":803,"o":"m 417 506 l 417 524 q 472 656 472 550 q 461 751 472 719 q 423 793 450 782 q 347 804 396 804 l 76 804 l 0 1000 l 394 1000 q 599 969 517 1000 q 722 865 681 938 q 763 665 763 792 q 699 442 763 519 l 803 0 l 525 0 l 417 506 m 347 0 l 76 0 l 76 735 l 347 735 l 347 0 z "},"Ŕ":{"ha":810,"x_min":0,"x_max":803,"o":"m 417 506 l 417 524 q 472 656 472 550 q 461 751 472 719 q 423 793 450 782 q 347 804 396 804 l 76 804 l 0 1000 l 394 1000 q 599 969 517 1000 q 722 865 681 938 q 763 665 763 792 q 699 442 763 519 l 803 0 l 525 0 l 417 506 m 347 0 l 76 0 l 76 735 l 347 735 l 347 0 m 347 1238 l 606 1238 l 494 1071 l 285 1071 l 347 1238 z "},"Ř":{"ha":810,"x_min":0,"x_max":803,"o":"m 417 506 l 417 524 q 472 656 472 550 q 461 751 472 719 q 423 793 450 782 q 347 804 396 804 l 76 804 l 0 1000 l 394 1000 q 599 969 517 1000 q 722 865 681 938 q 763 665 763 792 q 699 442 763 519 l 803 0 l 525 0 l 417 506 m 347 0 l 76 0 l 76 735 l 347 735 l 347 0 m 324 1071 l 463 1238 l 628 1238 l 478 1071 l 324 1071 m 278 1106 l 158 1238 l 331 1238 l 364 1206 l 278 1106 z "},"Ŗ":{"ha":810,"x_min":0,"x_max":803,"o":"m 417 506 l 417 524 q 472 656 472 550 q 461 751 472 719 q 423 793 450 782 q 347 804 396 804 l 76 804 l 0 1000 l 394 1000 q 599 969 517 1000 q 722 865 681 938 q 763 665 763 792 q 699 442 763 519 l 803 0 l 525 0 l 417 506 m 347 0 l 76 0 l 76 735 l 347 735 l 347 0 m 271 -208 l 310 -51 l 547 -51 l 463 -208 l 271 -208 z "},"Ȑ":{"ha":810,"x_min":0,"x_max":803,"o":"m 417 506 l 417 524 q 472 656 472 550 q 461 751 472 719 q 423 793 450 782 q 347 804 396 804 l 76 804 l 0 1000 l 394 1000 q 599 969 517 1000 q 722 865 681 938 q 763 665 763 792 q 699 442 763 519 l 803 0 l 525 0 l 417 506 m 347 0 l 76 0 l 76 735 l 347 735 l 347 0 m 579 1238 l 642 1071 l 432 1071 l 343 1238 l 579 1238 m 268 1238 l 358 1071 l 149 1071 l 32 1238 l 268 1238 z "},"Ȓ":{"ha":810,"x_min":0,"x_max":803,"o":"m 417 506 l 417 524 q 472 656 472 550 q 461 751 472 719 q 423 793 450 782 q 347 804 396 804 l 76 804 l 0 1000 l 394 1000 q 599 969 517 1000 q 722 865 681 938 q 763 665 763 792 q 699 442 763 519 l 803 0 l 525 0 l 417 506 m 347 0 l 76 0 l 76 735 l 347 735 l 347 0 m 393 1267 q 548 1220 500 1267 q 606 1072 596 1174 l 486 1072 q 393 1129 464 1129 q 300 1072 322 1129 l 181 1072 q 240 1220 192 1174 q 393 1267 288 1267 z "},"S":{"ha":726,"x_min":35,"x_max":692,"o":"m 386 642 l 272 399 l 214 425 q 88 525 132 463 q 43 707 43 588 q 123 935 43 860 q 388 1013 203 1011 q 526 1006 464 1013 q 626 991 589 999 q 664 983 664 983 l 636 760 q 602 764 636 760 q 518 772 568 768 q 421 775 468 775 q 345 760 371 775 q 319 706 319 746 q 338 669 319 683 q 386 642 356 656 m 336 368 l 451 614 l 511 588 q 649 484 606 546 q 692 308 692 422 q 611 71 692 154 q 346 -14 531 -12 q 175 -2 254 -14 q 35 25 96 10 l 63 249 q 97 243 63 249 q 188 232 131 238 q 313 226 244 226 q 392 242 365 226 q 418 292 418 257 q 406 329 418 315 q 361 357 393 343 l 336 368 z "},"Ś":{"ha":726,"x_min":35,"x_max":692,"o":"m 386 642 l 272 399 l 214 425 q 88 525 132 463 q 43 707 43 588 q 123 935 43 860 q 388 1013 203 1011 q 526 1006 464 1013 q 626 991 589 999 q 664 983 664 983 l 636 760 q 602 764 636 760 q 518 772 568 768 q 421 775 468 775 q 345 760 371 775 q 319 706 319 746 q 338 669 319 683 q 386 642 356 656 m 336 368 l 451 614 l 511 588 q 649 484 606 546 q 692 308 692 422 q 611 71 692 154 q 346 -14 531 -12 q 175 -2 254 -14 q 35 25 96 10 l 63 249 q 97 243 63 249 q 188 232 131 238 q 313 226 244 226 q 392 242 365 226 q 418 292 418 257 q 406 329 418 315 q 361 357 393 343 l 336 368 m 363 1238 l 621 1238 l 510 1071 l 300 1071 l 363 1238 z "},"Š":{"ha":726,"x_min":35,"x_max":692,"o":"m 386 642 l 272 399 l 214 425 q 88 525 132 463 q 43 707 43 588 q 123 935 43 860 q 388 1013 203 1011 q 526 1006 464 1013 q 626 991 589 999 q 664 983 664 983 l 636 760 q 602 764 636 760 q 518 772 568 768 q 421 775 468 775 q 345 760 371 775 q 319 706 319 746 q 338 669 319 683 q 386 642 356 656 m 336 368 l 451 614 l 511 588 q 649 484 606 546 q 692 308 692 422 q 611 71 692 154 q 346 -14 531 -12 q 175 -2 254 -14 q 35 25 96 10 l 63 249 q 97 243 63 249 q 188 232 131 238 q 313 226 244 226 q 392 242 365 226 q 418 292 418 257 q 406 329 418 315 q 361 357 393 343 l 336 368 m 339 1071 l 478 1238 l 643 1238 l 493 1071 l 339 1071 m 293 1106 l 174 1238 l 346 1238 l 379 1206 l 293 1106 z "},"Ş":{"ha":726,"x_min":35,"x_max":692,"o":"m 386 642 l 272 399 l 214 425 q 88 525 132 463 q 43 707 43 588 q 123 935 43 860 q 388 1013 203 1011 q 526 1006 464 1013 q 626 991 589 999 q 664 983 664 983 l 636 760 q 602 764 636 760 q 518 772 568 768 q 421 775 468 775 q 345 760 371 775 q 319 706 319 746 q 338 669 319 683 q 386 642 356 656 m 336 368 l 451 614 l 511 588 q 649 484 606 546 q 692 308 692 422 q 611 71 692 154 q 346 -14 531 -12 q 175 -2 254 -14 q 35 25 96 10 l 63 249 q 97 243 63 249 q 188 232 131 238 q 313 226 244 226 q 392 242 365 226 q 418 292 418 257 q 406 329 418 315 q 361 357 393 343 l 336 368 m 279 -69 l 436 -69 l 436 -81 q 387 -191 436 -160 q 271 -222 338 -222 q 222 -221 249 -222 q 164 -214 194 -219 l 164 -100 q 193 -104 178 -101 q 222 -107 208 -107 q 279 -69 267 -107 z "},"Ŝ":{"ha":726,"x_min":35,"x_max":692,"o":"m 386 642 l 272 399 l 214 425 q 88 525 132 463 q 43 707 43 588 q 123 935 43 860 q 388 1013 203 1011 q 526 1006 464 1013 q 626 991 589 999 q 664 983 664 983 l 636 760 q 602 764 636 760 q 518 772 568 768 q 421 775 468 775 q 345 760 371 775 q 319 706 319 746 q 338 669 319 683 q 386 642 356 656 m 336 368 l 451 614 l 511 588 q 649 484 606 546 q 692 308 692 422 q 611 71 692 154 q 346 -14 531 -12 q 175 -2 254 -14 q 35 25 96 10 l 63 249 q 97 243 63 249 q 188 232 131 238 q 313 226 244 226 q 392 242 365 226 q 418 292 418 257 q 406 329 418 315 q 361 357 393 343 l 336 368 m 339 1238 l 493 1238 l 643 1071 l 478 1071 l 339 1238 m 293 1203 l 379 1103 l 346 1071 l 174 1071 l 293 1203 z "},"Ș":{"ha":726,"x_min":35,"x_max":692,"o":"m 386 642 l 272 399 l 214 425 q 88 525 132 463 q 43 707 43 588 q 123 935 43 860 q 388 1013 203 1011 q 526 1006 464 1013 q 626 991 589 999 q 664 983 664 983 l 636 760 q 602 764 636 760 q 518 772 568 768 q 421 775 468 775 q 345 760 371 775 q 319 706 319 746 q 338 669 319 683 q 386 642 356 656 m 336 368 l 451 614 l 511 588 q 649 484 606 546 q 692 308 692 422 q 611 71 692 154 q 346 -14 531 -12 q 175 -2 254 -14 q 35 25 96 10 l 63 249 q 97 243 63 249 q 188 232 131 238 q 313 226 244 226 q 392 242 365 226 q 418 292 418 257 q 406 329 418 315 q 361 357 393 343 l 336 368 m 192 -208 l 231 -51 l 468 -51 l 383 -208 l 192 -208 z "},"ẞ":{"ha":885,"x_min":56,"x_max":864,"o":"m 810 751 q 747 783 788 767 q 651 813 706 800 q 535 825 597 825 q 380 783 433 825 q 326 660 326 742 l 326 0 l 56 0 l 56 693 q 115 871 56 800 q 276 976 175 942 q 503 1011 378 1011 q 810 958 660 1011 l 810 751 m 864 269 q 814 109 864 172 q 681 16 764 46 q 500 -14 599 -14 q 386 -3 440 -14 l 403 210 q 453 206 431 206 q 547 228 510 206 q 583 301 583 250 q 551 374 583 350 q 444 397 519 397 l 406 397 l 406 483 l 529 750 q 774 694 665 747 l 683 507 q 824 411 783 475 q 864 269 864 347 z "},"T":{"ha":721,"x_min":14,"x_max":714,"o":"m 14 778 l 14 1000 l 714 1000 l 672 778 l 14 778 m 217 708 l 489 708 l 489 0 l 217 0 l 217 708 z "},"Ŧ":{"ha":721,"x_min":14,"x_max":714,"o":"m 14 778 l 14 1000 l 714 1000 l 672 778 l 489 778 l 489 661 l 217 661 l 217 778 l 14 778 m 68 460 l 68 592 l 636 592 l 636 460 l 68 460 m 217 392 l 489 392 l 489 0 l 217 0 l 217 392 z "},"Ť":{"ha":721,"x_min":14,"x_max":714,"o":"m 14 778 l 14 1000 l 714 1000 l 672 778 l 14 778 m 217 708 l 489 708 l 489 0 l 217 0 l 217 708 m 292 1071 l 431 1238 l 596 1238 l 446 1071 l 292 1071 m 246 1106 l 126 1238 l 299 1238 l 332 1206 l 246 1106 z "},"Ţ":{"ha":721,"x_min":14,"x_max":714,"o":"m 14 778 l 14 1000 l 714 1000 l 672 778 l 14 778 m 217 708 l 489 708 l 489 0 l 217 0 l 217 708 m 282 -69 l 439 -69 l 439 -81 q 390 -191 439 -160 q 274 -222 340 -222 q 224 -221 251 -222 q 167 -214 197 -219 l 167 -100 q 196 -104 181 -101 q 225 -107 211 -107 q 282 -69 269 -107 z "},"Ț":{"ha":721,"x_min":14,"x_max":714,"o":"m 14 778 l 14 1000 l 714 1000 l 672 778 l 14 778 m 217 708 l 489 708 l 489 0 l 217 0 l 217 708 m 194 -208 l 233 -51 l 471 -51 l 386 -208 l 194 -208 z "},"U":{"ha":792,"x_min":56,"x_max":736,"o":"m 432 -12 l 432 213 q 465 340 465 236 l 465 1000 l 736 1000 l 736 353 q 661 83 736 171 q 432 -12 586 -4 m 363 210 l 363 -12 q 131 82 207 -6 q 56 353 56 169 l 56 1000 l 326 1000 l 326 340 q 363 210 326 233 z "},"Ú":{"ha":792,"x_min":56,"x_max":736,"o":"m 432 -12 l 432 213 q 465 340 465 236 l 465 1000 l 736 1000 l 736 353 q 661 83 736 171 q 432 -12 586 -4 m 363 210 l 363 -12 q 131 82 207 -6 q 56 353 56 169 l 56 1000 l 326 1000 l 326 340 q 363 210 326 233 m 350 1238 l 608 1238 l 497 1071 l 288 1071 l 350 1238 z "},"Ŭ":{"ha":792,"x_min":56,"x_max":736,"o":"m 432 -12 l 432 213 q 465 340 465 236 l 465 1000 l 736 1000 l 736 353 q 661 83 736 171 q 432 -12 586 -4 m 363 210 l 363 -12 q 131 82 207 -6 q 56 353 56 169 l 56 1000 l 326 1000 l 326 340 q 363 210 326 233 m 396 1071 q 242 1117 290 1071 q 183 1265 194 1164 l 303 1265 q 396 1208 325 1208 q 489 1265 467 1208 l 608 1265 q 551 1117 599 1164 q 396 1071 503 1071 z "},"Û":{"ha":792,"x_min":56,"x_max":736,"o":"m 432 -12 l 432 213 q 465 340 465 236 l 465 1000 l 736 1000 l 736 353 q 661 83 736 171 q 432 -12 586 -4 m 363 210 l 363 -12 q 131 82 207 -6 q 56 353 56 169 l 56 1000 l 326 1000 l 326 340 q 363 210 326 233 m 326 1238 l 481 1238 l 631 1071 l 465 1071 l 326 1238 m 281 1203 l 367 1103 l 333 1071 l 161 1071 l 281 1203 z "},"Ȕ":{"ha":792,"x_min":35,"x_max":736,"o":"m 432 -12 l 432 213 q 465 340 465 236 l 465 1000 l 736 1000 l 736 353 q 661 83 736 171 q 432 -12 586 -4 m 363 210 l 363 -12 q 131 82 207 -6 q 56 353 56 169 l 56 1000 l 326 1000 l 326 340 q 363 210 326 233 m 582 1238 l 644 1071 l 435 1071 l 346 1238 l 582 1238 m 271 1238 l 361 1071 l 151 1071 l 35 1238 l 271 1238 z "},"Ü":{"ha":792,"x_min":56,"x_max":736,"o":"m 432 -12 l 432 213 q 465 340 465 236 l 465 1000 l 736 1000 l 736 353 q 661 83 736 171 q 432 -12 586 -4 m 363 210 l 363 -12 q 131 82 207 -6 q 56 353 56 169 l 56 1000 l 326 1000 l 326 340 q 363 210 326 233 m 143 1268 l 365 1268 l 365 1079 l 143 1079 l 143 1268 m 426 1268 l 649 1268 l 649 1079 l 426 1079 l 426 1268 z "},"Ụ":{"ha":792,"x_min":56,"x_max":736,"o":"m 432 -12 l 432 213 q 465 340 465 236 l 465 1000 l 736 1000 l 736 353 q 661 83 736 171 q 432 -12 586 -4 m 363 210 l 363 -12 q 131 82 207 -6 q 56 353 56 169 l 56 1000 l 326 1000 l 326 340 q 363 210 326 233 m 264 -64 l 528 -64 l 528 -253 l 264 -253 l 264 -64 z "},"Ù":{"ha":792,"x_min":56,"x_max":736,"o":"m 432 -12 l 432 213 q 465 340 465 236 l 465 1000 l 736 1000 l 736 353 q 661 83 736 171 q 432 -12 586 -4 m 363 210 l 363 -12 q 131 82 207 -6 q 56 353 56 169 l 56 1000 l 326 1000 l 326 340 q 363 210 326 233 m 449 1238 l 511 1071 l 301 1071 l 190 1238 l 449 1238 z "},"Ủ":{"ha":792,"x_min":56,"x_max":736,"o":"m 432 -12 l 432 213 q 465 340 465 236 l 465 1000 l 736 1000 l 736 353 q 661 83 736 171 q 432 -12 586 -4 m 363 210 l 363 -12 q 131 82 207 -6 q 56 353 56 169 l 56 1000 l 326 1000 l 326 340 q 363 210 326 233 m 389 1051 l 329 1124 q 372 1163 360 1139 q 374 1207 385 1188 q 326 1226 364 1226 q 285 1223 306 1226 q 254 1215 265 1219 l 264 1335 q 374 1353 315 1353 q 478 1327 439 1353 q 531 1262 517 1301 q 533 1180 544 1222 q 486 1102 522 1138 q 389 1051 450 1067 z "},"Ư":{"ha":942,"x_min":56,"x_max":969,"o":"m 432 -12 l 432 213 q 465 340 465 236 l 465 1000 l 736 1000 l 736 353 q 661 83 736 171 q 432 -12 586 -4 m 363 210 l 363 -12 q 131 82 207 -6 q 56 353 56 169 l 56 1000 l 326 1000 l 326 340 q 363 210 326 233 m 669 807 l 586 1000 l 690 1000 q 758 1085 758 1000 l 758 1185 l 969 1185 l 969 1089 q 941 901 969 965 q 847 819 913 838 q 669 807 781 800 z "},"Ứ":{"ha":942,"x_min":56,"x_max":969,"o":"m 432 -12 l 432 213 q 465 340 465 236 l 465 1000 l 736 1000 l 736 353 q 661 83 736 171 q 432 -12 586 -4 m 363 210 l 363 -12 q 131 82 207 -6 q 56 353 56 169 l 56 1000 l 326 1000 l 326 340 q 363 210 326 233 m 669 807 l 586 1000 l 690 1000 q 758 1085 758 1000 l 758 1185 l 969 1185 l 969 1089 q 941 901 969 965 q 847 819 913 838 q 669 807 781 800 m 350 1238 l 608 1238 l 497 1071 l 288 1071 l 350 1238 z "},"Ự":{"ha":942,"x_min":56,"x_max":969,"o":"m 432 -12 l 432 213 q 465 340 465 236 l 465 1000 l 736 1000 l 736 353 q 661 83 736 171 q 432 -12 586 -4 m 363 210 l 363 -12 q 131 82 207 -6 q 56 353 56 169 l 56 1000 l 326 1000 l 326 340 q 363 210 326 233 m 669 807 l 586 1000 l 690 1000 q 758 1085 758 1000 l 758 1185 l 969 1185 l 969 1089 q 941 901 969 965 q 847 819 913 838 q 669 807 781 800 m 264 -64 l 528 -64 l 528 -253 l 264 -253 l 264 -64 z "},"Ừ":{"ha":942,"x_min":56,"x_max":969,"o":"m 432 -12 l 432 213 q 465 340 465 236 l 465 1000 l 736 1000 l 736 353 q 661 83 736 171 q 432 -12 586 -4 m 363 210 l 363 -12 q 131 82 207 -6 q 56 353 56 169 l 56 1000 l 326 1000 l 326 340 q 363 210 326 233 m 669 807 l 586 1000 l 690 1000 q 758 1085 758 1000 l 758 1185 l 969 1185 l 969 1089 q 941 901 969 965 q 847 819 913 838 q 669 807 781 800 m 449 1238 l 511 1071 l 301 1071 l 190 1238 l 449 1238 z "},"Ử":{"ha":942,"x_min":56,"x_max":969,"o":"m 432 -12 l 432 213 q 465 340 465 236 l 465 1000 l 736 1000 l 736 353 q 661 83 736 171 q 432 -12 586 -4 m 363 210 l 363 -12 q 131 82 207 -6 q 56 353 56 169 l 56 1000 l 326 1000 l 326 340 q 363 210 326 233 m 669 807 l 586 1000 l 690 1000 q 758 1085 758 1000 l 758 1185 l 969 1185 l 969 1089 q 941 901 969 965 q 847 819 913 838 q 669 807 781 800 m 389 1051 l 329 1124 q 372 1163 360 1139 q 374 1207 385 1188 q 326 1226 364 1226 q 285 1223 306 1226 q 254 1215 265 1219 l 264 1335 q 374 1353 315 1353 q 478 1327 439 1353 q 531 1262 517 1301 q 533 1180 544 1222 q 486 1102 522 1138 q 389 1051 450 1067 z "},"Ữ":{"ha":942,"x_min":56,"x_max":969,"o":"m 432 -12 l 432 213 q 465 340 465 236 l 465 1000 l 736 1000 l 736 353 q 661 83 736 171 q 432 -12 586 -4 m 363 210 l 363 -12 q 131 82 207 -6 q 56 353 56 169 l 56 1000 l 326 1000 l 326 340 q 363 210 326 233 m 669 807 l 586 1000 l 690 1000 q 758 1085 758 1000 l 758 1185 l 969 1185 l 969 1089 q 941 901 969 965 q 847 819 913 838 q 669 807 781 800 m 539 1263 q 544 1234 542 1249 q 546 1206 546 1219 q 513 1105 546 1146 q 414 1064 481 1064 q 361 1076 386 1064 q 316 1101 336 1089 q 282 1113 296 1113 q 257 1101 264 1113 q 250 1075 250 1090 l 151 1075 q 147 1104 149 1090 q 144 1132 144 1118 q 177 1233 144 1193 q 276 1274 210 1274 q 329 1262 304 1274 q 374 1238 354 1250 q 408 1225 394 1225 q 434 1236 428 1225 q 440 1263 440 1247 l 539 1263 z "},"Ű":{"ha":792,"x_min":56,"x_max":757,"o":"m 432 -12 l 432 213 q 465 340 465 236 l 465 1000 l 736 1000 l 736 353 q 661 83 736 171 q 432 -12 586 -4 m 363 210 l 363 -12 q 131 82 207 -6 q 56 353 56 169 l 56 1000 l 326 1000 l 326 340 q 363 210 326 233 m 210 1238 l 446 1238 l 357 1071 l 147 1071 l 210 1238 m 521 1238 l 757 1238 l 640 1071 l 431 1071 l 521 1238 z "},"Ȗ":{"ha":792,"x_min":56,"x_max":736,"o":"m 432 -12 l 432 213 q 465 340 465 236 l 465 1000 l 736 1000 l 736 353 q 661 83 736 171 q 432 -12 586 -4 m 363 210 l 363 -12 q 131 82 207 -6 q 56 353 56 169 l 56 1000 l 326 1000 l 326 340 q 363 210 326 233 m 396 1267 q 551 1220 503 1267 q 608 1072 599 1174 l 489 1072 q 396 1129 467 1129 q 303 1072 325 1129 l 183 1072 q 242 1220 194 1174 q 396 1267 290 1267 z "},"Ū":{"ha":792,"x_min":56,"x_max":736,"o":"m 432 -12 l 432 213 q 465 340 465 236 l 465 1000 l 736 1000 l 736 353 q 661 83 736 171 q 432 -12 586 -4 m 363 210 l 363 -12 q 131 82 207 -6 q 56 353 56 169 l 56 1000 l 326 1000 l 326 340 q 363 210 326 233 m 146 1246 l 557 1246 l 557 1093 l 146 1093 l 146 1246 z "},"Ų":{"ha":792,"x_min":56,"x_max":736,"o":"m 432 -12 l 432 213 q 465 340 465 236 l 465 1000 l 736 1000 l 736 353 q 661 83 736 171 q 432 -12 586 -4 m 363 210 l 363 -12 q 131 82 207 -6 q 56 353 56 169 l 56 1000 l 326 1000 l 326 340 q 363 210 326 233 m 388 -71 l 549 -71 q 622 -104 560 -115 l 622 -212 q 583 -219 603 -217 q 546 -222 564 -222 q 414 -176 453 -222 q 388 -71 375 -131 z "},"Ů":{"ha":792,"x_min":56,"x_max":736,"o":"m 432 -12 l 432 213 q 465 340 465 236 l 465 1000 l 736 1000 l 736 353 q 661 83 736 171 q 432 -12 586 -4 m 363 210 l 363 -12 q 131 82 207 -6 q 56 353 56 169 l 56 1000 l 326 1000 l 326 340 q 363 210 326 233 m 432 1200 l 432 1292 q 533 1260 501 1288 q 565 1176 565 1233 q 432 1068 565 1076 l 432 1158 q 434 1167 433 1163 q 435 1178 435 1172 q 432 1200 435 1189 m 363 1292 l 363 1203 q 358 1178 358 1194 q 363 1156 358 1164 l 363 1068 q 259 1099 292 1072 q 226 1176 226 1125 q 259 1260 226 1233 q 363 1292 292 1288 z "},"Ũ":{"ha":792,"x_min":56,"x_max":736,"o":"m 432 -12 l 432 213 q 465 340 465 236 l 465 1000 l 736 1000 l 736 353 q 661 83 736 171 q 432 -12 586 -4 m 363 210 l 363 -12 q 131 82 207 -6 q 56 353 56 169 l 56 1000 l 326 1000 l 326 340 q 363 210 326 233 m 539 1263 q 544 1234 542 1249 q 546 1206 546 1219 q 513 1105 546 1146 q 414 1064 481 1064 q 361 1076 386 1064 q 316 1101 336 1089 q 282 1113 296 1113 q 257 1101 264 1113 q 250 1075 250 1090 l 151 1075 q 147 1104 149 1090 q 144 1132 144 1118 q 177 1233 144 1193 q 276 1274 210 1274 q 329 1262 304 1274 q 374 1238 354 1250 q 408 1225 394 1225 q 434 1236 428 1225 q 440 1263 440 1247 l 539 1263 z "},"V":{"ha":792,"x_min":7,"x_max":785,"o":"m 510 0 l 235 0 l 7 1000 l 296 1000 l 510 0 m 569 51 l 451 603 l 511 1000 l 785 1000 l 569 51 z "},"W":{"ha":1175,"x_min":28,"x_max":1147,"o":"m 339 715 l 176 63 l 28 1000 l 317 1000 l 339 715 m 1000 67 l 838 717 l 858 1000 l 1147 1000 l 1000 67 m 947 0 l 724 0 l 590 589 l 451 0 l 232 0 l 450 864 l 728 864 l 947 0 z "},"Ẃ":{"ha":1175,"x_min":28,"x_max":1147,"o":"m 339 715 l 176 63 l 28 1000 l 317 1000 l 339 715 m 1000 67 l 838 717 l 858 1000 l 1147 1000 l 1000 67 m 947 0 l 724 0 l 590 589 l 451 0 l 232 0 l 450 864 l 728 864 l 947 0 m 542 1238 l 800 1238 l 689 1071 l 479 1071 l 542 1238 z "},"Ŵ":{"ha":1175,"x_min":28,"x_max":1147,"o":"m 339 715 l 176 63 l 28 1000 l 317 1000 l 339 715 m 1000 67 l 838 717 l 858 1000 l 1147 1000 l 1000 67 m 947 0 l 724 0 l 590 589 l 451 0 l 232 0 l 450 864 l 728 864 l 947 0 m 518 1238 l 672 1238 l 822 1071 l 657 1071 l 518 1238 m 472 1203 l 558 1103 l 525 1071 l 353 1071 l 472 1203 z "},"Ẅ":{"ha":1175,"x_min":28,"x_max":1147,"o":"m 339 715 l 176 63 l 28 1000 l 317 1000 l 339 715 m 1000 67 l 838 717 l 858 1000 l 1147 1000 l 1000 67 m 947 0 l 724 0 l 590 589 l 451 0 l 232 0 l 450 864 l 728 864 l 947 0 m 335 1268 l 557 1268 l 557 1079 l 335 1079 l 335 1268 m 618 1268 l 840 1268 l 840 1079 l 618 1079 l 618 1268 z "},"Ẁ":{"ha":1175,"x_min":28,"x_max":1147,"o":"m 339 715 l 176 63 l 28 1000 l 317 1000 l 339 715 m 1000 67 l 838 717 l 858 1000 l 1147 1000 l 1000 67 m 947 0 l 724 0 l 590 589 l 451 0 l 232 0 l 450 864 l 728 864 l 947 0 m 640 1238 l 703 1071 l 493 1071 l 382 1238 l 640 1238 z "},"X":{"ha":782,"x_min":13,"x_max":771,"o":"m 594 504 l 449 815 l 507 1000 l 771 1000 l 594 504 m 19 1000 l 289 1000 l 757 0 l 493 0 l 19 1000 m 197 467 l 340 169 l 275 0 l 13 0 l 197 467 z "},"Y":{"ha":792,"x_min":7,"x_max":785,"o":"m 531 293 l 531 0 l 260 0 l 260 306 l 7 1000 l 299 1000 l 531 293 m 567 401 l 444 774 l 507 1000 l 785 1000 l 567 401 z "},"Ý":{"ha":792,"x_min":7,"x_max":785,"o":"m 531 293 l 531 0 l 260 0 l 260 306 l 7 1000 l 299 1000 l 531 293 m 567 401 l 444 774 l 507 1000 l 785 1000 l 567 401 m 350 1238 l 608 1238 l 497 1071 l 288 1071 l 350 1238 z "},"Ŷ":{"ha":792,"x_min":7,"x_max":785,"o":"m 531 293 l 531 0 l 260 0 l 260 306 l 7 1000 l 299 1000 l 531 293 m 567 401 l 444 774 l 507 1000 l 785 1000 l 567 401 m 326 1238 l 481 1238 l 631 1071 l 465 1071 l 326 1238 m 281 1203 l 367 1103 l 333 1071 l 161 1071 l 281 1203 z "},"Ÿ":{"ha":792,"x_min":7,"x_max":785,"o":"m 531 293 l 531 0 l 260 0 l 260 306 l 7 1000 l 299 1000 l 531 293 m 567 401 l 444 774 l 507 1000 l 785 1000 l 567 401 m 143 1268 l 365 1268 l 365 1079 l 143 1079 l 143 1268 m 426 1268 l 649 1268 l 649 1079 l 426 1079 l 426 1268 z "},"Ỵ":{"ha":792,"x_min":7,"x_max":785,"o":"m 531 293 l 531 0 l 260 0 l 260 306 l 7 1000 l 299 1000 l 531 293 m 567 401 l 444 774 l 507 1000 l 785 1000 l 567 401 m 263 -64 l 526 -64 l 526 -253 l 263 -253 l 263 -64 z "},"Ỳ":{"ha":792,"x_min":7,"x_max":785,"o":"m 531 293 l 531 0 l 260 0 l 260 306 l 7 1000 l 299 1000 l 531 293 m 567 401 l 444 774 l 507 1000 l 785 1000 l 567 401 m 449 1238 l 511 1071 l 301 1071 l 190 1238 l 449 1238 z "},"Ỷ":{"ha":792,"x_min":7,"x_max":785,"o":"m 531 293 l 531 0 l 260 0 l 260 306 l 7 1000 l 299 1000 l 531 293 m 567 401 l 444 774 l 507 1000 l 785 1000 l 567 401 m 389 1051 l 329 1124 q 372 1163 360 1139 q 374 1207 385 1188 q 326 1226 364 1226 q 285 1223 306 1226 q 254 1215 265 1219 l 264 1335 q 374 1353 315 1353 q 478 1327 439 1353 q 531 1262 517 1301 q 533 1180 544 1222 q 486 1102 522 1138 q 389 1051 450 1067 z "},"Ȳ":{"ha":792,"x_min":7,"x_max":785,"o":"m 531 293 l 531 0 l 260 0 l 260 306 l 7 1000 l 299 1000 l 531 293 m 567 401 l 444 774 l 507 1000 l 785 1000 l 567 401 m 146 1246 l 557 1246 l 557 1093 l 146 1093 l 146 1246 z "},"Ỹ":{"ha":792,"x_min":7,"x_max":785,"o":"m 531 293 l 531 0 l 260 0 l 260 306 l 7 1000 l 299 1000 l 531 293 m 567 401 l 444 774 l 507 1000 l 785 1000 l 567 401 m 539 1263 q 544 1234 542 1249 q 546 1206 546 1219 q 513 1105 546 1146 q 414 1064 481 1064 q 361 1076 386 1064 q 316 1101 336 1089 q 282 1113 296 1113 q 257 1101 264 1113 q 250 1075 250 1090 l 151 1075 q 147 1104 149 1090 q 144 1132 144 1118 q 177 1233 144 1193 q 276 1274 210 1274 q 329 1262 304 1274 q 374 1238 354 1250 q 408 1225 394 1225 q 434 1236 428 1225 q 440 1263 440 1247 l 539 1263 z "},"Z":{"ha":703,"x_min":21,"x_max":682,"o":"m 381 1000 l 263 778 l 35 778 l 35 1000 l 381 1000 m 238 0 l 21 0 l 21 168 l 457 1000 l 675 1000 l 675 832 l 238 0 m 315 0 l 433 222 l 682 222 l 682 0 l 315 0 z "},"Ź":{"ha":703,"x_min":21,"x_max":682,"o":"m 381 1000 l 263 778 l 35 778 l 35 1000 l 381 1000 m 238 0 l 21 0 l 21 168 l 457 1000 l 675 1000 l 675 832 l 238 0 m 315 0 l 433 222 l 682 222 l 682 0 l 315 0 m 306 1238 l 564 1238 l 453 1071 l 243 1071 l 306 1238 z "},"Ž":{"ha":703,"x_min":21,"x_max":682,"o":"m 381 1000 l 263 778 l 35 778 l 35 1000 l 381 1000 m 238 0 l 21 0 l 21 168 l 457 1000 l 675 1000 l 675 832 l 238 0 m 315 0 l 433 222 l 682 222 l 682 0 l 315 0 m 282 1071 l 421 1238 l 586 1238 l 436 1071 l 282 1071 m 236 1106 l 117 1238 l 289 1238 l 322 1206 l 236 1106 z "},"Ż":{"ha":703,"x_min":21,"x_max":682,"o":"m 381 1000 l 263 778 l 35 778 l 35 1000 l 381 1000 m 238 0 l 21 0 l 21 168 l 457 1000 l 675 1000 l 675 832 l 238 0 m 315 0 l 433 222 l 682 222 l 682 0 l 315 0 m 219 1268 l 483 1268 l 483 1079 l 219 1079 l 219 1268 z "},"a":{"ha":688,"x_min":28,"x_max":639,"o":"m 389 546 q 361 601 389 586 q 290 615 333 615 q 189 606 238 615 q 92 578 140 596 l 92 772 q 222 798 154 786 q 357 810 289 810 q 497 791 433 810 q 600 724 561 772 q 639 585 639 675 l 639 0 l 422 0 l 389 119 l 389 546 m 319 172 l 319 1 q 242 -14 283 -14 q 138 15 186 -14 q 58 97 89 43 q 28 228 28 151 q 109 406 28 344 q 319 469 190 468 l 319 322 q 284 295 297 313 q 271 251 271 278 q 285 199 271 219 q 319 172 299 179 z "},"á":{"ha":688,"x_min":28,"x_max":639,"o":"m 389 546 q 361 601 389 586 q 290 615 333 615 q 189 606 238 615 q 92 578 140 596 l 92 772 q 222 798 154 786 q 357 810 289 810 q 497 791 433 810 q 600 724 561 772 q 639 585 639 675 l 639 0 l 422 0 l 389 119 l 389 546 m 319 172 l 319 1 q 242 -14 283 -14 q 138 15 186 -14 q 58 97 89 43 q 28 228 28 151 q 109 406 28 344 q 319 469 190 468 l 319 322 q 284 295 297 313 q 271 251 271 278 q 285 199 271 219 q 319 172 299 179 m 310 1049 l 574 1049 l 449 861 l 239 861 l 310 1049 z "},"ă":{"ha":688,"x_min":28,"x_max":639,"o":"m 389 546 q 361 601 389 586 q 290 615 333 615 q 189 606 238 615 q 92 578 140 596 l 92 772 q 222 798 154 786 q 357 810 289 810 q 497 791 433 810 q 600 724 561 772 q 639 585 639 675 l 639 0 l 422 0 l 389 119 l 389 546 m 319 172 l 319 1 q 242 -14 283 -14 q 138 15 186 -14 q 58 97 89 43 q 28 228 28 151 q 109 406 28 344 q 319 469 190 468 l 319 322 q 284 295 297 313 q 271 251 271 278 q 285 199 271 219 q 319 172 299 179 m 569 1081 q 569 1059 569 1069 q 568 1038 569 1049 q 510 899 560 947 q 361 851 460 851 q 197 909 247 851 q 146 1081 146 967 l 254 1081 q 357 1014 275 1014 q 426 1030 401 1014 q 461 1081 451 1046 l 569 1081 z "},"ắ":{"ha":688,"x_min":28,"x_max":639,"o":"m 389 546 q 361 601 389 586 q 290 615 333 615 q 189 606 238 615 q 92 578 140 596 l 92 772 q 222 798 154 786 q 357 810 289 810 q 497 791 433 810 q 600 724 561 772 q 639 585 639 675 l 639 0 l 422 0 l 389 119 l 389 546 m 319 172 l 319 1 q 242 -14 283 -14 q 138 15 186 -14 q 58 97 89 43 q 28 228 28 151 q 109 406 28 344 q 319 469 190 468 l 319 322 q 284 295 297 313 q 271 251 271 278 q 285 199 271 219 q 319 172 299 179 m 569 1081 q 569 1059 569 1069 q 568 1038 569 1049 q 510 899 560 947 q 361 851 460 851 q 197 909 247 851 q 146 1081 146 967 l 254 1081 q 357 1014 275 1014 q 426 1030 401 1014 q 461 1081 451 1046 l 569 1081 m 310 1307 l 574 1307 l 449 1119 l 239 1119 l 310 1307 z "},"ặ":{"ha":688,"x_min":28,"x_max":639,"o":"m 389 546 q 361 601 389 586 q 290 615 333 615 q 189 606 238 615 q 92 578 140 596 l 92 772 q 222 798 154 786 q 357 810 289 810 q 497 791 433 810 q 600 724 561 772 q 639 585 639 675 l 639 0 l 422 0 l 389 119 l 389 546 m 319 172 l 319 1 q 242 -14 283 -14 q 138 15 186 -14 q 58 97 89 43 q 28 228 28 151 q 109 406 28 344 q 319 469 190 468 l 319 322 q 284 295 297 313 q 271 251 271 278 q 285 199 271 219 q 319 172 299 179 m 243 -64 l 507 -64 l 507 -253 l 243 -253 l 243 -64 m 569 1081 q 569 1059 569 1069 q 568 1038 569 1049 q 510 899 560 947 q 361 851 460 851 q 197 909 247 851 q 146 1081 146 967 l 254 1081 q 357 1014 275 1014 q 426 1030 401 1014 q 461 1081 451 1046 l 569 1081 z "},"ằ":{"ha":688,"x_min":28,"x_max":639,"o":"m 389 546 q 361 601 389 586 q 290 615 333 615 q 189 606 238 615 q 92 578 140 596 l 92 772 q 222 798 154 786 q 357 810 289 810 q 497 791 433 810 q 600 724 561 772 q 639 585 639 675 l 639 0 l 422 0 l 389 119 l 389 546 m 319 172 l 319 1 q 242 -14 283 -14 q 138 15 186 -14 q 58 97 89 43 q 28 228 28 151 q 109 406 28 344 q 319 469 190 468 l 319 322 q 284 295 297 313 q 271 251 271 278 q 285 199 271 219 q 319 172 299 179 m 569 1081 q 569 1059 569 1069 q 568 1038 569 1049 q 510 899 560 947 q 361 851 460 851 q 197 909 247 851 q 146 1081 146 967 l 254 1081 q 357 1014 275 1014 q 426 1030 401 1014 q 461 1081 451 1046 l 569 1081 m 501 1119 l 292 1119 l 167 1307 l 431 1307 l 501 1119 z "},"ẳ":{"ha":688,"x_min":28,"x_max":639,"o":"m 389 546 q 361 601 389 586 q 290 615 333 615 q 189 606 238 615 q 92 578 140 596 l 92 772 q 222 798 154 786 q 357 810 289 810 q 497 791 433 810 q 600 724 561 772 q 639 585 639 675 l 639 0 l 422 0 l 389 119 l 389 546 m 319 172 l 319 1 q 242 -14 283 -14 q 138 15 186 -14 q 58 97 89 43 q 28 228 28 151 q 109 406 28 344 q 319 469 190 468 l 319 322 q 284 295 297 313 q 271 251 271 278 q 285 199 271 219 q 319 172 299 179 m 569 1081 q 569 1059 569 1069 q 568 1038 569 1049 q 510 899 560 947 q 361 851 460 851 q 197 909 247 851 q 146 1081 146 967 l 254 1081 q 357 1014 275 1014 q 426 1030 401 1014 q 461 1081 451 1046 l 569 1081 m 351 1103 l 292 1175 q 335 1215 322 1190 q 337 1258 347 1239 q 289 1278 326 1278 q 248 1274 268 1278 q 217 1267 228 1271 l 226 1386 q 336 1404 278 1404 q 440 1378 401 1404 q 493 1313 479 1353 q 496 1231 507 1274 q 449 1153 485 1189 q 351 1103 413 1118 z "},"ẵ":{"ha":688,"x_min":28,"x_max":639,"o":"m 389 546 q 361 601 389 586 q 290 615 333 615 q 189 606 238 615 q 92 578 140 596 l 92 772 q 222 798 154 786 q 357 810 289 810 q 497 791 433 810 q 600 724 561 772 q 639 585 639 675 l 639 0 l 422 0 l 389 119 l 389 546 m 319 172 l 319 1 q 242 -14 283 -14 q 138 15 186 -14 q 58 97 89 43 q 28 228 28 151 q 109 406 28 344 q 319 469 190 468 l 319 322 q 284 295 297 313 q 271 251 271 278 q 285 199 271 219 q 319 172 299 179 m 569 1081 q 569 1059 569 1069 q 568 1038 569 1049 q 510 899 560 947 q 361 851 460 851 q 197 909 247 851 q 146 1081 146 967 l 254 1081 q 357 1014 275 1014 q 426 1030 401 1014 q 461 1081 451 1046 l 569 1081 m 553 1314 q 558 1285 556 1300 q 560 1257 560 1271 q 527 1156 560 1197 q 428 1115 494 1115 q 375 1128 400 1115 q 330 1152 350 1140 q 296 1164 310 1164 q 271 1153 278 1164 q 264 1126 264 1142 l 165 1126 q 160 1156 163 1142 q 158 1183 158 1169 q 191 1285 158 1244 q 290 1325 224 1325 q 343 1313 318 1325 q 388 1289 368 1301 q 422 1276 408 1276 q 448 1288 442 1276 q 454 1314 454 1299 l 553 1314 z "},"â":{"ha":688,"x_min":28,"x_max":639,"o":"m 389 546 q 361 601 389 586 q 290 615 333 615 q 189 606 238 615 q 92 578 140 596 l 92 772 q 222 798 154 786 q 357 810 289 810 q 497 791 433 810 q 600 724 561 772 q 639 585 639 675 l 639 0 l 422 0 l 389 119 l 389 546 m 319 172 l 319 1 q 242 -14 283 -14 q 138 15 186 -14 q 58 97 89 43 q 28 228 28 151 q 109 406 28 344 q 319 469 190 468 l 319 322 q 284 295 297 313 q 271 251 271 278 q 285 199 271 219 q 319 172 299 179 m 438 861 l 308 1068 l 443 1068 l 594 861 l 438 861 m 247 1032 l 332 894 l 304 861 l 122 861 l 247 1032 z "},"ấ":{"ha":688,"x_min":28,"x_max":639,"o":"m 389 546 q 361 601 389 586 q 290 615 333 615 q 189 606 238 615 q 92 578 140 596 l 92 772 q 222 798 154 786 q 357 810 289 810 q 497 791 433 810 q 600 724 561 772 q 639 585 639 675 l 639 0 l 422 0 l 389 119 l 389 546 m 319 172 l 319 1 q 242 -14 283 -14 q 138 15 186 -14 q 58 97 89 43 q 28 228 28 151 q 109 406 28 344 q 319 469 190 468 l 319 322 q 284 295 297 313 q 271 251 271 278 q 285 199 271 219 q 319 172 299 179 m 438 861 l 308 1068 l 443 1068 l 594 861 l 438 861 m 247 1032 l 332 894 l 304 861 l 122 861 l 247 1032 m 310 1307 l 574 1307 l 449 1119 l 239 1119 l 310 1307 z "},"ậ":{"ha":688,"x_min":28,"x_max":639,"o":"m 389 546 q 361 601 389 586 q 290 615 333 615 q 189 606 238 615 q 92 578 140 596 l 92 772 q 222 798 154 786 q 357 810 289 810 q 497 791 433 810 q 600 724 561 772 q 639 585 639 675 l 639 0 l 422 0 l 389 119 l 389 546 m 319 172 l 319 1 q 242 -14 283 -14 q 138 15 186 -14 q 58 97 89 43 q 28 228 28 151 q 109 406 28 344 q 319 469 190 468 l 319 322 q 284 295 297 313 q 271 251 271 278 q 285 199 271 219 q 319 172 299 179 m 243 -64 l 507 -64 l 507 -253 l 243 -253 l 243 -64 m 438 861 l 308 1068 l 443 1068 l 594 861 l 438 861 m 247 1032 l 332 894 l 304 861 l 122 861 l 247 1032 z "},"ầ":{"ha":688,"x_min":28,"x_max":639,"o":"m 389 546 q 361 601 389 586 q 290 615 333 615 q 189 606 238 615 q 92 578 140 596 l 92 772 q 222 798 154 786 q 357 810 289 810 q 497 791 433 810 q 600 724 561 772 q 639 585 639 675 l 639 0 l 422 0 l 389 119 l 389 546 m 319 172 l 319 1 q 242 -14 283 -14 q 138 15 186 -14 q 58 97 89 43 q 28 228 28 151 q 109 406 28 344 q 319 469 190 468 l 319 322 q 284 295 297 313 q 271 251 271 278 q 285 199 271 219 q 319 172 299 179 m 438 861 l 308 1068 l 443 1068 l 594 861 l 438 861 m 247 1032 l 332 894 l 304 861 l 122 861 l 247 1032 m 501 1119 l 292 1119 l 167 1307 l 431 1307 l 501 1119 z "},"ẩ":{"ha":688,"x_min":28,"x_max":732,"o":"m 389 546 q 361 601 389 586 q 290 615 333 615 q 189 606 238 615 q 92 578 140 596 l 92 772 q 222 798 154 786 q 357 810 289 810 q 497 791 433 810 q 600 724 561 772 q 639 585 639 675 l 639 0 l 422 0 l 389 119 l 389 546 m 319 172 l 319 1 q 242 -14 283 -14 q 138 15 186 -14 q 58 97 89 43 q 28 228 28 151 q 109 406 28 344 q 319 469 190 468 l 319 322 q 284 295 297 313 q 271 251 271 278 q 285 199 271 219 q 319 172 299 179 m 438 861 l 308 1068 l 443 1068 l 594 861 l 438 861 m 247 1032 l 332 894 l 304 861 l 122 861 l 247 1032 m 576 990 l 517 1063 q 560 1102 547 1078 q 562 1146 572 1126 q 514 1165 551 1165 q 473 1162 493 1165 q 442 1154 453 1158 l 451 1274 q 561 1292 503 1292 q 665 1266 626 1292 q 718 1201 704 1240 q 721 1119 732 1161 q 674 1041 710 1076 q 576 990 638 1006 z "},"ẫ":{"ha":688,"x_min":28,"x_max":639,"o":"m 389 546 q 361 601 389 586 q 290 615 333 615 q 189 606 238 615 q 92 578 140 596 l 92 772 q 222 798 154 786 q 357 810 289 810 q 497 791 433 810 q 600 724 561 772 q 639 585 639 675 l 639 0 l 422 0 l 389 119 l 389 546 m 319 172 l 319 1 q 242 -14 283 -14 q 138 15 186 -14 q 58 97 89 43 q 28 228 28 151 q 109 406 28 344 q 319 469 190 468 l 319 322 q 284 295 297 313 q 271 251 271 278 q 285 199 271 219 q 319 172 299 179 m 438 861 l 308 1068 l 443 1068 l 594 861 l 438 861 m 247 1032 l 332 894 l 304 861 l 122 861 l 247 1032 m 553 1314 q 558 1285 556 1300 q 560 1257 560 1271 q 527 1156 560 1197 q 428 1115 494 1115 q 375 1128 400 1115 q 330 1152 350 1140 q 296 1164 310 1164 q 271 1153 278 1164 q 264 1126 264 1142 l 165 1126 q 160 1156 163 1142 q 158 1183 158 1169 q 191 1285 158 1244 q 290 1325 224 1325 q 343 1313 318 1325 q 388 1289 368 1301 q 422 1276 408 1276 q 448 1288 442 1276 q 454 1314 454 1299 l 553 1314 z "},"ȁ":{"ha":688,"x_min":-36,"x_max":639,"o":"m 389 546 q 361 601 389 586 q 290 615 333 615 q 189 606 238 615 q 92 578 140 596 l 92 772 q 222 798 154 786 q 357 810 289 810 q 497 791 433 810 q 600 724 561 772 q 639 585 639 675 l 639 0 l 422 0 l 389 119 l 389 546 m 319 172 l 319 1 q 242 -14 283 -14 q 138 15 186 -14 q 58 97 89 43 q 28 228 28 151 q 109 406 28 344 q 319 469 190 468 l 319 322 q 284 295 297 313 q 271 251 271 278 q 285 199 271 219 q 319 172 299 179 m 511 1049 l 582 861 l 372 861 l 275 1049 l 511 1049 m 200 1049 l 299 861 l 89 861 l -36 1049 l 200 1049 z "},"ä":{"ha":688,"x_min":28,"x_max":639,"o":"m 389 546 q 361 601 389 586 q 290 615 333 615 q 189 606 238 615 q 92 578 140 596 l 92 772 q 222 798 154 786 q 357 810 289 810 q 497 791 433 810 q 600 724 561 772 q 639 585 639 675 l 639 0 l 422 0 l 389 119 l 389 546 m 319 172 l 319 1 q 242 -14 283 -14 q 138 15 186 -14 q 58 97 89 43 q 28 228 28 151 q 109 406 28 344 q 319 469 190 468 l 319 322 q 284 295 297 313 q 271 251 271 278 q 285 199 271 219 q 319 172 299 179 m 106 1049 l 328 1049 l 328 860 l 106 860 l 106 1049 m 389 1049 l 611 1049 l 611 860 l 389 860 l 389 1049 z "},"ạ":{"ha":688,"x_min":28,"x_max":639,"o":"m 389 546 q 361 601 389 586 q 290 615 333 615 q 189 606 238 615 q 92 578 140 596 l 92 772 q 222 798 154 786 q 357 810 289 810 q 497 791 433 810 q 600 724 561 772 q 639 585 639 675 l 639 0 l 422 0 l 389 119 l 389 546 m 319 172 l 319 1 q 242 -14 283 -14 q 138 15 186 -14 q 58 97 89 43 q 28 228 28 151 q 109 406 28 344 q 319 469 190 468 l 319 322 q 284 295 297 313 q 271 251 271 278 q 285 199 271 219 q 319 172 299 179 m 243 -64 l 507 -64 l 507 -253 l 243 -253 l 243 -64 z "},"à":{"ha":688,"x_min":28,"x_max":639,"o":"m 389 546 q 361 601 389 586 q 290 615 333 615 q 189 606 238 615 q 92 578 140 596 l 92 772 q 222 798 154 786 q 357 810 289 810 q 497 791 433 810 q 600 724 561 772 q 639 585 639 675 l 639 0 l 422 0 l 389 119 l 389 546 m 319 172 l 319 1 q 242 -14 283 -14 q 138 15 186 -14 q 58 97 89 43 q 28 228 28 151 q 109 406 28 344 q 319 469 190 468 l 319 322 q 284 295 297 313 q 271 251 271 278 q 285 199 271 219 q 319 172 299 179 m 501 861 l 292 861 l 167 1049 l 431 1049 l 501 861 z "},"ả":{"ha":688,"x_min":28,"x_max":639,"o":"m 389 546 q 361 601 389 586 q 290 615 333 615 q 189 606 238 615 q 92 578 140 596 l 92 772 q 222 798 154 786 q 357 810 289 810 q 497 791 433 810 q 600 724 561 772 q 639 585 639 675 l 639 0 l 422 0 l 389 119 l 389 546 m 319 172 l 319 1 q 242 -14 283 -14 q 138 15 186 -14 q 58 97 89 43 q 28 228 28 151 q 109 406 28 344 q 319 469 190 468 l 319 322 q 284 295 297 313 q 271 251 271 278 q 285 199 271 219 q 319 172 299 179 m 351 844 l 292 917 q 335 956 322 932 q 337 1000 347 981 q 289 1019 326 1019 q 248 1016 268 1019 q 217 1008 228 1013 l 226 1128 q 336 1146 278 1146 q 440 1120 401 1146 q 493 1055 479 1094 q 496 973 507 1015 q 449 895 485 931 q 351 844 413 860 z "},"ȃ":{"ha":688,"x_min":28,"x_max":639,"o":"m 389 546 q 361 601 389 586 q 290 615 333 615 q 189 606 238 615 q 92 578 140 596 l 92 772 q 222 798 154 786 q 357 810 289 810 q 497 791 433 810 q 600 724 561 772 q 639 585 639 675 l 639 0 l 422 0 l 389 119 l 389 546 m 319 172 l 319 1 q 242 -14 283 -14 q 138 15 186 -14 q 58 97 89 43 q 28 228 28 151 q 109 406 28 344 q 319 469 190 468 l 319 322 q 284 295 297 313 q 271 251 271 278 q 285 199 271 219 q 319 172 299 179 m 569 851 l 461 851 q 426 902 451 886 q 357 918 401 918 q 254 851 275 918 l 146 851 q 197 1023 146 965 q 361 1081 247 1081 q 510 1033 460 1081 q 568 894 560 985 q 569 874 569 885 q 569 851 569 863 z "},"ā":{"ha":688,"x_min":28,"x_max":639,"o":"m 389 546 q 361 601 389 586 q 290 615 333 615 q 189 606 238 615 q 92 578 140 596 l 92 772 q 222 798 154 786 q 357 810 289 810 q 497 791 433 810 q 600 724 561 772 q 639 585 639 675 l 639 0 l 422 0 l 389 119 l 389 546 m 319 172 l 319 1 q 242 -14 283 -14 q 138 15 186 -14 q 58 97 89 43 q 28 228 28 151 q 109 406 28 344 q 319 469 190 468 l 319 322 q 284 295 297 313 q 271 251 271 278 q 285 199 271 219 q 319 172 299 179 m 153 1049 l 564 1049 l 564 885 l 153 885 l 153 1049 z "},"ą":{"ha":688,"x_min":28,"x_max":639,"o":"m 389 546 q 361 601 389 586 q 290 615 333 615 q 189 606 238 615 q 92 578 140 596 l 92 772 q 222 798 154 786 q 357 810 289 810 q 497 791 433 810 q 600 724 561 772 q 639 585 639 675 l 639 0 l 422 0 l 389 119 l 389 546 m 319 172 l 319 1 q 242 -14 283 -14 q 138 15 186 -14 q 58 97 89 43 q 28 228 28 151 q 109 406 28 344 q 319 469 190 468 l 319 322 q 284 295 297 313 q 271 251 271 278 q 285 199 271 219 q 319 172 299 179 m 403 -71 l 564 -71 q 638 -104 575 -115 l 638 -212 q 599 -219 618 -217 q 561 -222 579 -222 q 429 -176 468 -222 q 403 -71 390 -131 z "},"å":{"ha":688,"x_min":28,"x_max":639,"o":"m 389 546 q 361 601 389 586 q 290 615 333 615 q 189 606 238 615 q 92 578 140 596 l 92 772 q 222 798 154 786 q 357 810 289 810 q 497 791 433 810 q 600 724 561 772 q 639 585 639 675 l 639 0 l 422 0 l 389 119 l 389 546 m 319 172 l 319 1 q 242 -14 283 -14 q 138 15 186 -14 q 58 97 89 43 q 28 228 28 151 q 109 406 28 344 q 319 469 190 468 l 319 322 q 284 295 297 313 q 271 251 271 278 q 285 199 271 219 q 319 172 299 179 m 399 1001 l 399 1104 q 513 1069 476 1100 q 550 974 550 1038 q 513 887 550 917 q 399 851 476 857 l 399 954 q 401 964 400 958 q 403 975 403 969 q 401 989 403 982 q 399 1001 400 996 m 321 1104 l 321 1004 q 317 975 317 994 q 321 950 317 961 l 321 851 q 203 887 240 857 q 167 974 167 917 q 203 1069 167 1038 q 321 1104 240 1100 z "},"ǻ":{"ha":688,"x_min":28,"x_max":639,"o":"m 389 546 q 361 601 389 586 q 290 615 333 615 q 189 606 238 615 q 92 578 140 596 l 92 772 q 222 798 154 786 q 357 810 289 810 q 497 791 433 810 q 600 724 561 772 q 639 585 639 675 l 639 0 l 422 0 l 389 119 l 389 546 m 319 172 l 319 1 q 242 -14 283 -14 q 138 15 186 -14 q 58 97 89 43 q 28 228 28 151 q 109 406 28 344 q 319 469 190 468 l 319 322 q 284 295 297 313 q 271 251 271 278 q 285 199 271 219 q 319 172 299 179 m 399 1001 l 399 1104 q 513 1069 476 1100 q 550 974 550 1038 q 513 887 550 917 q 399 851 476 857 l 399 954 q 401 964 400 958 q 403 975 403 969 q 401 989 403 982 q 399 1001 400 996 m 321 1104 l 321 1004 q 317 975 317 994 q 321 950 317 961 l 321 851 q 203 887 240 857 q 167 974 167 917 q 203 1069 167 1038 q 321 1104 240 1100 m 306 1219 l 569 1219 l 444 1032 l 235 1032 l 306 1219 z "},"ã":{"ha":688,"x_min":28,"x_max":639,"o":"m 389 546 q 361 601 389 586 q 290 615 333 615 q 189 606 238 615 q 92 578 140 596 l 92 772 q 222 798 154 786 q 357 810 289 810 q 497 791 433 810 q 600 724 561 772 q 639 585 639 675 l 639 0 l 422 0 l 389 119 l 389 546 m 319 172 l 319 1 q 242 -14 283 -14 q 138 15 186 -14 q 58 97 89 43 q 28 228 28 151 q 109 406 28 344 q 319 469 190 468 l 319 322 q 284 295 297 313 q 271 251 271 278 q 285 199 271 219 q 319 172 299 179 m 553 1056 q 558 1027 556 1042 q 560 999 560 1013 q 527 898 560 939 q 428 857 494 857 q 375 869 400 857 q 330 894 350 882 q 296 906 310 906 q 271 894 278 906 q 264 868 264 883 l 165 868 q 160 897 163 883 q 158 925 158 911 q 191 1026 158 986 q 290 1067 224 1067 q 343 1055 318 1067 q 388 1031 368 1043 q 422 1018 408 1018 q 448 1029 442 1018 q 454 1056 454 1040 l 553 1056 z "},"æ":{"ha":1004,"x_min":28,"x_max":983,"o":"m 949 10 q 649 -5 775 -28 q 456 90 524 18 q 389 269 389 163 l 389 546 q 358 601 389 586 q 285 615 328 615 q 186 606 232 615 q 92 578 140 596 l 92 772 q 222 798 154 786 q 357 810 289 810 q 454 801 408 810 q 538 774 500 793 q 597 798 565 789 q 665 808 629 807 l 665 603 q 643 527 650 576 q 636 406 636 478 q 648 274 636 324 q 697 203 660 225 q 807 181 733 181 q 873 185 838 181 q 949 199 908 190 l 949 10 m 706 322 l 706 476 l 753 476 q 750 546 754 508 q 733 606 746 583 l 733 808 q 862 770 813 801 q 938 692 911 739 q 974 589 964 644 q 983 476 983 533 q 979 397 983 438 q 968 322 975 356 l 706 322 m 242 -14 q 138 15 186 -14 q 58 97 89 43 q 28 228 28 151 q 109 406 28 344 q 319 469 190 468 l 319 322 q 284 295 297 313 q 271 251 271 278 q 285 199 271 219 q 319 172 299 179 l 319 1 q 242 -14 283 -14 z "},"ǽ":{"ha":1004,"x_min":28,"x_max":983,"o":"m 949 10 q 649 -5 775 -28 q 456 90 524 18 q 389 269 389 163 l 389 546 q 358 601 389 586 q 285 615 328 615 q 186 606 232 615 q 92 578 140 596 l 92 772 q 222 798 154 786 q 357 810 289 810 q 454 801 408 810 q 538 774 500 793 q 597 798 565 789 q 665 808 629 807 l 665 603 q 643 527 650 576 q 636 406 636 478 q 648 274 636 324 q 697 203 660 225 q 807 181 733 181 q 873 185 838 181 q 949 199 908 190 l 949 10 m 706 322 l 706 476 l 753 476 q 750 546 754 508 q 733 606 746 583 l 733 808 q 862 770 813 801 q 938 692 911 739 q 974 589 964 644 q 983 476 983 533 q 979 397 983 438 q 968 322 975 356 l 706 322 m 242 -14 q 138 15 186 -14 q 58 97 89 43 q 28 228 28 151 q 109 406 28 344 q 319 469 190 468 l 319 322 q 284 295 297 313 q 271 251 271 278 q 285 199 271 219 q 319 172 299 179 l 319 1 q 242 -14 283 -14 m 489 1049 l 753 1049 l 628 861 l 418 861 l 489 1049 z "},"b":{"ha":747,"x_min":56,"x_max":719,"o":"m 306 250 l 56 250 l 56 1013 l 306 1049 l 306 250 m 56 188 l 304 188 q 396 203 361 188 q 446 269 431 219 q 461 415 461 318 q 444 570 461 525 q 382 615 428 615 l 374 615 l 374 793 q 464 810 415 810 q 590 777 540 810 q 667 688 639 744 q 708 559 696 631 q 719 408 719 488 q 672 163 719 256 q 534 28 624 69 q 318 -14 444 -14 q 173 -12 232 -14 q 56 4 114 -10 l 56 188 z "},"c":{"ha":618,"x_min":28,"x_max":588,"o":"m 288 438 l 29 438 q 67 617 35 544 q 153 731 100 689 q 273 792 207 774 q 410 810 339 810 q 499 803 458 810 q 582 782 539 796 l 582 469 l 439 469 l 411 614 q 323 575 354 614 q 288 438 292 536 m 28 367 l 288 367 q 333 226 293 267 q 438 187 372 186 q 588 208 504 188 l 588 11 q 486 -8 544 -1 q 379 -14 428 -14 q 206 19 283 -14 q 81 135 128 51 q 28 367 33 218 z "},"ć":{"ha":618,"x_min":28,"x_max":624,"o":"m 288 438 l 29 438 q 67 617 35 544 q 153 731 100 689 q 273 792 207 774 q 410 810 339 810 q 499 803 458 810 q 582 782 539 796 l 582 469 l 439 469 l 411 614 q 323 575 354 614 q 288 438 292 536 m 28 367 l 288 367 q 333 226 293 267 q 438 187 372 186 q 588 208 504 188 l 588 11 q 486 -8 544 -1 q 379 -14 428 -14 q 206 19 283 -14 q 81 135 128 51 q 28 367 33 218 m 360 1049 l 624 1049 l 499 861 l 289 861 l 360 1049 z "},"č":{"ha":618,"x_min":28,"x_max":644,"o":"m 288 438 l 29 438 q 67 617 35 544 q 153 731 100 689 q 273 792 207 774 q 410 810 339 810 q 499 803 458 810 q 582 782 539 796 l 582 469 l 439 469 l 411 614 q 323 575 354 614 q 288 438 292 536 m 28 367 l 288 367 q 333 226 293 267 q 438 187 372 186 q 588 208 504 188 l 588 11 q 486 -8 544 -1 q 379 -14 428 -14 q 206 19 283 -14 q 81 135 128 51 q 28 367 33 218 m 297 897 l 172 1068 l 354 1068 l 382 1035 l 297 897 m 488 1068 l 644 1068 l 493 861 l 358 861 l 488 1068 z "},"ç":{"ha":618,"x_min":28,"x_max":588,"o":"m 288 438 l 29 438 q 67 617 35 544 q 153 731 100 689 q 273 792 207 774 q 410 810 339 810 q 499 803 458 810 q 582 782 539 796 l 582 469 l 439 469 l 411 614 q 323 575 354 614 q 288 438 292 536 m 28 367 l 288 367 q 333 226 293 267 q 438 187 372 186 q 588 208 504 188 l 588 11 q 486 -8 544 -1 q 379 -14 428 -14 q 206 19 283 -14 q 81 135 128 51 q 28 367 33 218 m 307 -69 l 464 -69 l 464 -81 q 415 -191 464 -160 q 299 -222 365 -222 q 249 -221 276 -222 q 192 -214 222 -219 l 192 -100 q 221 -104 206 -101 q 250 -107 236 -107 q 307 -69 294 -107 z "},"ĉ":{"ha":618,"x_min":28,"x_max":644,"o":"m 288 438 l 29 438 q 67 617 35 544 q 153 731 100 689 q 273 792 207 774 q 410 810 339 810 q 499 803 458 810 q 582 782 539 796 l 582 469 l 439 469 l 411 614 q 323 575 354 614 q 288 438 292 536 m 28 367 l 288 367 q 333 226 293 267 q 438 187 372 186 q 588 208 504 188 l 588 11 q 486 -8 544 -1 q 379 -14 428 -14 q 206 19 283 -14 q 81 135 128 51 q 28 367 33 218 m 488 861 l 358 1068 l 493 1068 l 644 861 l 488 861 m 297 1032 l 382 894 l 354 861 l 172 861 l 297 1032 z "},"ċ":{"ha":618,"x_min":28,"x_max":588,"o":"m 288 438 l 29 438 q 67 617 35 544 q 153 731 100 689 q 273 792 207 774 q 410 810 339 810 q 499 803 458 810 q 582 782 539 796 l 582 469 l 439 469 l 411 614 q 323 575 354 614 q 288 438 292 536 m 28 367 l 288 367 q 333 226 293 267 q 438 187 372 186 q 588 208 504 188 l 588 11 q 486 -8 544 -1 q 379 -14 428 -14 q 206 19 283 -14 q 81 135 128 51 q 28 367 33 218 m 276 1049 l 540 1049 l 540 860 l 276 860 l 276 1049 z "},"d":{"ha":747,"x_min":28,"x_max":692,"o":"m 442 1011 l 692 1049 l 692 0 l 479 0 l 442 110 l 442 1011 m 371 803 l 371 614 q 301 550 317 608 q 286 381 286 492 q 303 226 286 271 q 365 181 319 181 l 371 181 l 371 1 q 283 -14 329 -14 q 158 19 207 -14 q 80 108 108 51 q 40 237 51 165 q 28 388 28 308 q 99 713 28 615 q 306 810 171 810 q 338 808 321 810 q 371 803 354 806 z "},"ď":{"ha":1033,"x_min":28,"x_max":1006,"o":"m 442 1011 l 692 1049 l 692 0 l 479 0 l 442 110 l 442 1011 m 371 803 l 371 614 q 301 550 317 608 q 286 381 286 492 q 303 226 286 271 q 365 181 319 181 l 371 181 l 371 1 q 283 -14 329 -14 q 158 19 207 -14 q 80 108 108 51 q 40 237 51 165 q 28 388 28 308 q 99 713 28 615 q 306 810 171 810 q 338 808 321 810 q 371 803 354 806 m 776 1060 l 1006 1060 l 922 844 l 733 844 l 776 1060 z "},"đ":{"ha":754,"x_min":28,"x_max":754,"o":"m 332 856 l 332 960 l 442 960 l 442 1011 l 692 1049 l 692 960 l 754 960 l 754 856 l 332 856 m 479 0 l 442 110 l 442 786 l 692 786 l 692 0 l 479 0 m 283 -14 q 158 16 207 -14 q 80 97 108 46 q 40 215 51 149 q 28 351 28 281 q 99 647 28 558 q 306 736 171 736 q 338 735 321 736 q 371 731 354 733 l 371 539 q 301 485 317 533 q 286 346 286 438 q 303 218 286 256 q 365 181 319 181 l 371 181 l 371 1 q 283 -14 329 -14 z "},"ǆ":{"ha":1382,"x_min":28,"x_max":1340,"o":"m 442 1011 l 692 1049 l 692 0 l 479 0 l 442 110 l 442 1011 m 371 803 l 371 614 q 301 550 317 608 q 286 381 286 492 q 303 226 286 271 q 365 181 319 181 l 371 181 l 371 1 q 283 -14 329 -14 q 158 19 207 -14 q 80 108 108 51 q 40 237 51 165 q 28 388 28 308 q 99 713 28 615 q 306 810 171 810 q 338 808 321 810 q 371 803 354 806 m 1064 799 l 958 604 l 799 604 l 799 799 l 1064 799 m 983 3 l 789 3 l 789 153 l 1136 799 l 1328 799 l 1328 651 l 983 3 m 1054 0 l 1158 194 l 1340 194 l 1340 0 l 1054 0 m 971 897 l 846 1068 l 1028 1068 l 1056 1035 l 971 897 m 1161 1068 l 1318 1068 l 1167 861 l 1032 861 l 1161 1068 z "},"ð":{"ha":742,"x_min":28,"x_max":714,"o":"m 129 863 l 258 1060 q 349 1009 307 1035 q 428 958 392 983 l 521 1060 l 649 944 l 558 847 q 663 702 629 774 q 705 566 696 631 q 714 446 714 501 q 687 194 714 293 q 593 46 660 96 q 406 -12 526 -4 l 406 194 q 457 392 457 238 q 374 679 457 563 q 129 863 290 796 m 371 536 q 307 467 325 513 q 289 363 289 421 q 297 258 289 306 q 336 190 306 210 l 336 -14 q 100 84 172 -8 q 28 360 28 176 q 92 576 28 489 q 269 696 156 664 q 327 628 301 667 q 371 536 353 589 z "},"e":{"ha":658,"x_min":28,"x_max":638,"o":"m 394 -14 q 245 4 313 -14 q 129 68 178 22 q 54 194 81 114 q 28 400 28 275 q 97 698 28 594 q 321 810 167 801 l 321 606 q 290 404 290 558 q 304 265 290 314 q 358 199 318 217 q 471 181 397 181 q 537 186 503 181 q 603 199 571 192 l 603 10 q 501 -7 554 0 q 394 -14 447 -14 m 360 322 l 360 476 l 406 476 q 403 544 406 508 q 389 604 401 581 l 389 808 q 579 713 521 797 q 638 476 638 629 q 635 397 638 438 q 625 322 632 356 l 360 322 z "},"é":{"ha":658,"x_min":28,"x_max":638,"o":"m 394 -14 q 245 4 313 -14 q 129 68 178 22 q 54 194 81 114 q 28 400 28 275 q 97 698 28 594 q 321 810 167 801 l 321 606 q 290 404 290 558 q 304 265 290 314 q 358 199 318 217 q 471 181 397 181 q 537 186 503 181 q 603 199 571 192 l 603 10 q 501 -7 554 0 q 394 -14 447 -14 m 360 322 l 360 476 l 406 476 q 403 544 406 508 q 389 604 401 581 l 389 808 q 579 713 521 797 q 638 476 638 629 q 635 397 638 438 q 625 322 632 356 l 360 322 m 299 1049 l 563 1049 l 438 861 l 228 861 l 299 1049 z "},"ĕ":{"ha":658,"x_min":28,"x_max":638,"o":"m 394 -14 q 245 4 313 -14 q 129 68 178 22 q 54 194 81 114 q 28 400 28 275 q 97 698 28 594 q 321 810 167 801 l 321 606 q 290 404 290 558 q 304 265 290 314 q 358 199 318 217 q 471 181 397 181 q 537 186 503 181 q 603 199 571 192 l 603 10 q 501 -7 554 0 q 394 -14 447 -14 m 360 322 l 360 476 l 406 476 q 403 544 406 508 q 389 604 401 581 l 389 808 q 579 713 521 797 q 638 476 638 629 q 635 397 638 438 q 625 322 632 356 l 360 322 m 558 1081 q 558 1059 558 1069 q 557 1038 558 1049 q 499 899 549 947 q 350 851 449 851 q 185 909 236 851 q 135 1081 135 967 l 243 1081 q 346 1014 264 1014 q 415 1030 390 1014 q 450 1081 440 1046 l 558 1081 z "},"ě":{"ha":658,"x_min":28,"x_max":638,"o":"m 394 -14 q 245 4 313 -14 q 129 68 178 22 q 54 194 81 114 q 28 400 28 275 q 97 698 28 594 q 321 810 167 801 l 321 606 q 290 404 290 558 q 304 265 290 314 q 358 199 318 217 q 471 181 397 181 q 537 186 503 181 q 603 199 571 192 l 603 10 q 501 -7 554 0 q 394 -14 447 -14 m 360 322 l 360 476 l 406 476 q 403 544 406 508 q 389 604 401 581 l 389 808 q 579 713 521 797 q 638 476 638 629 q 635 397 638 438 q 625 322 632 356 l 360 322 m 236 897 l 111 1068 l 293 1068 l 321 1035 l 236 897 m 426 1068 l 583 1068 l 432 861 l 297 861 l 426 1068 z "},"ê":{"ha":658,"x_min":28,"x_max":638,"o":"m 394 -14 q 245 4 313 -14 q 129 68 178 22 q 54 194 81 114 q 28 400 28 275 q 97 698 28 594 q 321 810 167 801 l 321 606 q 290 404 290 558 q 304 265 290 314 q 358 199 318 217 q 471 181 397 181 q 537 186 503 181 q 603 199 571 192 l 603 10 q 501 -7 554 0 q 394 -14 447 -14 m 360 322 l 360 476 l 406 476 q 403 544 406 508 q 389 604 401 581 l 389 808 q 579 713 521 797 q 638 476 638 629 q 635 397 638 438 q 625 322 632 356 l 360 322 m 426 861 l 297 1068 l 432 1068 l 583 861 l 426 861 m 236 1032 l 321 894 l 293 861 l 111 861 l 236 1032 z "},"ế":{"ha":658,"x_min":28,"x_max":638,"o":"m 394 -14 q 245 4 313 -14 q 129 68 178 22 q 54 194 81 114 q 28 400 28 275 q 97 698 28 594 q 321 810 167 801 l 321 606 q 290 404 290 558 q 304 265 290 314 q 358 199 318 217 q 471 181 397 181 q 537 186 503 181 q 603 199 571 192 l 603 10 q 501 -7 554 0 q 394 -14 447 -14 m 360 322 l 360 476 l 406 476 q 403 544 406 508 q 389 604 401 581 l 389 808 q 579 713 521 797 q 638 476 638 629 q 635 397 638 438 q 625 322 632 356 l 360 322 m 426 861 l 297 1068 l 432 1068 l 583 861 l 426 861 m 236 1032 l 321 894 l 293 861 l 111 861 l 236 1032 m 299 1307 l 563 1307 l 438 1119 l 228 1119 l 299 1307 z "},"ệ":{"ha":658,"x_min":28,"x_max":638,"o":"m 394 -14 q 245 4 313 -14 q 129 68 178 22 q 54 194 81 114 q 28 400 28 275 q 97 698 28 594 q 321 810 167 801 l 321 606 q 290 404 290 558 q 304 265 290 314 q 358 199 318 217 q 471 181 397 181 q 537 186 503 181 q 603 199 571 192 l 603 10 q 501 -7 554 0 q 394 -14 447 -14 m 360 322 l 360 476 l 406 476 q 403 544 406 508 q 389 604 401 581 l 389 808 q 579 713 521 797 q 638 476 638 629 q 635 397 638 438 q 625 322 632 356 l 360 322 m 261 -64 l 525 -64 l 525 -253 l 261 -253 l 261 -64 m 426 861 l 297 1068 l 432 1068 l 583 861 l 426 861 m 236 1032 l 321 894 l 293 861 l 111 861 l 236 1032 z "},"ề":{"ha":658,"x_min":28,"x_max":638,"o":"m 394 -14 q 245 4 313 -14 q 129 68 178 22 q 54 194 81 114 q 28 400 28 275 q 97 698 28 594 q 321 810 167 801 l 321 606 q 290 404 290 558 q 304 265 290 314 q 358 199 318 217 q 471 181 397 181 q 537 186 503 181 q 603 199 571 192 l 603 10 q 501 -7 554 0 q 394 -14 447 -14 m 360 322 l 360 476 l 406 476 q 403 544 406 508 q 389 604 401 581 l 389 808 q 579 713 521 797 q 638 476 638 629 q 635 397 638 438 q 625 322 632 356 l 360 322 m 426 861 l 297 1068 l 432 1068 l 583 861 l 426 861 m 236 1032 l 321 894 l 293 861 l 111 861 l 236 1032 m 490 1119 l 281 1119 l 156 1307 l 419 1307 l 490 1119 z "},"ể":{"ha":658,"x_min":28,"x_max":721,"o":"m 394 -14 q 245 4 313 -14 q 129 68 178 22 q 54 194 81 114 q 28 400 28 275 q 97 698 28 594 q 321 810 167 801 l 321 606 q 290 404 290 558 q 304 265 290 314 q 358 199 318 217 q 471 181 397 181 q 537 186 503 181 q 603 199 571 192 l 603 10 q 501 -7 554 0 q 394 -14 447 -14 m 360 322 l 360 476 l 406 476 q 403 544 406 508 q 389 604 401 581 l 389 808 q 579 713 521 797 q 638 476 638 629 q 635 397 638 438 q 625 322 632 356 l 360 322 m 426 861 l 297 1068 l 432 1068 l 583 861 l 426 861 m 236 1032 l 321 894 l 293 861 l 111 861 l 236 1032 m 565 990 l 506 1063 q 549 1102 536 1078 q 551 1146 561 1126 q 503 1165 540 1165 q 462 1162 482 1165 q 431 1154 442 1158 l 440 1274 q 550 1292 492 1292 q 654 1266 615 1292 q 707 1201 693 1240 q 710 1119 721 1161 q 663 1041 699 1076 q 565 990 626 1006 z "},"ễ":{"ha":658,"x_min":28,"x_max":638,"o":"m 394 -14 q 245 4 313 -14 q 129 68 178 22 q 54 194 81 114 q 28 400 28 275 q 97 698 28 594 q 321 810 167 801 l 321 606 q 290 404 290 558 q 304 265 290 314 q 358 199 318 217 q 471 181 397 181 q 537 186 503 181 q 603 199 571 192 l 603 10 q 501 -7 554 0 q 394 -14 447 -14 m 360 322 l 360 476 l 406 476 q 403 544 406 508 q 389 604 401 581 l 389 808 q 579 713 521 797 q 638 476 638 629 q 635 397 638 438 q 625 322 632 356 l 360 322 m 426 861 l 297 1068 l 432 1068 l 583 861 l 426 861 m 236 1032 l 321 894 l 293 861 l 111 861 l 236 1032 m 542 1314 q 547 1285 544 1300 q 549 1257 549 1271 q 516 1156 549 1197 q 417 1115 483 1115 q 364 1128 389 1115 q 319 1152 339 1140 q 285 1164 299 1164 q 260 1153 267 1164 q 253 1126 253 1142 l 154 1126 q 149 1156 151 1142 q 147 1183 147 1169 q 180 1285 147 1244 q 279 1325 213 1325 q 332 1313 307 1325 q 377 1289 357 1301 q 411 1276 397 1276 q 437 1288 431 1276 q 443 1314 443 1299 l 542 1314 z "},"ȅ":{"ha":658,"x_min":-47,"x_max":638,"o":"m 394 -14 q 245 4 313 -14 q 129 68 178 22 q 54 194 81 114 q 28 400 28 275 q 97 698 28 594 q 321 810 167 801 l 321 606 q 290 404 290 558 q 304 265 290 314 q 358 199 318 217 q 471 181 397 181 q 537 186 503 181 q 603 199 571 192 l 603 10 q 501 -7 554 0 q 394 -14 447 -14 m 360 322 l 360 476 l 406 476 q 403 544 406 508 q 389 604 401 581 l 389 808 q 579 713 521 797 q 638 476 638 629 q 635 397 638 438 q 625 322 632 356 l 360 322 m 500 1049 l 571 861 l 361 861 l 264 1049 l 500 1049 m 189 1049 l 288 861 l 78 861 l -47 1049 l 189 1049 z "},"ë":{"ha":658,"x_min":28,"x_max":638,"o":"m 394 -14 q 245 4 313 -14 q 129 68 178 22 q 54 194 81 114 q 28 400 28 275 q 97 698 28 594 q 321 810 167 801 l 321 606 q 290 404 290 558 q 304 265 290 314 q 358 199 318 217 q 471 181 397 181 q 537 186 503 181 q 603 199 571 192 l 603 10 q 501 -7 554 0 q 394 -14 447 -14 m 360 322 l 360 476 l 406 476 q 403 544 406 508 q 389 604 401 581 l 389 808 q 579 713 521 797 q 638 476 638 629 q 635 397 638 438 q 625 322 632 356 l 360 322 m 94 1049 l 317 1049 l 317 860 l 94 860 l 94 1049 m 378 1049 l 600 1049 l 600 860 l 378 860 l 378 1049 z "},"ė":{"ha":658,"x_min":28,"x_max":638,"o":"m 394 -14 q 245 4 313 -14 q 129 68 178 22 q 54 194 81 114 q 28 400 28 275 q 97 698 28 594 q 321 810 167 801 l 321 606 q 290 404 290 558 q 304 265 290 314 q 358 199 318 217 q 471 181 397 181 q 537 186 503 181 q 603 199 571 192 l 603 10 q 501 -7 554 0 q 394 -14 447 -14 m 360 322 l 360 476 l 406 476 q 403 544 406 508 q 389 604 401 581 l 389 808 q 579 713 521 797 q 638 476 638 629 q 635 397 638 438 q 625 322 632 356 l 360 322 m 215 1049 l 479 1049 l 479 860 l 215 860 l 215 1049 z "},"ẹ":{"ha":658,"x_min":28,"x_max":638,"o":"m 394 -14 q 245 4 313 -14 q 129 68 178 22 q 54 194 81 114 q 28 400 28 275 q 97 698 28 594 q 321 810 167 801 l 321 606 q 290 404 290 558 q 304 265 290 314 q 358 199 318 217 q 471 181 397 181 q 537 186 503 181 q 603 199 571 192 l 603 10 q 501 -7 554 0 q 394 -14 447 -14 m 360 322 l 360 476 l 406 476 q 403 544 406 508 q 389 604 401 581 l 389 808 q 579 713 521 797 q 638 476 638 629 q 635 397 638 438 q 625 322 632 356 l 360 322 m 261 -64 l 525 -64 l 525 -253 l 261 -253 l 261 -64 z "},"è":{"ha":658,"x_min":28,"x_max":638,"o":"m 394 -14 q 245 4 313 -14 q 129 68 178 22 q 54 194 81 114 q 28 400 28 275 q 97 698 28 594 q 321 810 167 801 l 321 606 q 290 404 290 558 q 304 265 290 314 q 358 199 318 217 q 471 181 397 181 q 537 186 503 181 q 603 199 571 192 l 603 10 q 501 -7 554 0 q 394 -14 447 -14 m 360 322 l 360 476 l 406 476 q 403 544 406 508 q 389 604 401 581 l 389 808 q 579 713 521 797 q 638 476 638 629 q 635 397 638 438 q 625 322 632 356 l 360 322 m 490 861 l 281 861 l 156 1049 l 419 1049 l 490 861 z "},"ẻ":{"ha":658,"x_min":28,"x_max":638,"o":"m 394 -14 q 245 4 313 -14 q 129 68 178 22 q 54 194 81 114 q 28 400 28 275 q 97 698 28 594 q 321 810 167 801 l 321 606 q 290 404 290 558 q 304 265 290 314 q 358 199 318 217 q 471 181 397 181 q 537 186 503 181 q 603 199 571 192 l 603 10 q 501 -7 554 0 q 394 -14 447 -14 m 360 322 l 360 476 l 406 476 q 403 544 406 508 q 389 604 401 581 l 389 808 q 579 713 521 797 q 638 476 638 629 q 635 397 638 438 q 625 322 632 356 l 360 322 m 340 844 l 281 917 q 324 956 311 932 q 326 1000 336 981 q 278 1019 315 1019 q 237 1016 257 1019 q 206 1008 217 1013 l 215 1128 q 325 1146 267 1146 q 429 1120 390 1146 q 482 1055 468 1094 q 485 973 496 1015 q 438 895 474 931 q 340 844 401 860 z "},"ȇ":{"ha":658,"x_min":28,"x_max":638,"o":"m 394 -14 q 245 4 313 -14 q 129 68 178 22 q 54 194 81 114 q 28 400 28 275 q 97 698 28 594 q 321 810 167 801 l 321 606 q 290 404 290 558 q 304 265 290 314 q 358 199 318 217 q 471 181 397 181 q 537 186 503 181 q 603 199 571 192 l 603 10 q 501 -7 554 0 q 394 -14 447 -14 m 360 322 l 360 476 l 406 476 q 403 544 406 508 q 389 604 401 581 l 389 808 q 579 713 521 797 q 638 476 638 629 q 635 397 638 438 q 625 322 632 356 l 360 322 m 558 851 l 450 851 q 415 902 440 886 q 346 918 390 918 q 243 851 264 918 l 135 851 q 185 1023 135 965 q 350 1081 236 1081 q 499 1033 449 1081 q 557 894 549 985 q 558 874 558 885 q 558 851 558 863 z "},"ē":{"ha":658,"x_min":28,"x_max":638,"o":"m 394 -14 q 245 4 313 -14 q 129 68 178 22 q 54 194 81 114 q 28 400 28 275 q 97 698 28 594 q 321 810 167 801 l 321 606 q 290 404 290 558 q 304 265 290 314 q 358 199 318 217 q 471 181 397 181 q 537 186 503 181 q 603 199 571 192 l 603 10 q 501 -7 554 0 q 394 -14 447 -14 m 360 322 l 360 476 l 406 476 q 403 544 406 508 q 389 604 401 581 l 389 808 q 579 713 521 797 q 638 476 638 629 q 635 397 638 438 q 625 322 632 356 l 360 322 m 142 1049 l 553 1049 l 553 885 l 142 885 l 142 1049 z "},"ę":{"ha":658,"x_min":28,"x_max":638,"o":"m 394 -14 q 245 4 313 -14 q 129 68 178 22 q 54 194 81 114 q 28 400 28 275 q 97 698 28 594 q 321 810 167 801 l 321 606 q 290 404 290 558 q 304 265 290 314 q 358 199 318 217 q 471 181 397 181 q 537 186 503 181 q 603 199 571 192 l 603 10 q 501 -7 554 0 q 394 -14 447 -14 m 360 322 l 360 476 l 406 476 q 403 544 406 508 q 389 604 401 581 l 389 808 q 579 713 521 797 q 638 476 638 629 q 635 397 638 438 q 625 322 632 356 l 360 322 m 368 -71 l 529 -71 q 603 -104 540 -115 l 603 -212 q 564 -219 583 -217 q 526 -222 544 -222 q 394 -176 433 -222 q 368 -71 356 -131 z "},"ẽ":{"ha":658,"x_min":28,"x_max":638,"o":"m 394 -14 q 245 4 313 -14 q 129 68 178 22 q 54 194 81 114 q 28 400 28 275 q 97 698 28 594 q 321 810 167 801 l 321 606 q 290 404 290 558 q 304 265 290 314 q 358 199 318 217 q 471 181 397 181 q 537 186 503 181 q 603 199 571 192 l 603 10 q 501 -7 554 0 q 394 -14 447 -14 m 360 322 l 360 476 l 406 476 q 403 544 406 508 q 389 604 401 581 l 389 808 q 579 713 521 797 q 638 476 638 629 q 635 397 638 438 q 625 322 632 356 l 360 322 m 542 1056 q 547 1027 544 1042 q 549 999 549 1013 q 516 898 549 939 q 417 857 483 857 q 364 869 389 857 q 319 894 339 882 q 285 906 299 906 q 260 894 267 906 q 253 868 253 883 l 154 868 q 149 897 151 883 q 147 925 147 911 q 180 1026 147 986 q 279 1067 213 1067 q 332 1055 307 1067 q 377 1031 357 1043 q 411 1018 397 1018 q 437 1029 431 1018 q 443 1056 443 1040 l 542 1056 z "},"ə":{"ha":658,"x_min":21,"x_max":631,"o":"m 264 810 q 413 792 346 810 q 529 728 481 774 q 604 601 578 682 q 631 396 631 521 q 561 98 631 201 q 338 -14 492 -6 l 338 190 q 368 392 368 238 q 354 531 368 482 q 301 597 340 579 q 188 615 263 615 q 122 610 156 615 q 56 597 88 604 l 56 786 q 158 803 104 796 q 264 810 213 810 m 299 474 l 299 319 l 253 319 q 255 251 253 288 q 269 192 257 215 l 269 -12 q 80 83 139 -1 q 21 319 21 167 q 24 400 21 360 q 33 474 28 440 l 299 474 z "},"f":{"ha":526,"x_min":28,"x_max":499,"o":"m 28 611 l 28 799 l 111 799 l 111 835 q 144 969 111 921 q 250 1039 178 1018 q 440 1060 322 1060 q 499 1056 467 1060 l 499 876 q 444 881 469 881 q 383 866 404 881 q 361 817 361 851 l 361 799 l 499 799 l 499 611 l 28 611 m 111 549 l 361 549 l 361 0 l 111 0 l 111 549 z "},"g":{"ha":753,"x_min":33,"x_max":697,"o":"m 378 800 l 378 615 q 307 559 322 610 q 292 410 292 508 q 308 276 292 315 q 371 236 325 236 l 378 236 l 378 72 q 286 56 336 56 q 162 85 211 56 q 85 167 113 115 q 45 285 57 219 q 33 424 33 351 q 103 721 33 632 q 307 810 174 810 q 344 807 326 810 q 378 800 361 804 m 447 686 l 485 799 l 697 799 l 697 97 q 617 -142 697 -62 q 390 -222 538 -222 q 278 -217 333 -222 q 186 -208 222 -212 q 150 -203 150 -203 l 150 -14 q 237 -23 197 -19 q 319 -26 276 -26 q 414 -3 381 -26 q 447 71 447 19 l 447 686 z "},"ğ":{"ha":753,"x_min":33,"x_max":697,"o":"m 378 800 l 378 615 q 307 559 322 610 q 292 410 292 508 q 308 276 292 315 q 371 236 325 236 l 378 236 l 378 72 q 286 56 336 56 q 162 85 211 56 q 85 167 113 115 q 45 285 57 219 q 33 424 33 351 q 103 721 33 632 q 307 810 174 810 q 344 807 326 810 q 378 800 361 804 m 447 686 l 485 799 l 697 799 l 697 97 q 617 -142 697 -62 q 390 -222 538 -222 q 278 -217 333 -222 q 186 -208 222 -212 q 150 -203 150 -203 l 150 -14 q 237 -23 197 -19 q 319 -26 276 -26 q 414 -3 381 -26 q 447 71 447 19 l 447 686 m 631 1081 q 631 1059 631 1069 q 629 1038 631 1049 q 571 899 621 947 q 422 851 521 851 q 258 909 308 851 q 207 1081 207 967 l 315 1081 q 418 1014 336 1014 q 488 1030 463 1014 q 522 1081 513 1046 l 631 1081 z "},"ǧ":{"ha":753,"x_min":33,"x_max":697,"o":"m 378 800 l 378 615 q 307 559 322 610 q 292 410 292 508 q 308 276 292 315 q 371 236 325 236 l 378 236 l 378 72 q 286 56 336 56 q 162 85 211 56 q 85 167 113 115 q 45 285 57 219 q 33 424 33 351 q 103 721 33 632 q 307 810 174 810 q 344 807 326 810 q 378 800 361 804 m 447 686 l 485 799 l 697 799 l 697 97 q 617 -142 697 -62 q 390 -222 538 -222 q 278 -217 333 -222 q 186 -208 222 -212 q 150 -203 150 -203 l 150 -14 q 237 -23 197 -19 q 319 -26 276 -26 q 414 -3 381 -26 q 447 71 447 19 l 447 686 m 308 897 l 183 1068 l 365 1068 l 393 1035 l 308 897 m 499 1068 l 656 1068 l 504 861 l 369 861 l 499 1068 z "},"ĝ":{"ha":753,"x_min":33,"x_max":697,"o":"m 378 800 l 378 615 q 307 559 322 610 q 292 410 292 508 q 308 276 292 315 q 371 236 325 236 l 378 236 l 378 72 q 286 56 336 56 q 162 85 211 56 q 85 167 113 115 q 45 285 57 219 q 33 424 33 351 q 103 721 33 632 q 307 810 174 810 q 344 807 326 810 q 378 800 361 804 m 447 686 l 485 799 l 697 799 l 697 97 q 617 -142 697 -62 q 390 -222 538 -222 q 278 -217 333 -222 q 186 -208 222 -212 q 150 -203 150 -203 l 150 -14 q 237 -23 197 -19 q 319 -26 276 -26 q 414 -3 381 -26 q 447 71 447 19 l 447 686 m 499 861 l 369 1068 l 504 1068 l 656 861 l 499 861 m 308 1032 l 393 894 l 365 861 l 183 861 l 308 1032 z "},"ģ":{"ha":753,"x_min":33,"x_max":697,"o":"m 378 800 l 378 615 q 307 559 322 610 q 292 410 292 508 q 308 276 292 315 q 371 236 325 236 l 378 236 l 378 72 q 286 56 336 56 q 162 85 211 56 q 85 167 113 115 q 45 285 57 219 q 33 424 33 351 q 103 721 33 632 q 307 810 174 810 q 344 807 326 810 q 378 800 361 804 m 447 686 l 485 799 l 697 799 l 697 97 q 617 -142 697 -62 q 390 -222 538 -222 q 278 -217 333 -222 q 186 -208 222 -212 q 150 -203 150 -203 l 150 -14 q 237 -23 197 -19 q 319 -26 276 -26 q 414 -3 381 -26 q 447 71 447 19 l 447 686 m 565 1058 l 515 864 l 274 864 l 379 1058 l 565 1058 z "},"ġ":{"ha":753,"x_min":33,"x_max":697,"o":"m 378 800 l 378 615 q 307 559 322 610 q 292 410 292 508 q 308 276 292 315 q 371 236 325 236 l 378 236 l 378 72 q 286 56 336 56 q 162 85 211 56 q 85 167 113 115 q 45 285 57 219 q 33 424 33 351 q 103 721 33 632 q 307 810 174 810 q 344 807 326 810 q 378 800 361 804 m 447 686 l 485 799 l 697 799 l 697 97 q 617 -142 697 -62 q 390 -222 538 -222 q 278 -217 333 -222 q 186 -208 222 -212 q 150 -203 150 -203 l 150 -14 q 237 -23 197 -19 q 319 -26 276 -26 q 414 -3 381 -26 q 447 71 447 19 l 447 686 m 288 1049 l 551 1049 l 551 860 l 288 860 l 288 1049 z "},"h":{"ha":735,"x_min":56,"x_max":686,"o":"m 306 0 l 56 0 l 56 1013 l 306 1049 l 306 0 m 375 614 l 375 794 q 464 810 421 810 q 623 750 560 810 q 686 571 686 690 l 686 0 l 436 0 l 436 531 q 375 614 436 606 z "},"ħ":{"ha":735,"x_min":7,"x_max":686,"o":"m 7 856 l 7 960 l 56 960 l 56 1013 l 306 1049 l 306 960 l 429 960 l 429 856 l 7 856 m 56 0 l 56 786 l 306 786 l 306 0 l 56 0 m 436 0 l 436 489 q 375 572 436 564 l 375 753 q 464 768 421 768 q 623 708 560 768 q 686 529 686 649 l 686 0 l 436 0 z "},"ĥ":{"ha":735,"x_min":-53,"x_max":686,"o":"m 306 0 l 56 0 l 56 1013 l 306 1049 l 306 0 m 375 614 l 375 794 q 464 810 421 810 q 623 750 560 810 q 686 571 686 690 l 686 0 l 436 0 l 436 531 q 375 614 436 606 m 113 1265 l 267 1265 l 417 1099 l 251 1099 l 113 1265 m 67 1231 l 153 1131 l 119 1099 l -53 1099 l 67 1231 z "},"i":{"ha":361,"x_min":49,"x_max":313,"o":"m 56 799 l 306 799 l 306 0 l 56 0 l 56 799 m 49 1049 l 313 1049 l 313 860 l 49 860 l 49 1049 z "},"ı":{"ha":361,"x_min":56,"x_max":306,"o":"m 56 799 l 306 799 l 306 0 l 56 0 l 56 799 z "},"í":{"ha":361,"x_min":56,"x_max":396,"o":"m 56 799 l 306 799 l 306 0 l 56 0 l 56 799 m 132 1049 l 396 1049 l 271 861 l 61 861 l 132 1049 z "},"ĭ":{"ha":361,"x_min":-32,"x_max":392,"o":"m 56 799 l 306 799 l 306 0 l 56 0 l 56 799 m 392 1081 q 392 1059 392 1069 q 390 1038 392 1049 q 332 899 382 947 q 183 851 282 851 q 19 909 69 851 q -32 1081 -32 967 l 76 1081 q 179 1014 97 1014 q 249 1030 224 1014 q 283 1081 274 1046 l 392 1081 z "},"î":{"ha":361,"x_min":-56,"x_max":417,"o":"m 56 799 l 306 799 l 306 0 l 56 0 l 56 799 m 260 861 l 131 1068 l 265 1068 l 417 861 l 260 861 m 69 1032 l 154 894 l 126 861 l -56 861 l 69 1032 z "},"ȉ":{"ha":361,"x_min":-214,"x_max":404,"o":"m 56 799 l 306 799 l 306 0 l 56 0 l 56 799 m 333 1049 l 404 861 l 194 861 l 97 1049 l 333 1049 m 22 1049 l 121 861 l -89 861 l -214 1049 l 22 1049 z "},"ï":{"ha":361,"x_min":-72,"x_max":433,"o":"m 56 799 l 306 799 l 306 0 l 56 0 l 56 799 m -72 1049 l 150 1049 l 150 860 l -72 860 l -72 1049 m 211 1049 l 433 1049 l 433 860 l 211 860 l 211 1049 z "},"ị":{"ha":361,"x_min":49,"x_max":313,"o":"m 56 799 l 306 799 l 306 0 l 56 0 l 56 799 m 49 1049 l 313 1049 l 313 860 l 49 860 l 49 1049 m 49 -64 l 313 -64 l 313 -253 l 49 -253 l 49 -64 z "},"ì":{"ha":361,"x_min":-11,"x_max":324,"o":"m 56 799 l 306 799 l 306 0 l 56 0 l 56 799 m 324 861 l 114 861 l -11 1049 l 253 1049 l 324 861 z "},"ỉ":{"ha":361,"x_min":39,"x_max":329,"o":"m 56 799 l 306 799 l 306 0 l 56 0 l 56 799 m 174 844 l 114 917 q 157 956 144 932 q 159 1000 169 981 q 111 1019 149 1019 q 70 1016 90 1019 q 39 1008 50 1013 l 49 1128 q 158 1146 100 1146 q 263 1120 224 1146 q 315 1055 301 1094 q 318 973 329 1015 q 271 895 307 931 q 174 844 235 860 z "},"ȋ":{"ha":361,"x_min":-32,"x_max":392,"o":"m 56 799 l 306 799 l 306 0 l 56 0 l 56 799 m 392 851 l 283 851 q 249 902 274 886 q 179 918 224 918 q 76 851 97 918 l -32 851 q 19 1023 -32 965 q 183 1081 69 1081 q 332 1033 282 1081 q 390 894 382 985 q 392 874 392 885 q 392 851 392 863 z "},"ī":{"ha":361,"x_min":-25,"x_max":386,"o":"m 56 799 l 306 799 l 306 0 l 56 0 l 56 799 m -25 1049 l 386 1049 l 386 885 l -25 885 l -25 1049 z "},"į":{"ha":361,"x_min":49,"x_max":313,"o":"m 56 799 l 306 799 l 306 0 l 56 0 l 56 799 m 49 1049 l 313 1049 l 313 860 l 49 860 l 49 1049 m 68 -71 l 229 -71 q 303 -104 240 -115 l 303 -212 q 264 -219 283 -217 q 226 -222 244 -222 q 94 -176 133 -222 q 68 -71 56 -131 z "},"ĩ":{"ha":361,"x_min":-19,"x_max":382,"o":"m 56 799 l 306 799 l 306 0 l 56 0 l 56 799 m 375 1056 q 380 1027 378 1042 q 382 999 382 1013 q 349 898 382 939 q 250 857 317 857 q 197 869 222 857 q 152 894 172 882 q 118 906 132 906 q 93 894 100 906 q 86 868 86 883 l -12 868 q -17 897 -15 883 q -19 925 -19 911 q 13 1026 -19 986 q 113 1067 46 1067 q 165 1055 140 1067 q 210 1031 190 1043 q 244 1018 231 1018 q 270 1029 264 1018 q 276 1056 276 1040 l 375 1056 z "},"j":{"ha":361,"x_min":49,"x_max":313,"o":"m 56 799 l 306 799 l 306 -174 l 56 -208 l 56 799 m 49 1049 l 313 1049 l 313 860 l 49 860 l 49 1049 z "},"ȷ":{"ha":361,"x_min":56,"x_max":306,"o":"m 56 799 l 306 799 l 306 -174 l 56 -208 l 56 799 z "},"ĵ":{"ha":361,"x_min":-56,"x_max":417,"o":"m 56 799 l 306 799 l 306 -174 l 56 -208 l 56 799 m 260 861 l 131 1068 l 265 1068 l 417 861 l 260 861 m 69 1032 l 154 894 l 126 861 l -56 861 l 69 1032 z "},"k":{"ha":710,"x_min":42,"x_max":699,"o":"m 306 694 l 56 182 l 56 1015 l 306 1049 l 306 694 m 307 0 l 42 0 l 432 799 l 699 799 l 307 0 m 414 60 l 560 361 l 699 0 l 433 0 l 414 60 z "},"ķ":{"ha":710,"x_min":42,"x_max":699,"o":"m 306 694 l 56 182 l 56 1015 l 306 1049 l 306 694 m 307 0 l 42 0 l 432 799 l 699 799 l 307 0 m 414 60 l 560 361 l 699 0 l 433 0 l 414 60 m 221 -208 l 260 -51 l 497 -51 l 413 -208 l 221 -208 z "},"ĸ":{"ha":710,"x_min":42,"x_max":699,"o":"m 306 694 l 56 182 l 56 799 l 306 799 l 306 694 m 307 0 l 42 0 l 432 799 l 699 799 l 307 0 m 414 60 l 560 361 l 699 0 l 433 0 l 414 60 z "},"l":{"ha":361,"x_min":56,"x_max":306,"o":"m 306 0 l 56 0 l 56 1015 l 306 1049 l 306 0 z "},"ĺ":{"ha":361,"x_min":56,"x_max":394,"o":"m 306 0 l 56 0 l 56 1015 l 306 1049 l 306 0 m 136 1265 l 394 1265 l 283 1099 l 74 1099 l 136 1265 z "},"ľ":{"ha":647,"x_min":56,"x_max":619,"o":"m 306 0 l 56 0 l 56 1015 l 306 1049 l 306 0 m 390 1060 l 619 1060 l 536 844 l 347 844 l 390 1060 z "},"ļ":{"ha":361,"x_min":33,"x_max":310,"o":"m 306 0 l 56 0 l 56 1015 l 306 1049 l 306 0 m 33 -208 l 72 -51 l 310 -51 l 225 -208 l 33 -208 z "},"ŀ":{"ha":758,"x_min":56,"x_max":672,"o":"m 306 0 l 56 0 l 56 1015 l 306 1049 l 306 0 m 428 560 l 672 560 l 672 331 l 428 331 l 428 560 z "},"ǉ":{"ha":722,"x_min":56,"x_max":674,"o":"m 306 0 l 56 0 l 56 1015 l 306 1049 l 306 0 m 417 799 l 667 799 l 667 -174 l 417 -208 l 417 799 m 410 1049 l 674 1049 l 674 860 l 410 860 l 410 1049 z "},"ł":{"ha":463,"x_min":-4,"x_max":467,"o":"m 357 711 l 107 624 l 107 1015 l 357 1049 l 357 711 m -4 381 l -4 511 l 467 676 l 467 546 l -4 381 m 107 346 l 357 433 l 357 0 l 107 0 l 107 346 z "},"m":{"ha":1071,"x_min":56,"x_max":1022,"o":"m 732 613 l 732 796 q 815 810 772 810 q 964 750 906 810 q 1022 571 1022 690 l 1022 0 l 772 0 l 772 531 q 732 613 772 599 m 664 564 l 664 0 l 414 0 l 414 531 q 375 611 414 597 l 375 796 q 456 810 413 810 q 574 777 528 810 q 642 689 619 744 q 664 564 664 633 m 306 0 l 56 0 l 56 799 l 268 799 l 306 686 l 306 0 z "},"n":{"ha":735,"x_min":56,"x_max":686,"o":"m 375 614 l 375 794 q 464 810 421 810 q 623 750 560 810 q 686 571 686 690 l 686 0 l 436 0 l 436 531 q 375 614 436 606 m 306 692 l 306 0 l 56 0 l 56 799 l 268 799 l 306 692 z "},"ń":{"ha":735,"x_min":56,"x_max":686,"o":"m 375 614 l 375 794 q 464 810 421 810 q 623 750 560 810 q 686 571 686 690 l 686 0 l 436 0 l 436 531 q 375 614 436 606 m 306 692 l 306 0 l 56 0 l 56 799 l 268 799 l 306 692 m 326 1049 l 590 1049 l 465 861 l 256 861 l 326 1049 z "},"ň":{"ha":735,"x_min":56,"x_max":686,"o":"m 375 614 l 375 794 q 464 810 421 810 q 623 750 560 810 q 686 571 686 690 l 686 0 l 436 0 l 436 531 q 375 614 436 606 m 306 692 l 306 0 l 56 0 l 56 799 l 268 799 l 306 692 m 264 897 l 139 1068 l 321 1068 l 349 1035 l 264 897 m 454 1068 l 611 1068 l 460 861 l 325 861 l 454 1068 z "},"ņ":{"ha":735,"x_min":56,"x_max":686,"o":"m 375 614 l 375 794 q 464 810 421 810 q 623 750 560 810 q 686 571 686 690 l 686 0 l 436 0 l 436 531 q 375 614 436 606 m 306 692 l 306 0 l 56 0 l 56 799 l 268 799 l 306 692 m 228 -208 l 267 -51 l 504 -51 l 419 -208 l 228 -208 z "},"ǌ":{"ha":1096,"x_min":56,"x_max":1047,"o":"m 375 614 l 375 794 q 464 810 421 810 q 623 750 560 810 q 686 571 686 690 l 686 0 l 436 0 l 436 531 q 375 614 436 606 m 306 692 l 306 0 l 56 0 l 56 799 l 268 799 l 306 692 m 790 799 l 1040 799 l 1040 -174 l 790 -208 l 790 799 m 783 1049 l 1047 1049 l 1047 860 l 783 860 l 783 1049 z "},"ñ":{"ha":735,"x_min":56,"x_max":686,"o":"m 375 614 l 375 794 q 464 810 421 810 q 623 750 560 810 q 686 571 686 690 l 686 0 l 436 0 l 436 531 q 375 614 436 606 m 306 692 l 306 0 l 56 0 l 56 799 l 268 799 l 306 692 m 569 1056 q 574 1027 572 1042 q 576 999 576 1013 q 544 898 576 939 q 444 857 511 857 q 392 869 417 857 q 347 894 367 882 q 313 906 326 906 q 288 894 294 906 q 281 868 281 883 l 182 868 q 177 897 179 883 q 175 925 175 911 q 208 1026 175 986 q 307 1067 240 1067 q 360 1055 335 1067 q 405 1031 385 1043 q 439 1018 425 1018 q 465 1029 458 1018 q 471 1056 471 1040 l 569 1056 z "},"ŋ":{"ha":735,"x_min":56,"x_max":686,"o":"m 436 531 q 360 615 436 615 q 306 600 329 615 l 306 0 l 56 0 l 56 799 l 268 799 l 286 744 q 464 810 368 810 q 623 750 560 810 q 686 571 686 690 l 686 22 q 642 -127 686 -74 q 529 -201 599 -181 q 379 -222 460 -222 q 350 -222 365 -222 q 319 -219 335 -221 l 319 -117 q 402 -97 368 -117 q 436 -25 436 -76 l 436 531 z "},"o":{"ha":742,"x_min":28,"x_max":714,"o":"m 406 -12 l 406 192 q 456 397 456 225 q 406 604 456 574 l 406 808 q 643 705 572 801 q 714 399 714 608 q 643 92 714 189 q 406 -12 572 -4 m 336 190 l 336 -12 q 99 92 169 -4 q 28 399 28 189 q 99 704 28 608 q 336 808 169 800 l 336 606 q 298 539 310 589 q 286 397 286 489 q 336 190 286 221 z "},"ó":{"ha":742,"x_min":28,"x_max":714,"o":"m 406 -12 l 406 192 q 456 397 456 225 q 406 604 456 574 l 406 808 q 643 705 572 801 q 714 399 714 608 q 643 92 714 189 q 406 -12 572 -4 m 336 190 l 336 -12 q 99 92 169 -4 q 28 399 28 189 q 99 704 28 608 q 336 808 169 800 l 336 606 q 298 539 310 589 q 286 397 286 489 q 336 190 286 221 m 322 1049 l 586 1049 l 461 861 l 251 861 l 322 1049 z "},"ŏ":{"ha":742,"x_min":28,"x_max":714,"o":"m 406 -12 l 406 192 q 456 397 456 225 q 406 604 456 574 l 406 808 q 643 705 572 801 q 714 399 714 608 q 643 92 714 189 q 406 -12 572 -4 m 336 190 l 336 -12 q 99 92 169 -4 q 28 399 28 189 q 99 704 28 608 q 336 808 169 800 l 336 606 q 298 539 310 589 q 286 397 286 489 q 336 190 286 221 m 582 1081 q 582 1059 582 1069 q 581 1038 582 1049 q 522 899 572 947 q 374 851 472 851 q 209 909 260 851 q 158 1081 158 967 l 267 1081 q 369 1014 288 1014 q 439 1030 414 1014 q 474 1081 464 1046 l 582 1081 z "},"ô":{"ha":742,"x_min":28,"x_max":714,"o":"m 406 -12 l 406 192 q 456 397 456 225 q 406 604 456 574 l 406 808 q 643 705 572 801 q 714 399 714 608 q 643 92 714 189 q 406 -12 572 -4 m 336 190 l 336 -12 q 99 92 169 -4 q 28 399 28 189 q 99 704 28 608 q 336 808 169 800 l 336 606 q 298 539 310 589 q 286 397 286 489 q 336 190 286 221 m 450 861 l 321 1068 l 456 1068 l 607 861 l 450 861 m 260 1032 l 344 894 l 317 861 l 135 861 l 260 1032 z "},"ố":{"ha":742,"x_min":28,"x_max":714,"o":"m 406 -12 l 406 192 q 456 397 456 225 q 406 604 456 574 l 406 808 q 643 705 572 801 q 714 399 714 608 q 643 92 714 189 q 406 -12 572 -4 m 336 190 l 336 -12 q 99 92 169 -4 q 28 399 28 189 q 99 704 28 608 q 336 808 169 800 l 336 606 q 298 539 310 589 q 286 397 286 489 q 336 190 286 221 m 450 861 l 321 1068 l 456 1068 l 607 861 l 450 861 m 260 1032 l 344 894 l 317 861 l 135 861 l 260 1032 m 322 1307 l 586 1307 l 461 1119 l 251 1119 l 322 1307 z "},"ộ":{"ha":742,"x_min":28,"x_max":714,"o":"m 406 -12 l 406 192 q 456 397 456 225 q 406 604 456 574 l 406 808 q 643 705 572 801 q 714 399 714 608 q 643 92 714 189 q 406 -12 572 -4 m 336 190 l 336 -12 q 99 92 169 -4 q 28 399 28 189 q 99 704 28 608 q 336 808 169 800 l 336 606 q 298 539 310 589 q 286 397 286 489 q 336 190 286 221 m 239 -64 l 503 -64 l 503 -253 l 239 -253 l 239 -64 m 450 861 l 321 1068 l 456 1068 l 607 861 l 450 861 m 260 1032 l 344 894 l 317 861 l 135 861 l 260 1032 z "},"ồ":{"ha":742,"x_min":28,"x_max":714,"o":"m 406 -12 l 406 192 q 456 397 456 225 q 406 604 456 574 l 406 808 q 643 705 572 801 q 714 399 714 608 q 643 92 714 189 q 406 -12 572 -4 m 336 190 l 336 -12 q 99 92 169 -4 q 28 399 28 189 q 99 704 28 608 q 336 808 169 800 l 336 606 q 298 539 310 589 q 286 397 286 489 q 336 190 286 221 m 450 861 l 321 1068 l 456 1068 l 607 861 l 450 861 m 260 1032 l 344 894 l 317 861 l 135 861 l 260 1032 m 514 1119 l 304 1119 l 179 1307 l 443 1307 l 514 1119 z "},"ổ":{"ha":742,"x_min":28,"x_max":744,"o":"m 406 -12 l 406 192 q 456 397 456 225 q 406 604 456 574 l 406 808 q 643 705 572 801 q 714 399 714 608 q 643 92 714 189 q 406 -12 572 -4 m 336 190 l 336 -12 q 99 92 169 -4 q 28 399 28 189 q 99 704 28 608 q 336 808 169 800 l 336 606 q 298 539 310 589 q 286 397 286 489 q 336 190 286 221 m 450 861 l 321 1068 l 456 1068 l 607 861 l 450 861 m 260 1032 l 344 894 l 317 861 l 135 861 l 260 1032 m 589 990 l 529 1063 q 572 1102 560 1078 q 574 1146 585 1126 q 526 1165 564 1165 q 485 1162 506 1165 q 454 1154 465 1158 l 464 1274 q 574 1292 515 1292 q 678 1266 639 1292 q 731 1201 717 1240 q 733 1119 744 1161 q 686 1041 722 1076 q 589 990 650 1006 z "},"ỗ":{"ha":742,"x_min":28,"x_max":714,"o":"m 406 -12 l 406 192 q 456 397 456 225 q 406 604 456 574 l 406 808 q 643 705 572 801 q 714 399 714 608 q 643 92 714 189 q 406 -12 572 -4 m 336 190 l 336 -12 q 99 92 169 -4 q 28 399 28 189 q 99 704 28 608 q 336 808 169 800 l 336 606 q 298 539 310 589 q 286 397 286 489 q 336 190 286 221 m 450 861 l 321 1068 l 456 1068 l 607 861 l 450 861 m 260 1032 l 344 894 l 317 861 l 135 861 l 260 1032 m 565 1314 q 570 1285 568 1300 q 572 1257 572 1271 q 540 1156 572 1197 q 440 1115 507 1115 q 388 1128 413 1115 q 342 1152 363 1140 q 308 1164 322 1164 q 283 1153 290 1164 q 276 1126 276 1142 l 178 1126 q 173 1156 175 1142 q 171 1183 171 1169 q 203 1285 171 1244 q 303 1325 236 1325 q 356 1313 331 1325 q 401 1289 381 1301 q 435 1276 421 1276 q 460 1288 454 1276 q 467 1314 467 1299 l 565 1314 z "},"ȍ":{"ha":742,"x_min":-24,"x_max":714,"o":"m 406 -12 l 406 192 q 456 397 456 225 q 406 604 456 574 l 406 808 q 643 705 572 801 q 714 399 714 608 q 643 92 714 189 q 406 -12 572 -4 m 336 190 l 336 -12 q 99 92 169 -4 q 28 399 28 189 q 99 704 28 608 q 336 808 169 800 l 336 606 q 298 539 310 589 q 286 397 286 489 q 336 190 286 221 m 524 1049 l 594 861 l 385 861 l 288 1049 l 524 1049 m 213 1049 l 311 861 l 101 861 l -24 1049 l 213 1049 z "},"ö":{"ha":742,"x_min":28,"x_max":714,"o":"m 406 -12 l 406 192 q 456 397 456 225 q 406 604 456 574 l 406 808 q 643 705 572 801 q 714 399 714 608 q 643 92 714 189 q 406 -12 572 -4 m 336 190 l 336 -12 q 99 92 169 -4 q 28 399 28 189 q 99 704 28 608 q 336 808 169 800 l 336 606 q 298 539 310 589 q 286 397 286 489 q 336 190 286 221 m 118 1049 l 340 1049 l 340 860 l 118 860 l 118 1049 m 401 1049 l 624 1049 l 624 860 l 401 860 l 401 1049 z "},"ȫ":{"ha":742,"x_min":28,"x_max":714,"o":"m 406 -12 l 406 192 q 456 397 456 225 q 406 604 456 574 l 406 808 q 643 705 572 801 q 714 399 714 608 q 643 92 714 189 q 406 -12 572 -4 m 336 190 l 336 -12 q 99 92 169 -4 q 28 399 28 189 q 99 704 28 608 q 336 808 169 800 l 336 606 q 298 539 310 589 q 286 397 286 489 q 336 190 286 221 m 118 1049 l 340 1049 l 340 860 l 118 860 l 118 1049 m 401 1049 l 624 1049 l 624 860 l 401 860 l 401 1049 m 165 1283 l 576 1283 l 576 1119 l 165 1119 l 165 1283 z "},"ȱ":{"ha":742,"x_min":28,"x_max":714,"o":"m 406 -12 l 406 192 q 456 397 456 225 q 406 604 456 574 l 406 808 q 643 705 572 801 q 714 399 714 608 q 643 92 714 189 q 406 -12 572 -4 m 336 190 l 336 -12 q 99 92 169 -4 q 28 399 28 189 q 99 704 28 608 q 336 808 169 800 l 336 606 q 298 539 310 589 q 286 397 286 489 q 336 190 286 221 m 239 1049 l 503 1049 l 503 860 l 239 860 l 239 1049 m 165 1283 l 576 1283 l 576 1119 l 165 1119 l 165 1283 z "},"ọ":{"ha":742,"x_min":28,"x_max":714,"o":"m 406 -12 l 406 192 q 456 397 456 225 q 406 604 456 574 l 406 808 q 643 705 572 801 q 714 399 714 608 q 643 92 714 189 q 406 -12 572 -4 m 336 190 l 336 -12 q 99 92 169 -4 q 28 399 28 189 q 99 704 28 608 q 336 808 169 800 l 336 606 q 298 539 310 589 q 286 397 286 489 q 336 190 286 221 m 239 -64 l 503 -64 l 503 -253 l 239 -253 l 239 -64 z "},"ò":{"ha":742,"x_min":28,"x_max":714,"o":"m 406 -12 l 406 192 q 456 397 456 225 q 406 604 456 574 l 406 808 q 643 705 572 801 q 714 399 714 608 q 643 92 714 189 q 406 -12 572 -4 m 336 190 l 336 -12 q 99 92 169 -4 q 28 399 28 189 q 99 704 28 608 q 336 808 169 800 l 336 606 q 298 539 310 589 q 286 397 286 489 q 336 190 286 221 m 514 861 l 304 861 l 179 1049 l 443 1049 l 514 861 z "},"ỏ":{"ha":742,"x_min":28,"x_max":714,"o":"m 406 -12 l 406 192 q 456 397 456 225 q 406 604 456 574 l 406 808 q 643 705 572 801 q 714 399 714 608 q 643 92 714 189 q 406 -12 572 -4 m 336 190 l 336 -12 q 99 92 169 -4 q 28 399 28 189 q 99 704 28 608 q 336 808 169 800 l 336 606 q 298 539 310 589 q 286 397 286 489 q 336 190 286 221 m 364 844 l 304 917 q 347 956 335 932 q 349 1000 360 981 q 301 1019 339 1019 q 260 1016 281 1019 q 229 1008 240 1013 l 239 1128 q 349 1146 290 1146 q 453 1120 414 1146 q 506 1055 492 1094 q 508 973 519 1015 q 461 895 497 931 q 364 844 425 860 z "},"ơ":{"ha":742,"x_min":28,"x_max":854,"o":"m 643 894 l 643 994 l 854 994 l 854 899 q 816 693 854 756 q 686 618 778 631 q 708 520 701 575 q 714 399 714 465 q 643 92 714 189 q 406 -12 572 -4 l 406 192 q 456 397 456 225 q 406 604 456 574 l 406 808 l 575 808 q 643 894 643 808 m 28 399 q 99 704 28 608 q 336 808 169 800 l 336 606 q 298 539 310 589 q 286 397 286 489 q 336 190 286 221 l 336 -12 q 99 92 169 -4 q 28 399 28 189 z "},"ớ":{"ha":742,"x_min":28,"x_max":854,"o":"m 643 894 l 643 994 l 854 994 l 854 899 q 816 693 854 756 q 686 618 778 631 q 708 520 701 575 q 714 399 714 465 q 643 92 714 189 q 406 -12 572 -4 l 406 192 q 456 397 456 225 q 406 604 456 574 l 406 808 l 575 808 q 643 894 643 808 m 28 399 q 99 704 28 608 q 336 808 169 800 l 336 606 q 298 539 310 589 q 286 397 286 489 q 336 190 286 221 l 336 -12 q 99 92 169 -4 q 28 399 28 189 m 322 1049 l 586 1049 l 461 861 l 251 861 l 322 1049 z "},"ợ":{"ha":742,"x_min":28,"x_max":854,"o":"m 643 894 l 643 994 l 854 994 l 854 899 q 816 693 854 756 q 686 618 778 631 q 708 520 701 575 q 714 399 714 465 q 643 92 714 189 q 406 -12 572 -4 l 406 192 q 456 397 456 225 q 406 604 456 574 l 406 808 l 575 808 q 643 894 643 808 m 28 399 q 99 704 28 608 q 336 808 169 800 l 336 606 q 298 539 310 589 q 286 397 286 489 q 336 190 286 221 l 336 -12 q 99 92 169 -4 q 28 399 28 189 m 239 -64 l 503 -64 l 503 -253 l 239 -253 l 239 -64 z "},"ờ":{"ha":742,"x_min":28,"x_max":854,"o":"m 643 894 l 643 994 l 854 994 l 854 899 q 816 693 854 756 q 686 618 778 631 q 708 520 701 575 q 714 399 714 465 q 643 92 714 189 q 406 -12 572 -4 l 406 192 q 456 397 456 225 q 406 604 456 574 l 406 808 l 575 808 q 643 894 643 808 m 28 399 q 99 704 28 608 q 336 808 169 800 l 336 606 q 298 539 310 589 q 286 397 286 489 q 336 190 286 221 l 336 -12 q 99 92 169 -4 q 28 399 28 189 m 514 861 l 304 861 l 179 1049 l 443 1049 l 514 861 z "},"ở":{"ha":742,"x_min":28,"x_max":854,"o":"m 643 894 l 643 994 l 854 994 l 854 899 q 816 693 854 756 q 686 618 778 631 q 708 520 701 575 q 714 399 714 465 q 643 92 714 189 q 406 -12 572 -4 l 406 192 q 456 397 456 225 q 406 604 456 574 l 406 808 l 575 808 q 643 894 643 808 m 28 399 q 99 704 28 608 q 336 808 169 800 l 336 606 q 298 539 310 589 q 286 397 286 489 q 336 190 286 221 l 336 -12 q 99 92 169 -4 q 28 399 28 189 m 364 844 l 304 917 q 347 956 335 932 q 349 1000 360 981 q 301 1019 339 1019 q 260 1016 281 1019 q 229 1008 240 1013 l 239 1128 q 349 1146 290 1146 q 453 1120 414 1146 q 506 1055 492 1094 q 508 973 519 1015 q 461 895 497 931 q 364 844 425 860 z "},"ỡ":{"ha":742,"x_min":28,"x_max":854,"o":"m 643 894 l 643 994 l 854 994 l 854 899 q 816 693 854 756 q 686 618 778 631 q 708 520 701 575 q 714 399 714 465 q 643 92 714 189 q 406 -12 572 -4 l 406 192 q 456 397 456 225 q 406 604 456 574 l 406 808 l 575 808 q 643 894 643 808 m 28 399 q 99 704 28 608 q 336 808 169 800 l 336 606 q 298 539 310 589 q 286 397 286 489 q 336 190 286 221 l 336 -12 q 99 92 169 -4 q 28 399 28 189 m 565 1056 q 570 1027 568 1042 q 572 999 572 1013 q 540 898 572 939 q 440 857 507 857 q 388 869 413 857 q 342 894 363 882 q 308 906 322 906 q 283 894 290 906 q 276 868 276 883 l 178 868 q 173 897 175 883 q 171 925 171 911 q 203 1026 171 986 q 303 1067 236 1067 q 356 1055 331 1067 q 401 1031 381 1043 q 435 1018 421 1018 q 460 1029 454 1018 q 467 1056 467 1040 l 565 1056 z "},"ő":{"ha":742,"x_min":28,"x_max":742,"o":"m 406 -12 l 406 192 q 456 397 456 225 q 406 604 456 574 l 406 808 q 643 705 572 801 q 714 399 714 608 q 643 92 714 189 q 406 -12 572 -4 m 336 190 l 336 -12 q 99 92 169 -4 q 28 399 28 189 q 99 704 28 608 q 336 808 169 800 l 336 606 q 298 539 310 589 q 286 397 286 489 q 336 190 286 221 m 194 1049 l 431 1049 l 333 861 l 124 861 l 194 1049 m 506 1049 l 742 1049 l 617 861 l 407 861 l 506 1049 z "},"ȏ":{"ha":742,"x_min":28,"x_max":714,"o":"m 406 -12 l 406 192 q 456 397 456 225 q 406 604 456 574 l 406 808 q 643 705 572 801 q 714 399 714 608 q 643 92 714 189 q 406 -12 572 -4 m 336 190 l 336 -12 q 99 92 169 -4 q 28 399 28 189 q 99 704 28 608 q 336 808 169 800 l 336 606 q 298 539 310 589 q 286 397 286 489 q 336 190 286 221 m 582 851 l 474 851 q 439 902 464 886 q 369 918 414 918 q 267 851 288 918 l 158 851 q 209 1023 158 965 q 374 1081 260 1081 q 522 1033 472 1081 q 581 894 572 985 q 582 874 582 885 q 582 851 582 863 z "},"ō":{"ha":742,"x_min":28,"x_max":714,"o":"m 406 -12 l 406 192 q 456 397 456 225 q 406 604 456 574 l 406 808 q 643 705 572 801 q 714 399 714 608 q 643 92 714 189 q 406 -12 572 -4 m 336 190 l 336 -12 q 99 92 169 -4 q 28 399 28 189 q 99 704 28 608 q 336 808 169 800 l 336 606 q 298 539 310 589 q 286 397 286 489 q 336 190 286 221 m 165 1049 l 576 1049 l 576 885 l 165 885 l 165 1049 z "},"ǫ":{"ha":742,"x_min":28,"x_max":714,"o":"m 406 -12 l 406 192 q 456 397 456 225 q 406 604 456 574 l 406 808 q 643 705 572 801 q 714 399 714 608 q 643 92 714 189 q 406 -12 572 -4 m 336 190 l 336 -12 q 99 92 169 -4 q 28 399 28 189 q 99 704 28 608 q 336 808 169 800 l 336 606 q 298 539 310 589 q 286 397 286 489 q 336 190 286 221 m 307 -71 l 468 -71 q 542 -104 479 -115 l 542 -212 q 503 -219 522 -217 q 465 -222 483 -222 q 333 -176 372 -222 q 307 -71 294 -131 z "},"ø":{"ha":742,"x_min":28,"x_max":714,"o":"m 150 -118 l 50 -61 l 590 896 l 689 839 l 150 -118 m 76 126 q 28 399 28 219 q 62 636 28 546 q 172 768 96 726 q 371 810 247 810 q 417 808 394 810 q 460 804 439 807 l 350 611 q 292 510 306 599 l 76 126 m 371 -14 q 292 -10 328 -14 l 401 189 q 446 268 433 204 l 668 665 q 703 547 693 614 q 714 399 714 479 q 680 160 714 251 q 571 28 646 69 q 371 -14 496 -14 z "},"ǿ":{"ha":742,"x_min":28,"x_max":714,"o":"m 150 -118 l 50 -61 l 590 896 l 689 839 l 150 -118 m 76 126 q 28 399 28 219 q 62 636 28 546 q 172 768 96 726 q 371 810 247 810 q 417 808 394 810 q 460 804 439 807 l 350 611 q 292 510 306 599 l 76 126 m 371 -14 q 292 -10 328 -14 l 401 189 q 446 268 433 204 l 668 665 q 703 547 693 614 q 714 399 714 479 q 680 160 714 251 q 571 28 646 69 q 371 -14 496 -14 m 322 1049 l 586 1049 l 461 861 l 251 861 l 322 1049 z "},"õ":{"ha":742,"x_min":28,"x_max":714,"o":"m 406 -12 l 406 192 q 456 397 456 225 q 406 604 456 574 l 406 808 q 643 705 572 801 q 714 399 714 608 q 643 92 714 189 q 406 -12 572 -4 m 336 190 l 336 -12 q 99 92 169 -4 q 28 399 28 189 q 99 704 28 608 q 336 808 169 800 l 336 606 q 298 539 310 589 q 286 397 286 489 q 336 190 286 221 m 565 1056 q 570 1027 568 1042 q 572 999 572 1013 q 540 898 572 939 q 440 857 507 857 q 388 869 413 857 q 342 894 363 882 q 308 906 322 906 q 283 894 290 906 q 276 868 276 883 l 178 868 q 173 897 175 883 q 171 925 171 911 q 203 1026 171 986 q 303 1067 236 1067 q 356 1055 331 1067 q 401 1031 381 1043 q 435 1018 421 1018 q 460 1029 454 1018 q 467 1056 467 1040 l 565 1056 z "},"ȭ":{"ha":742,"x_min":28,"x_max":714,"o":"m 406 -12 l 406 192 q 456 397 456 225 q 406 604 456 574 l 406 808 q 643 705 572 801 q 714 399 714 608 q 643 92 714 189 q 406 -12 572 -4 m 336 190 l 336 -12 q 99 92 169 -4 q 28 399 28 189 q 99 704 28 608 q 336 808 169 800 l 336 606 q 298 539 310 589 q 286 397 286 489 q 336 190 286 221 m 565 1056 q 570 1027 568 1042 q 572 999 572 1013 q 540 898 572 939 q 440 857 507 857 q 388 869 413 857 q 342 894 363 882 q 308 906 322 906 q 283 894 290 906 q 276 868 276 883 l 178 868 q 173 897 175 883 q 171 925 171 911 q 203 1026 171 986 q 303 1067 236 1067 q 356 1055 331 1067 q 401 1031 381 1043 q 435 1018 421 1018 q 460 1029 454 1018 q 467 1056 467 1040 l 565 1056 m 165 1283 l 576 1283 l 576 1119 l 165 1119 l 165 1283 z "},"œ":{"ha":1057,"x_min":28,"x_max":1036,"o":"m 721 808 l 721 604 q 698 538 707 583 q 689 406 689 492 q 703 270 689 319 q 751 201 717 221 q 849 181 786 181 q 917 185 879 181 q 1001 199 956 190 l 1001 10 q 903 -7 954 0 q 801 -14 853 -14 q 678 1 738 -14 q 572 54 618 15 q 404 -14 511 -6 l 404 189 q 444 252 432 204 q 456 397 456 300 q 444 544 456 494 q 404 607 432 593 l 404 810 q 499 797 457 807 q 574 763 542 786 q 642 794 606 782 q 721 808 678 807 m 788 603 l 788 808 q 916 770 867 801 q 991 692 965 739 q 1026 589 1017 644 q 1036 476 1036 533 q 1032 397 1036 438 q 1021 322 1028 356 l 758 322 l 758 476 l 804 476 q 801 544 804 508 q 788 603 799 579 m 335 808 l 335 604 q 298 541 310 589 q 286 399 286 493 q 298 256 286 306 q 335 192 310 207 l 335 -14 q 163 32 232 -8 q 61 161 94 72 q 28 399 28 250 q 61 635 28 547 q 163 764 94 724 q 335 808 232 804 z "},"p":{"ha":747,"x_min":56,"x_max":719,"o":"m 375 615 l 375 794 q 464 810 418 810 q 590 777 540 810 q 667 688 639 744 q 708 559 696 631 q 719 408 719 488 q 649 83 719 181 q 442 -14 578 -14 q 410 -12 426 -14 q 375 -7 393 -10 l 375 181 q 446 246 431 188 q 461 415 461 304 q 444 570 461 525 q 382 615 428 615 l 375 615 m 306 690 l 306 -172 l 56 -208 l 56 799 l 268 799 l 306 690 z "},"þ":{"ha":747,"x_min":56,"x_max":719,"o":"m 306 1049 l 306 -172 l 56 -208 l 56 1015 l 306 1049 m 375 615 l 375 794 q 464 810 418 810 q 590 777 540 810 q 667 688 639 744 q 708 559 696 631 q 719 408 719 488 q 649 83 719 181 q 442 -14 578 -14 q 410 -12 426 -14 q 375 -7 393 -10 l 375 181 q 446 246 431 188 q 461 415 461 304 q 444 570 461 525 q 382 615 428 615 l 375 615 z "},"q":{"ha":747,"x_min":28,"x_max":692,"o":"m 692 606 l 443 606 q 351 590 386 606 q 301 525 317 574 q 286 378 286 476 q 303 223 286 268 q 365 178 319 178 l 374 178 l 374 0 q 283 -17 332 -17 q 158 16 207 -17 q 80 106 108 49 q 40 234 51 163 q 28 385 28 306 q 76 631 28 538 q 214 765 124 724 q 429 807 304 807 q 574 805 515 807 q 692 789 633 803 l 692 606 m 442 543 l 692 543 l 692 -217 l 442 -253 l 442 543 z "},"r":{"ha":540,"x_min":56,"x_max":519,"o":"m 358 558 l 358 776 q 519 803 422 821 l 519 569 q 440 567 481 569 q 358 558 399 564 m 306 0 l 56 0 l 56 799 l 268 799 l 306 692 l 306 0 z "},"ŕ":{"ha":540,"x_min":56,"x_max":521,"o":"m 358 558 l 358 776 q 519 803 422 821 l 519 569 q 440 567 481 569 q 358 558 399 564 m 306 0 l 56 0 l 56 799 l 268 799 l 306 692 l 306 0 m 257 1049 l 521 1049 l 396 861 l 186 861 l 257 1049 z "},"ř":{"ha":540,"x_min":56,"x_max":542,"o":"m 358 558 l 358 776 q 519 803 422 821 l 519 569 q 440 567 481 569 q 358 558 399 564 m 306 0 l 56 0 l 56 799 l 268 799 l 306 692 l 306 0 m 194 897 l 69 1068 l 251 1068 l 279 1035 l 194 897 m 385 1068 l 542 1068 l 390 861 l 256 861 l 385 1068 z "},"ŗ":{"ha":540,"x_min":25,"x_max":519,"o":"m 358 558 l 358 776 q 519 803 422 821 l 519 569 q 440 567 481 569 q 358 558 399 564 m 306 0 l 56 0 l 56 799 l 268 799 l 306 692 l 306 0 m 25 -208 l 64 -51 l 301 -51 l 217 -208 l 25 -208 z "},"ȑ":{"ha":540,"x_min":-89,"x_max":529,"o":"m 358 558 l 358 776 q 519 803 422 821 l 519 569 q 440 567 481 569 q 358 558 399 564 m 306 0 l 56 0 l 56 799 l 268 799 l 306 692 l 306 0 m 458 1049 l 529 861 l 319 861 l 222 1049 l 458 1049 m 147 1049 l 246 861 l 36 861 l -89 1049 l 147 1049 z "},"ȓ":{"ha":540,"x_min":56,"x_max":519,"o":"m 358 558 l 358 776 q 519 803 422 821 l 519 569 q 440 567 481 569 q 358 558 399 564 m 306 0 l 56 0 l 56 799 l 268 799 l 306 692 l 306 0 m 517 851 l 408 851 q 374 902 399 886 q 304 918 349 918 q 201 851 222 918 l 93 851 q 144 1023 93 965 q 308 1081 194 1081 q 457 1033 407 1081 q 515 894 507 985 q 517 874 517 885 q 517 851 517 863 z "},"s":{"ha":596,"x_min":28,"x_max":568,"o":"m 338 522 l 211 322 l 158 357 q 64 450 93 400 q 35 581 35 500 q 103 752 35 696 q 326 810 171 808 q 434 805 385 810 q 513 794 483 800 q 543 789 543 789 l 522 604 q 501 607 522 604 q 448 613 481 610 q 381 617 415 617 q 308 608 331 617 q 286 576 286 600 q 294 553 286 563 q 321 533 303 544 l 338 522 m 269 285 l 397 483 l 443 454 q 539 362 510 411 q 568 235 568 313 q 497 49 568 111 q 265 -14 426 -12 q 135 -6 194 -14 q 28 14 76 1 l 49 203 q 100 195 49 203 q 236 188 151 188 q 313 233 313 188 q 278 279 313 257 l 269 285 z "},"ś":{"ha":596,"x_min":28,"x_max":568,"o":"m 338 522 l 211 322 l 158 357 q 64 450 93 400 q 35 581 35 500 q 103 752 35 696 q 326 810 171 808 q 434 805 385 810 q 513 794 483 800 q 543 789 543 789 l 522 604 q 501 607 522 604 q 448 613 481 610 q 381 617 415 617 q 308 608 331 617 q 286 576 286 600 q 294 553 286 563 q 321 533 303 544 l 338 522 m 269 285 l 397 483 l 443 454 q 539 362 510 411 q 568 235 568 313 q 497 49 568 111 q 265 -14 426 -12 q 135 -6 194 -14 q 28 14 76 1 l 49 203 q 100 195 49 203 q 236 188 151 188 q 313 233 313 188 q 278 279 313 257 l 269 285 m 278 1049 l 542 1049 l 417 861 l 207 861 l 278 1049 z "},"š":{"ha":596,"x_min":28,"x_max":568,"o":"m 338 522 l 211 322 l 158 357 q 64 450 93 400 q 35 581 35 500 q 103 752 35 696 q 326 810 171 808 q 434 805 385 810 q 513 794 483 800 q 543 789 543 789 l 522 604 q 501 607 522 604 q 448 613 481 610 q 381 617 415 617 q 308 608 331 617 q 286 576 286 600 q 294 553 286 563 q 321 533 303 544 l 338 522 m 269 285 l 397 483 l 443 454 q 539 362 510 411 q 568 235 568 313 q 497 49 568 111 q 265 -14 426 -12 q 135 -6 194 -14 q 28 14 76 1 l 49 203 q 100 195 49 203 q 236 188 151 188 q 313 233 313 188 q 278 279 313 257 l 269 285 m 215 897 l 90 1068 l 272 1068 l 300 1035 l 215 897 m 406 1068 l 563 1068 l 411 861 l 276 861 l 406 1068 z "},"ş":{"ha":596,"x_min":28,"x_max":568,"o":"m 338 522 l 211 322 l 158 357 q 64 450 93 400 q 35 581 35 500 q 103 752 35 696 q 326 810 171 808 q 434 805 385 810 q 513 794 483 800 q 543 789 543 789 l 522 604 q 501 607 522 604 q 448 613 481 610 q 381 617 415 617 q 308 608 331 617 q 286 576 286 600 q 294 553 286 563 q 321 533 303 544 l 338 522 m 269 285 l 397 483 l 443 454 q 539 362 510 411 q 568 235 568 313 q 497 49 568 111 q 265 -14 426 -12 q 135 -6 194 -14 q 28 14 76 1 l 49 203 q 100 195 49 203 q 236 188 151 188 q 313 233 313 188 q 278 279 313 257 l 269 285 m 203 -69 l 360 -69 l 360 -81 q 310 -191 360 -160 q 194 -222 261 -222 q 145 -221 172 -222 q 88 -214 118 -219 l 88 -100 q 117 -104 101 -101 q 146 -107 132 -107 q 203 -69 190 -107 z "},"ŝ":{"ha":596,"x_min":28,"x_max":568,"o":"m 338 522 l 211 322 l 158 357 q 64 450 93 400 q 35 581 35 500 q 103 752 35 696 q 326 810 171 808 q 434 805 385 810 q 513 794 483 800 q 543 789 543 789 l 522 604 q 501 607 522 604 q 448 613 481 610 q 381 617 415 617 q 308 608 331 617 q 286 576 286 600 q 294 553 286 563 q 321 533 303 544 l 338 522 m 269 285 l 397 483 l 443 454 q 539 362 510 411 q 568 235 568 313 q 497 49 568 111 q 265 -14 426 -12 q 135 -6 194 -14 q 28 14 76 1 l 49 203 q 100 195 49 203 q 236 188 151 188 q 313 233 313 188 q 278 279 313 257 l 269 285 m 406 861 l 276 1068 l 411 1068 l 563 861 l 406 861 m 215 1032 l 300 894 l 272 861 l 90 861 l 215 1032 z "},"ș":{"ha":596,"x_min":28,"x_max":568,"o":"m 338 522 l 211 322 l 158 357 q 64 450 93 400 q 35 581 35 500 q 103 752 35 696 q 326 810 171 808 q 434 805 385 810 q 513 794 483 800 q 543 789 543 789 l 522 604 q 501 607 522 604 q 448 613 481 610 q 381 617 415 617 q 308 608 331 617 q 286 576 286 600 q 294 553 286 563 q 321 533 303 544 l 338 522 m 269 285 l 397 483 l 443 454 q 539 362 510 411 q 568 235 568 313 q 497 49 568 111 q 265 -14 426 -12 q 135 -6 194 -14 q 28 14 76 1 l 49 203 q 100 195 49 203 q 236 188 151 188 q 313 233 313 188 q 278 279 313 257 l 269 285 m 118 -208 l 157 -51 l 394 -51 l 310 -208 l 118 -208 z "},"ß":{"ha":931,"x_min":56,"x_max":903,"o":"m 414 1060 l 414 888 q 330 850 354 882 q 306 758 306 818 l 306 0 l 56 0 l 56 778 q 138 984 56 914 q 414 1060 219 1054 m 675 521 l 546 322 l 493 357 q 399 450 428 400 q 369 581 369 500 q 390 663 369 632 q 440 711 410 693 q 499 743 469 729 q 558 777 533 760 q 583 826 583 794 q 481 888 583 881 l 481 1060 q 760 997 674 1056 q 846 824 846 938 q 819 719 846 758 q 753 659 792 681 q 682 624 715 638 q 638 603 656 613 q 621 579 621 593 q 656 533 621 556 l 675 521 m 604 285 l 735 482 l 778 454 q 874 362 844 411 q 903 235 903 313 q 832 49 903 111 q 600 -14 761 -12 q 470 -6 529 -14 q 363 14 411 1 l 383 203 q 435 195 383 203 q 571 188 486 188 q 647 233 647 188 q 613 279 647 257 l 604 285 z "},"t":{"ha":547,"x_min":14,"x_max":519,"o":"m 14 611 l 14 799 l 118 799 l 118 974 l 368 974 l 368 799 l 519 799 l 519 611 l 14 611 m 118 554 l 368 554 l 368 265 q 388 208 368 226 q 453 190 408 190 q 492 192 475 190 q 519 197 508 194 l 519 13 q 449 -6 486 1 q 375 -14 413 -14 q 183 41 247 -14 q 118 238 118 96 l 118 554 z "},"ŧ":{"ha":547,"x_min":14,"x_max":519,"o":"m 14 611 l 14 799 l 118 799 l 118 974 l 368 974 l 368 799 l 519 799 l 519 611 l 14 611 m 14 390 l 14 522 l 118 522 l 118 554 l 368 554 l 368 522 l 518 522 l 518 390 l 368 390 l 368 265 q 388 208 368 226 q 453 190 408 190 q 492 192 475 190 q 519 197 508 194 l 519 13 q 449 -6 486 1 q 375 -14 413 -14 q 183 41 247 -14 q 118 238 118 96 l 118 390 l 14 390 z "},"ť":{"ha":733,"x_min":14,"x_max":706,"o":"m 14 611 l 14 799 l 118 799 l 118 974 l 368 974 l 368 799 l 519 799 l 519 611 l 14 611 m 118 554 l 368 554 l 368 265 q 388 208 368 226 q 453 190 408 190 q 492 192 475 190 q 519 197 508 194 l 519 13 q 449 -6 486 1 q 375 -14 413 -14 q 183 41 247 -14 q 118 238 118 96 l 118 554 m 476 1101 l 706 1101 l 622 886 l 433 886 l 476 1101 z "},"ţ":{"ha":547,"x_min":14,"x_max":519,"o":"m 14 611 l 14 799 l 118 799 l 118 974 l 368 974 l 368 799 l 519 799 l 519 611 l 14 611 m 118 554 l 368 554 l 368 265 q 388 208 368 226 q 453 190 408 190 q 492 192 475 190 q 519 197 508 194 l 519 13 q 449 -6 486 1 q 375 -14 413 -14 q 183 41 247 -14 q 118 238 118 96 l 118 554 m 247 -69 l 404 -69 l 404 -81 q 355 -191 404 -160 q 239 -222 306 -222 q 190 -221 217 -222 q 132 -214 163 -219 l 132 -100 q 161 -104 146 -101 q 190 -107 176 -107 q 247 -69 235 -107 z "},"ț":{"ha":547,"x_min":14,"x_max":519,"o":"m 14 611 l 14 799 l 118 799 l 118 974 l 368 974 l 368 799 l 519 799 l 519 611 l 14 611 m 118 554 l 368 554 l 368 265 q 388 208 368 226 q 453 190 408 190 q 492 192 475 190 q 519 197 508 194 l 519 13 q 449 -6 486 1 q 375 -14 413 -14 q 183 41 247 -14 q 118 238 118 96 l 118 554 m 182 -208 l 221 -51 l 458 -51 l 374 -208 l 182 -208 z "},"u":{"ha":721,"x_min":49,"x_max":665,"o":"m 360 185 l 360 4 q 271 -11 314 -11 q 112 49 175 -11 q 49 228 49 108 l 49 799 l 299 799 l 299 268 q 360 185 299 193 m 415 107 l 415 799 l 665 799 l 665 0 l 453 0 l 415 107 z "},"ú":{"ha":721,"x_min":49,"x_max":665,"o":"m 360 185 l 360 4 q 271 -11 314 -11 q 112 49 175 -11 q 49 228 49 108 l 49 799 l 299 799 l 299 268 q 360 185 299 193 m 415 107 l 415 799 l 665 799 l 665 0 l 453 0 l 415 107 m 308 1049 l 572 1049 l 447 861 l 238 861 l 308 1049 z "},"ŭ":{"ha":721,"x_min":49,"x_max":665,"o":"m 360 185 l 360 4 q 271 -11 314 -11 q 112 49 175 -11 q 49 228 49 108 l 49 799 l 299 799 l 299 268 q 360 185 299 193 m 415 107 l 415 799 l 665 799 l 665 0 l 453 0 l 415 107 m 568 1081 q 568 1059 568 1069 q 567 1038 568 1049 q 508 899 558 947 q 360 851 458 851 q 195 909 246 851 q 144 1081 144 967 l 253 1081 q 356 1014 274 1014 q 425 1030 400 1014 q 460 1081 450 1046 l 568 1081 z "},"û":{"ha":721,"x_min":49,"x_max":665,"o":"m 360 185 l 360 4 q 271 -11 314 -11 q 112 49 175 -11 q 49 228 49 108 l 49 799 l 299 799 l 299 268 q 360 185 299 193 m 415 107 l 415 799 l 665 799 l 665 0 l 453 0 l 415 107 m 436 861 l 307 1068 l 442 1068 l 593 861 l 436 861 m 246 1032 l 331 894 l 303 861 l 121 861 l 246 1032 z "},"ȕ":{"ha":721,"x_min":-37,"x_max":665,"o":"m 360 185 l 360 4 q 271 -11 314 -11 q 112 49 175 -11 q 49 228 49 108 l 49 799 l 299 799 l 299 268 q 360 185 299 193 m 415 107 l 415 799 l 665 799 l 665 0 l 453 0 l 415 107 m 510 1049 l 581 861 l 371 861 l 274 1049 l 510 1049 m 199 1049 l 297 861 l 88 861 l -37 1049 l 199 1049 z "},"ü":{"ha":721,"x_min":49,"x_max":665,"o":"m 360 185 l 360 4 q 271 -11 314 -11 q 112 49 175 -11 q 49 228 49 108 l 49 799 l 299 799 l 299 268 q 360 185 299 193 m 415 107 l 415 799 l 665 799 l 665 0 l 453 0 l 415 107 m 104 1049 l 326 1049 l 326 860 l 104 860 l 104 1049 m 388 1049 l 610 1049 l 610 860 l 388 860 l 388 1049 z "},"ụ":{"ha":721,"x_min":49,"x_max":665,"o":"m 360 185 l 360 4 q 271 -11 314 -11 q 112 49 175 -11 q 49 228 49 108 l 49 799 l 299 799 l 299 268 q 360 185 299 193 m 415 107 l 415 799 l 665 799 l 665 0 l 453 0 l 415 107 m 231 -57 l 494 -57 l 494 -246 l 231 -246 l 231 -57 z "},"ù":{"ha":721,"x_min":49,"x_max":665,"o":"m 360 185 l 360 4 q 271 -11 314 -11 q 112 49 175 -11 q 49 228 49 108 l 49 799 l 299 799 l 299 268 q 360 185 299 193 m 415 107 l 415 799 l 665 799 l 665 0 l 453 0 l 415 107 m 500 861 l 290 861 l 165 1049 l 429 1049 l 500 861 z "},"ủ":{"ha":721,"x_min":49,"x_max":665,"o":"m 360 185 l 360 4 q 271 -11 314 -11 q 112 49 175 -11 q 49 228 49 108 l 49 799 l 299 799 l 299 268 q 360 185 299 193 m 415 107 l 415 799 l 665 799 l 665 0 l 453 0 l 415 107 m 350 844 l 290 917 q 333 956 321 932 q 335 1000 346 981 q 288 1019 325 1019 q 247 1016 267 1019 q 215 1008 226 1013 l 225 1128 q 335 1146 276 1146 q 439 1120 400 1146 q 492 1055 478 1094 q 494 973 506 1015 q 447 895 483 931 q 350 844 411 860 z "},"ư":{"ha":896,"x_min":49,"x_max":924,"o":"m 360 185 l 360 4 q 271 -11 314 -11 q 112 49 175 -11 q 49 228 49 108 l 49 799 l 299 799 l 299 268 q 360 185 299 193 m 415 107 l 415 799 l 665 799 l 665 0 l 453 0 l 415 107 m 624 606 l 540 799 l 644 799 q 713 883 713 799 l 713 983 l 924 983 l 924 888 q 895 700 924 764 q 801 617 867 636 q 624 606 735 599 z "},"ứ":{"ha":896,"x_min":49,"x_max":924,"o":"m 360 185 l 360 4 q 271 -11 314 -11 q 112 49 175 -11 q 49 228 49 108 l 49 799 l 299 799 l 299 268 q 360 185 299 193 m 415 107 l 415 799 l 665 799 l 665 0 l 453 0 l 415 107 m 624 606 l 540 799 l 644 799 q 713 883 713 799 l 713 983 l 924 983 l 924 888 q 895 700 924 764 q 801 617 867 636 q 624 606 735 599 m 308 1049 l 572 1049 l 447 861 l 238 861 l 308 1049 z "},"ự":{"ha":896,"x_min":49,"x_max":924,"o":"m 360 185 l 360 4 q 271 -11 314 -11 q 112 49 175 -11 q 49 228 49 108 l 49 799 l 299 799 l 299 268 q 360 185 299 193 m 415 107 l 415 799 l 665 799 l 665 0 l 453 0 l 415 107 m 624 606 l 540 799 l 644 799 q 713 883 713 799 l 713 983 l 924 983 l 924 888 q 895 700 924 764 q 801 617 867 636 q 624 606 735 599 m 231 -57 l 494 -57 l 494 -246 l 231 -246 l 231 -57 z "},"ừ":{"ha":896,"x_min":49,"x_max":924,"o":"m 360 185 l 360 4 q 271 -11 314 -11 q 112 49 175 -11 q 49 228 49 108 l 49 799 l 299 799 l 299 268 q 360 185 299 193 m 415 107 l 415 799 l 665 799 l 665 0 l 453 0 l 415 107 m 624 606 l 540 799 l 644 799 q 713 883 713 799 l 713 983 l 924 983 l 924 888 q 895 700 924 764 q 801 617 867 636 q 624 606 735 599 m 500 861 l 290 861 l 165 1049 l 429 1049 l 500 861 z "},"ử":{"ha":896,"x_min":49,"x_max":924,"o":"m 360 185 l 360 4 q 271 -11 314 -11 q 112 49 175 -11 q 49 228 49 108 l 49 799 l 299 799 l 299 268 q 360 185 299 193 m 415 107 l 415 799 l 665 799 l 665 0 l 453 0 l 415 107 m 624 606 l 540 799 l 644 799 q 713 883 713 799 l 713 983 l 924 983 l 924 888 q 895 700 924 764 q 801 617 867 636 q 624 606 735 599 m 350 844 l 290 917 q 333 956 321 932 q 335 1000 346 981 q 288 1019 325 1019 q 247 1016 267 1019 q 215 1008 226 1013 l 225 1128 q 335 1146 276 1146 q 439 1120 400 1146 q 492 1055 478 1094 q 494 973 506 1015 q 447 895 483 931 q 350 844 411 860 z "},"ữ":{"ha":896,"x_min":49,"x_max":924,"o":"m 360 185 l 360 4 q 271 -11 314 -11 q 112 49 175 -11 q 49 228 49 108 l 49 799 l 299 799 l 299 268 q 360 185 299 193 m 415 107 l 415 799 l 665 799 l 665 0 l 453 0 l 415 107 m 624 606 l 540 799 l 644 799 q 713 883 713 799 l 713 983 l 924 983 l 924 888 q 895 700 924 764 q 801 617 867 636 q 624 606 735 599 m 551 1056 q 556 1027 554 1042 q 558 999 558 1013 q 526 898 558 939 q 426 857 493 857 q 374 869 399 857 q 328 894 349 882 q 294 906 308 906 q 269 894 276 906 q 263 868 263 883 l 164 868 q 159 897 161 883 q 157 925 157 911 q 190 1026 157 986 q 289 1067 222 1067 q 342 1055 317 1067 q 387 1031 367 1043 q 421 1018 407 1018 q 447 1029 440 1018 q 453 1056 453 1040 l 551 1056 z "},"ű":{"ha":721,"x_min":49,"x_max":728,"o":"m 360 185 l 360 4 q 271 -11 314 -11 q 112 49 175 -11 q 49 228 49 108 l 49 799 l 299 799 l 299 268 q 360 185 299 193 m 415 107 l 415 799 l 665 799 l 665 0 l 453 0 l 415 107 m 181 1049 l 417 1049 l 319 861 l 110 861 l 181 1049 m 492 1049 l 728 1049 l 603 861 l 393 861 l 492 1049 z "},"ȗ":{"ha":721,"x_min":49,"x_max":665,"o":"m 360 185 l 360 4 q 271 -11 314 -11 q 112 49 175 -11 q 49 228 49 108 l 49 799 l 299 799 l 299 268 q 360 185 299 193 m 415 107 l 415 799 l 665 799 l 665 0 l 453 0 l 415 107 m 568 851 l 460 851 q 425 902 450 886 q 356 918 400 918 q 253 851 274 918 l 144 851 q 195 1023 144 965 q 360 1081 246 1081 q 508 1033 458 1081 q 567 894 558 985 q 568 874 568 885 q 568 851 568 863 z "},"ū":{"ha":721,"x_min":49,"x_max":665,"o":"m 360 185 l 360 4 q 271 -11 314 -11 q 112 49 175 -11 q 49 228 49 108 l 49 799 l 299 799 l 299 268 q 360 185 299 193 m 415 107 l 415 799 l 665 799 l 665 0 l 453 0 l 415 107 m 151 1049 l 563 1049 l 563 885 l 151 885 l 151 1049 z "},"ų":{"ha":721,"x_min":49,"x_max":665,"o":"m 360 185 l 360 4 q 271 -11 314 -11 q 112 49 175 -11 q 49 228 49 108 l 49 799 l 299 799 l 299 268 q 360 185 299 193 m 415 107 l 415 799 l 665 799 l 665 0 l 453 0 l 415 107 m 431 -71 l 592 -71 q 665 -104 603 -115 l 665 -212 q 626 -219 646 -217 q 589 -222 607 -222 q 457 -176 496 -222 q 431 -71 418 -131 z "},"ů":{"ha":721,"x_min":49,"x_max":665,"o":"m 360 185 l 360 4 q 271 -11 314 -11 q 112 49 175 -11 q 49 228 49 108 l 49 799 l 299 799 l 299 268 q 360 185 299 193 m 415 107 l 415 799 l 665 799 l 665 0 l 453 0 l 415 107 m 397 1001 l 397 1104 q 512 1069 475 1100 q 549 974 549 1038 q 512 887 549 917 q 397 851 475 857 l 397 954 q 400 964 399 958 q 401 975 401 969 q 400 989 401 982 q 397 1001 399 996 m 319 1104 l 319 1004 q 315 975 315 994 q 319 950 315 961 l 319 851 q 202 887 239 857 q 165 974 165 917 q 202 1069 165 1038 q 319 1104 239 1100 z "},"ũ":{"ha":721,"x_min":49,"x_max":665,"o":"m 360 185 l 360 4 q 271 -11 314 -11 q 112 49 175 -11 q 49 228 49 108 l 49 799 l 299 799 l 299 268 q 360 185 299 193 m 415 107 l 415 799 l 665 799 l 665 0 l 453 0 l 415 107 m 551 1056 q 556 1027 554 1042 q 558 999 558 1013 q 526 898 558 939 q 426 857 493 857 q 374 869 399 857 q 328 894 349 882 q 294 906 308 906 q 269 894 276 906 q 263 868 263 883 l 164 868 q 159 897 161 883 q 157 925 157 911 q 190 1026 157 986 q 289 1067 222 1067 q 342 1055 317 1067 q 387 1031 367 1043 q 421 1018 407 1018 q 447 1029 440 1018 q 453 1056 453 1040 l 551 1056 z "},"v":{"ha":682,"x_min":7,"x_max":675,"o":"m 419 0 l 193 0 l 7 799 l 264 799 l 419 0 m 382 514 l 425 799 l 675 799 l 486 0 l 382 514 z "},"w":{"ha":1088,"x_min":7,"x_max":1081,"o":"m 308 569 l 188 0 l 7 799 l 261 799 l 308 569 m 828 0 l 608 0 l 538 381 l 471 0 l 261 0 l 421 799 l 669 799 l 828 0 m 892 24 l 793 531 l 828 799 l 1081 799 l 892 24 z "},"ẃ":{"ha":1088,"x_min":7,"x_max":1081,"o":"m 308 569 l 188 0 l 7 799 l 261 799 l 308 569 m 828 0 l 608 0 l 538 381 l 471 0 l 261 0 l 421 799 l 669 799 l 828 0 m 892 24 l 793 531 l 828 799 l 1081 799 l 892 24 m 489 1049 l 753 1049 l 628 861 l 418 861 l 489 1049 z "},"ŵ":{"ha":1088,"x_min":7,"x_max":1081,"o":"m 308 569 l 188 0 l 7 799 l 261 799 l 308 569 m 828 0 l 608 0 l 538 381 l 471 0 l 261 0 l 421 799 l 669 799 l 828 0 m 892 24 l 793 531 l 828 799 l 1081 799 l 892 24 m 617 861 l 488 1068 l 622 1068 l 774 861 l 617 861 m 426 1032 l 511 894 l 483 861 l 301 861 l 426 1032 z "},"ẅ":{"ha":1088,"x_min":7,"x_max":1081,"o":"m 308 569 l 188 0 l 7 799 l 261 799 l 308 569 m 828 0 l 608 0 l 538 381 l 471 0 l 261 0 l 421 799 l 669 799 l 828 0 m 892 24 l 793 531 l 828 799 l 1081 799 l 892 24 m 285 1049 l 507 1049 l 507 860 l 285 860 l 285 1049 m 568 1049 l 790 1049 l 790 860 l 568 860 l 568 1049 z "},"ẁ":{"ha":1088,"x_min":7,"x_max":1081,"o":"m 308 569 l 188 0 l 7 799 l 261 799 l 308 569 m 828 0 l 608 0 l 538 381 l 471 0 l 261 0 l 421 799 l 669 799 l 828 0 m 892 24 l 793 531 l 828 799 l 1081 799 l 892 24 m 681 861 l 471 861 l 346 1049 l 610 1049 l 681 861 z "},"x":{"ha":682,"x_min":11,"x_max":671,"o":"m 526 433 l 389 701 l 418 799 l 671 799 l 526 433 m 13 799 l 265 799 l 669 0 l 417 0 l 13 799 m 154 365 l 294 94 l 264 0 l 11 0 l 154 365 z "},"y":{"ha":682,"x_min":7,"x_max":675,"o":"m 425 799 l 675 799 l 432 -175 l 190 -208 l 425 799 m 300 546 l 183 44 l 7 799 l 264 799 l 300 546 z "},"ý":{"ha":682,"x_min":7,"x_max":675,"o":"m 425 799 l 675 799 l 432 -175 l 190 -208 l 425 799 m 300 546 l 183 44 l 7 799 l 264 799 l 300 546 m 296 1049 l 560 1049 l 435 861 l 225 861 l 296 1049 z "},"ŷ":{"ha":682,"x_min":7,"x_max":675,"o":"m 425 799 l 675 799 l 432 -175 l 190 -208 l 425 799 m 300 546 l 183 44 l 7 799 l 264 799 l 300 546 m 424 861 l 294 1068 l 429 1068 l 581 861 l 424 861 m 233 1032 l 318 894 l 290 861 l 108 861 l 233 1032 z "},"ÿ":{"ha":682,"x_min":7,"x_max":675,"o":"m 425 799 l 675 799 l 432 -175 l 190 -208 l 425 799 m 300 546 l 183 44 l 7 799 l 264 799 l 300 546 m 92 1049 l 314 1049 l 314 860 l 92 860 l 92 1049 m 375 1049 l 597 1049 l 597 860 l 375 860 l 375 1049 z "},"ỵ":{"ha":682,"x_min":7,"x_max":761,"o":"m 425 799 l 675 799 l 432 -175 l 190 -208 l 425 799 m 300 546 l 183 44 l 7 799 l 264 799 l 300 546 m 497 -64 l 761 -64 l 761 -253 l 497 -253 l 497 -64 z "},"ỳ":{"ha":682,"x_min":7,"x_max":675,"o":"m 425 799 l 675 799 l 432 -175 l 190 -208 l 425 799 m 300 546 l 183 44 l 7 799 l 264 799 l 300 546 m 488 861 l 278 861 l 153 1049 l 417 1049 l 488 861 z "},"ỷ":{"ha":682,"x_min":7,"x_max":675,"o":"m 425 799 l 675 799 l 432 -175 l 190 -208 l 425 799 m 300 546 l 183 44 l 7 799 l 264 799 l 300 546 m 338 844 l 278 917 q 321 956 308 932 q 323 1000 333 981 q 275 1019 313 1019 q 234 1016 254 1019 q 203 1008 214 1013 l 213 1128 q 322 1146 264 1146 q 426 1120 388 1146 q 479 1055 465 1094 q 482 973 493 1015 q 435 895 471 931 q 338 844 399 860 z "},"ȳ":{"ha":682,"x_min":7,"x_max":675,"o":"m 425 799 l 675 799 l 432 -175 l 190 -208 l 425 799 m 300 546 l 183 44 l 7 799 l 264 799 l 300 546 m 139 1049 l 550 1049 l 550 885 l 139 885 l 139 1049 z "},"ỹ":{"ha":682,"x_min":7,"x_max":675,"o":"m 425 799 l 675 799 l 432 -175 l 190 -208 l 425 799 m 300 546 l 183 44 l 7 799 l 264 799 l 300 546 m 539 1056 q 544 1027 542 1042 q 546 999 546 1013 q 513 898 546 939 q 414 857 481 857 q 361 869 386 857 q 316 894 336 882 q 282 906 296 906 q 257 894 264 906 q 250 868 250 883 l 151 868 q 147 897 149 883 q 144 925 144 911 q 177 1026 144 986 q 276 1067 210 1067 q 329 1055 304 1067 q 374 1031 354 1043 q 408 1018 394 1018 q 434 1029 428 1018 q 440 1056 440 1040 l 539 1056 z "},"z":{"ha":635,"x_min":42,"x_max":593,"o":"m 317 799 l 211 604 l 51 604 l 51 799 l 317 799 m 236 3 l 42 3 l 42 153 l 389 799 l 581 799 l 581 651 l 236 3 m 307 0 l 411 194 l 593 194 l 593 0 l 307 0 z "},"ź":{"ha":635,"x_min":42,"x_max":593,"o":"m 317 799 l 211 604 l 51 604 l 51 799 l 317 799 m 236 3 l 42 3 l 42 153 l 389 799 l 581 799 l 581 651 l 236 3 m 307 0 l 411 194 l 593 194 l 593 0 l 307 0 m 286 1049 l 550 1049 l 425 861 l 215 861 l 286 1049 z "},"ž":{"ha":635,"x_min":42,"x_max":593,"o":"m 317 799 l 211 604 l 51 604 l 51 799 l 317 799 m 236 3 l 42 3 l 42 153 l 389 799 l 581 799 l 581 651 l 236 3 m 307 0 l 411 194 l 593 194 l 593 0 l 307 0 m 224 897 l 99 1068 l 281 1068 l 308 1035 l 224 897 m 414 1068 l 571 1068 l 419 861 l 285 861 l 414 1068 z "},"ż":{"ha":635,"x_min":42,"x_max":593,"o":"m 317 799 l 211 604 l 51 604 l 51 799 l 317 799 m 236 3 l 42 3 l 42 153 l 389 799 l 581 799 l 581 651 l 236 3 m 307 0 l 411 194 l 593 194 l 593 0 l 307 0 m 203 1049 l 467 1049 l 467 860 l 203 860 l 203 1049 z "},"ﬁ":{"ha":888,"x_min":28,"x_max":839,"o":"m 28 611 l 28 799 l 111 799 l 111 835 q 144 969 111 921 q 250 1039 178 1018 q 440 1060 322 1060 q 499 1056 467 1060 l 499 876 q 444 881 469 881 q 383 866 404 881 q 361 817 361 851 l 361 799 l 832 799 l 832 0 l 582 0 l 582 611 l 28 611 m 575 1049 l 839 1049 l 839 860 l 575 860 l 575 1049 m 111 542 l 361 542 l 361 0 l 111 0 l 111 542 z "},"ﬂ":{"ha":867,"x_min":28,"x_max":811,"o":"m 811 0 l 561 0 l 561 611 l 28 611 l 28 799 l 111 799 l 111 835 q 140 969 111 921 q 230 1039 168 1018 q 393 1060 292 1060 q 445 1058 418 1060 q 499 1053 472 1056 l 499 876 q 479 878 489 878 q 461 879 469 879 q 385 866 410 879 q 361 817 361 853 l 361 799 l 561 799 l 561 1015 l 811 1049 l 811 0 m 111 542 l 361 542 l 361 0 l 111 0 l 111 542 z "},"ª":{"ha":513,"x_min":42,"x_max":450,"o":"m 282 793 q 262 823 282 815 q 218 831 242 831 q 156 826 188 831 q 104 817 125 822 q 83 813 83 813 l 83 946 q 115 950 83 946 q 190 958 146 954 q 269 963 233 963 q 403 924 357 963 q 450 817 450 886 l 450 433 l 307 433 l 282 533 l 282 793 m 211 749 l 211 638 q 200 604 200 622 q 211 563 200 576 l 211 424 q 199 422 206 422 q 185 422 192 422 q 81 469 121 422 q 42 583 42 517 q 90 703 42 657 q 207 749 139 749 l 211 749 z "},"º":{"ha":532,"x_min":40,"x_max":490,"o":"m 301 424 l 301 583 q 310 626 307 599 q 313 693 313 653 q 301 799 313 771 l 301 961 q 447 894 403 954 q 490 692 490 835 q 447 490 490 549 q 301 424 403 431 m 232 576 l 232 424 q 85 490 131 431 q 40 692 40 549 q 85 896 40 836 q 232 961 131 956 l 232 806 q 218 693 218 776 q 232 576 218 606 z "},"⁄":{"ha":250,"x_min":-231,"x_max":513,"o":"m 410 1039 l 513 963 l -128 6 l -231 82 l 410 1039 z "},"½":{"ha":1063,"x_min":21,"x_max":1021,"o":"m 326 846 l 39 760 l 21 924 l 192 986 l 326 986 l 326 846 m 131 714 l 326 772 l 326 461 l 131 461 l 131 714 m 799 1039 l 901 963 l 261 6 l 158 82 l 799 1039 m 922 201 l 726 201 q 795 294 779 264 q 811 346 811 324 q 788 380 811 369 q 736 390 764 390 q 671 381 697 390 l 653 504 q 808 532 719 532 q 956 497 897 532 q 1015 393 1015 463 q 995 301 1015 347 q 931 210 975 254 l 922 201 m 669 132 l 1021 132 l 1021 0 l 653 0 l 653 114 l 669 132 z "},"¼":{"ha":1069,"x_min":21,"x_max":1063,"o":"m 326 846 l 39 760 l 21 924 l 192 986 l 326 986 l 326 846 m 131 714 l 326 772 l 326 461 l 131 461 l 131 714 m 799 1039 l 901 963 l 261 6 l 158 82 l 799 1039 m 1063 210 l 1042 67 l 997 67 l 997 0 l 815 0 l 815 67 l 594 67 l 594 190 q 654 365 619 281 q 750 525 689 450 l 997 500 l 997 279 l 817 279 l 824 390 l 789 313 q 771 260 776 285 q 760 210 765 236 l 1063 210 z "},"¾":{"ha":1069,"x_min":14,"x_max":1063,"o":"m 375 760 l 85 760 l 85 819 l 94 819 q 174 827 151 819 q 197 857 197 835 q 172 886 197 879 q 110 890 146 893 q 43 881 75 888 l 28 968 q 146 992 81 988 q 271 984 211 997 q 369 940 331 971 q 408 858 408 910 q 375 760 408 796 m 85 710 l 354 710 q 399 667 382 692 q 415 601 415 642 q 376 508 415 543 q 274 459 336 472 q 142 451 211 446 q 14 478 72 457 l 31 565 q 108 555 67 558 q 179 559 150 551 q 208 593 208 567 q 183 631 208 622 q 97 639 158 639 l 85 639 l 85 710 m 844 1039 l 947 963 l 307 6 l 204 82 l 844 1039 m 1063 210 l 1042 67 l 997 67 l 997 0 l 815 0 l 815 67 l 594 67 l 594 190 q 654 365 619 281 q 750 525 689 450 l 997 500 l 997 279 l 817 279 l 824 390 l 789 313 q 771 260 776 285 q 760 210 765 236 l 1063 210 z "},"¹":{"ha":389,"x_min":21,"x_max":326,"o":"m 326 846 l 39 760 l 21 924 l 192 986 l 326 986 l 326 846 m 131 714 l 326 772 l 326 461 l 131 461 l 131 714 z "},"²":{"ha":450,"x_min":40,"x_max":408,"o":"m 310 663 l 114 663 q 183 755 167 725 q 199 807 199 785 q 175 841 199 831 q 124 851 151 851 q 58 842 85 851 l 40 965 q 196 993 107 993 q 344 958 285 993 q 403 854 403 924 q 383 762 403 808 q 318 671 363 715 l 310 663 m 57 593 l 408 593 l 408 461 l 40 461 l 40 575 l 57 593 z "},"³":{"ha":435,"x_min":14,"x_max":415,"o":"m 375 760 l 85 760 l 85 819 l 94 819 q 174 827 151 819 q 197 857 197 835 q 172 886 197 879 q 110 890 146 893 q 43 881 75 888 l 28 968 q 146 992 81 988 q 271 984 211 997 q 369 940 331 971 q 408 858 408 910 q 375 760 408 796 m 85 710 l 354 710 q 399 667 382 692 q 415 601 415 642 q 376 508 415 543 q 274 459 336 472 q 142 451 211 446 q 14 478 72 457 l 31 565 q 108 555 67 558 q 179 559 150 551 q 208 593 208 567 q 183 631 208 622 q 97 639 158 639 l 85 639 l 85 710 z "},"⁴":{"ha":504,"x_min":29,"x_max":497,"o":"m 497 671 l 476 528 l 432 528 l 432 461 l 250 461 l 250 528 l 29 528 l 29 651 q 89 826 54 742 q 185 986 124 911 l 432 961 l 432 740 l 251 740 l 258 851 l 224 774 q 206 722 211 746 q 194 671 200 697 l 497 671 z "},".":{"ha":417,"x_min":86,"x_max":331,"o":"m 86 229 l 331 229 l 331 0 l 86 0 l 86 229 z "},",":{"ha":417,"x_min":28,"x_max":354,"o":"m 104 228 l 354 228 l 224 -117 l 28 -117 l 104 228 z "},":":{"ha":417,"x_min":86,"x_max":331,"o":"m 86 229 l 331 229 l 331 0 l 86 0 l 86 229 m 86 713 l 331 713 l 331 483 l 86 483 l 86 713 z "},";":{"ha":417,"x_min":28,"x_max":354,"o":"m 86 713 l 331 713 l 331 483 l 86 483 l 86 713 m 104 228 l 354 228 l 224 -117 l 28 -117 l 104 228 z "},"…":{"ha":1239,"x_min":86,"x_max":1153,"o":"m 86 229 l 331 229 l 331 0 l 86 0 l 86 229 m 496 229 l 740 229 l 740 0 l 496 0 l 496 229 m 908 229 l 1153 229 l 1153 0 l 908 0 l 908 229 z "},"!":{"ha":417,"x_min":72,"x_max":344,"o":"m 114 311 l 72 847 l 72 1082 l 344 1082 l 344 847 l 303 311 l 114 311 m 83 0 l 83 189 l 335 189 l 335 0 l 83 0 z "},"¡":{"ha":417,"x_min":72,"x_max":344,"o":"m 114 563 l 303 563 l 344 26 l 344 -208 l 72 -208 l 72 26 l 114 563 m 83 874 l 335 874 l 335 685 l 83 685 l 83 874 z "},"?":{"ha":613,"x_min":14,"x_max":576,"o":"m 576 825 l 257 825 q 209 851 239 842 q 139 861 179 861 q 82 859 106 861 q 39 854 58 857 l 14 1075 q 110 1090 63 1086 q 228 1094 158 1094 q 392 1068 315 1094 q 520 983 469 1042 q 576 825 571 924 m 285 757 l 576 757 q 506 579 567 653 q 336 486 446 506 l 336 311 l 86 311 l 86 653 l 100 653 q 183 661 142 653 q 253 692 225 669 q 285 757 282 715 m 86 0 l 86 189 l 336 189 l 336 0 l 86 0 z "},"¿":{"ha":613,"x_min":36,"x_max":599,"o":"m 36 49 l 356 49 q 404 22 375 32 q 474 13 433 13 q 531 15 507 13 q 574 19 554 17 l 599 -201 q 503 -216 551 -211 q 385 -221 454 -221 q 220 -194 297 -221 q 93 -108 143 -168 q 36 49 43 -49 m 328 117 l 36 117 q 107 295 47 221 q 276 388 167 369 l 276 563 l 526 563 l 526 221 l 513 221 q 429 213 471 221 q 359 182 388 204 q 328 117 331 160 m 526 874 l 526 685 l 276 685 l 276 874 l 526 874 z "},"·":{"ha":417,"x_min":86,"x_max":331,"o":"m 86 560 l 331 560 l 331 331 l 86 331 l 86 560 z "},"•":{"ha":556,"x_min":76,"x_max":479,"o":"m 276 242 q 126 295 175 242 q 76 443 76 349 q 126 592 76 538 q 276 646 175 646 q 428 592 376 646 q 479 443 479 538 q 428 295 479 349 q 276 242 376 242 z "},"*":{"ha":669,"x_min":46,"x_max":624,"o":"m 250 536 l 283 731 l 131 606 l 46 751 l 231 819 l 47 890 l 133 1035 l 283 911 l 250 1103 l 419 1103 l 388 911 l 536 1035 l 621 889 l 439 819 l 624 750 l 536 606 l 386 729 l 419 536 l 250 536 m 336 722 q 407 751 378 722 q 436 824 436 781 q 407 894 436 865 q 336 924 378 924 q 264 894 293 924 q 235 824 235 865 q 264 751 235 781 q 336 722 293 722 z "},"#":{"ha":840,"x_min":33,"x_max":807,"o":"m 447 640 l 471 797 l 528 797 l 558 1000 l 736 1000 l 706 797 l 807 797 l 783 640 l 682 640 l 651 436 l 474 436 l 504 640 l 447 640 m 418 861 l 240 861 l 261 1000 l 439 1000 l 418 861 m 33 214 l 58 371 l 167 371 l 207 640 l 99 640 l 124 797 l 232 797 l 232 799 l 410 799 l 344 371 l 742 371 l 719 214 l 618 214 l 586 0 l 408 0 l 440 214 l 33 214 m 133 151 l 311 151 l 289 0 l 111 0 l 133 151 z "},"/":{"ha":593,"x_min":0,"x_max":593,"o":"m 358 1049 l 593 1049 l 235 -50 l 0 -50 l 358 1049 z "},"\\":{"ha":593,"x_min":0,"x_max":593,"o":"m 235 1049 l 593 -50 l 358 -50 l 0 1049 l 235 1049 z "},"-":{"ha":417,"x_min":42,"x_max":375,"o":"m 375 567 l 375 374 l 42 374 l 42 567 l 375 567 z "},"–":{"ha":625,"x_min":14,"x_max":611,"o":"m 611 553 l 611 388 l 14 388 l 14 553 l 611 553 z "},"—":{"ha":938,"x_min":69,"x_max":868,"o":"m 868 553 l 868 388 l 69 388 l 69 553 l 868 553 z "},"_":{"ha":625,"x_min":14,"x_max":611,"o":"m 611 -43 l 611 -208 l 14 -208 l 14 -43 l 611 -43 z "},"(":{"ha":528,"x_min":49,"x_max":483,"o":"m 304 476 l 49 476 l 49 750 q 60 810 49 786 q 99 861 71 833 l 322 1086 l 483 924 l 328 772 q 308 740 311 757 q 304 700 304 722 l 304 476 m 49 407 l 304 407 l 304 183 q 308 144 304 161 q 328 111 311 126 l 483 -40 l 322 -203 l 99 22 q 60 74 71 50 q 49 133 49 97 l 49 407 z "},")":{"ha":528,"x_min":44,"x_max":479,"o":"m 224 407 l 479 407 l 479 133 q 468 74 479 97 q 429 22 457 50 l 206 -203 l 44 -40 l 200 111 q 220 144 217 126 q 224 183 224 161 l 224 407 m 479 476 l 224 476 l 224 700 q 220 740 224 722 q 200 772 217 757 l 44 924 l 206 1086 l 429 861 q 468 810 457 833 q 479 750 479 786 l 479 476 z "},"{":{"ha":606,"x_min":14,"x_max":538,"o":"m 321 472 l 14 472 l 14 549 q 126 586 93 549 q 160 722 160 624 l 160 785 q 190 942 160 885 q 288 1024 219 1000 q 468 1049 356 1049 l 538 1049 l 538 843 l 476 843 q 421 822 438 843 q 404 744 404 801 l 404 646 q 383 537 404 578 q 321 472 361 496 m 14 403 l 325 403 q 383 338 363 379 q 404 232 404 297 l 404 133 q 421 56 404 78 q 476 35 438 35 l 538 35 l 538 -171 l 468 -171 q 288 -147 356 -171 q 190 -65 219 -122 q 160 93 160 -7 l 160 156 q 126 292 160 254 q 14 329 93 329 l 14 403 z "},"}":{"ha":606,"x_min":68,"x_max":592,"o":"m 285 472 q 224 537 246 496 q 201 646 201 578 l 201 744 q 185 822 201 801 q 129 843 168 843 l 68 843 l 68 1049 l 138 1049 q 318 1024 250 1049 q 416 942 386 1000 q 446 785 446 885 l 446 722 q 479 586 446 624 q 592 549 513 549 l 592 472 l 285 472 m 592 403 l 592 329 q 479 292 513 329 q 446 156 446 254 l 446 93 q 416 -65 446 -7 q 318 -147 386 -122 q 138 -171 250 -171 l 68 -171 l 68 35 l 129 35 q 185 56 168 35 q 201 133 201 78 l 201 232 q 222 338 201 297 q 281 403 243 379 l 592 403 z "},"[":{"ha":485,"x_min":76,"x_max":436,"o":"m 299 472 l 76 472 l 76 1049 l 436 1049 l 436 843 l 299 843 l 299 472 m 76 404 l 299 404 l 299 33 l 436 33 l 436 -172 l 76 -172 l 76 404 z "},"]":{"ha":485,"x_min":49,"x_max":408,"o":"m 186 404 l 408 404 l 408 -172 l 49 -172 l 49 33 l 186 33 l 186 404 m 408 472 l 186 472 l 186 843 l 49 843 l 49 1049 l 408 1049 l 408 472 z "},"‚":{"ha":357,"x_min":28,"x_max":294,"o":"m 294 -186 l 28 -222 l 28 201 l 146 201 q 294 63 294 201 l 294 -186 z "},"„":{"ha":678,"x_min":28,"x_max":615,"o":"m 615 -186 l 349 -222 l 349 201 l 467 201 q 615 63 615 201 l 615 -186 m 294 -186 l 28 -222 l 28 201 l 146 201 q 294 63 294 201 l 294 -186 z "},"“":{"ha":678,"x_min":63,"x_max":650,"o":"m 63 1024 l 329 1060 l 329 636 l 211 636 q 63 775 63 636 l 63 1024 m 383 1024 l 650 1060 l 650 636 l 532 636 q 383 775 383 636 l 383 1024 z "},"”":{"ha":678,"x_min":28,"x_max":615,"o":"m 615 672 l 349 636 l 349 1060 l 467 1060 q 615 921 615 1060 l 615 672 m 294 672 l 28 636 l 28 1060 l 146 1060 q 294 921 294 1060 l 294 672 z "},"‘":{"ha":357,"x_min":63,"x_max":329,"o":"m 63 1024 l 329 1060 l 329 636 l 211 636 q 63 775 63 636 l 63 1024 z "},"’":{"ha":357,"x_min":28,"x_max":294,"o":"m 294 672 l 28 636 l 28 1060 l 146 1060 q 294 921 294 1060 l 294 672 z "},"«":{"ha":763,"x_min":28,"x_max":707,"o":"m 425 82 l 208 82 l 28 353 l 28 367 l 208 638 l 425 638 l 244 360 l 425 82 m 707 82 l 490 82 l 310 353 l 310 367 l 490 638 l 707 638 l 526 360 l 707 82 z "},"»":{"ha":763,"x_min":56,"x_max":735,"o":"m 338 82 l 518 360 l 338 638 l 554 638 l 735 367 l 735 353 l 554 82 l 338 82 m 56 82 l 236 360 l 56 638 l 272 638 l 453 367 l 453 353 l 272 82 l 56 82 z "},"‹":{"ha":481,"x_min":28,"x_max":425,"o":"m 425 82 l 208 82 l 28 353 l 28 367 l 208 638 l 425 638 l 244 360 l 425 82 z "},"›":{"ha":481,"x_min":56,"x_max":453,"o":"m 56 82 l 236 360 l 56 638 l 272 638 l 453 367 l 453 353 l 272 82 l 56 82 z "},"\"":{"ha":610,"x_min":42,"x_max":568,"o":"m 42 1047 l 286 1047 l 256 636 l 71 636 l 42 1047 m 324 1047 l 568 1047 l 538 636 l 353 636 l 324 1047 z "},"'":{"ha":328,"x_min":42,"x_max":286,"o":"m 42 1047 l 286 1047 l 256 636 l 71 636 l 42 1047 z "},"ƒ":{"ha":586,"x_min":28,"x_max":572,"o":"m 399 536 l 149 536 l 154 585 q 201 719 165 671 q 301 789 236 768 q 468 810 367 810 q 519 808 493 810 q 572 803 546 806 l 546 608 q 526 610 536 610 q 508 611 517 611 q 431 598 457 611 q 400 549 406 585 l 399 536 m 526 465 l 499 271 l 28 271 l 56 465 l 526 465 m 99 199 l 351 199 l 292 -207 l 39 -207 l 99 199 z "},"@":{"ha":1107,"x_min":63,"x_max":1038,"o":"m 318 411 l 64 411 q 143 718 71 601 q 342 889 215 835 q 639 943 468 943 q 840 912 750 943 q 984 815 931 881 q 1038 643 1038 749 l 1038 132 l 821 132 l 788 251 l 788 601 q 742 713 788 679 q 611 747 697 747 q 464 716 528 747 q 362 612 400 685 q 318 411 324 539 m 718 304 l 718 133 q 640 118 682 118 q 536 147 585 118 q 457 229 488 175 q 426 360 426 283 q 508 538 426 476 q 718 601 589 600 l 718 454 q 683 427 696 444 q 669 383 669 410 q 683 331 669 351 q 718 304 697 311 m 63 342 l 318 342 q 361 139 324 214 q 463 32 399 64 q 611 0 528 0 q 738 5 683 0 q 854 31 793 10 l 883 -168 q 759 -190 826 -185 q 639 -196 692 -196 q 340 -142 467 -196 q 140 30 213 -89 q 63 342 68 149 z "},"&":{"ha":1036,"x_min":63,"x_max":1015,"o":"m 243 504 q 186 593 203 553 q 167 667 169 633 q 165 731 165 701 q 208 891 165 829 q 324 981 251 953 q 489 1010 397 1010 q 594 1002 540 1010 q 704 979 649 994 l 685 763 q 624 781 656 774 q 564 788 593 788 q 476 766 508 788 q 443 697 443 744 q 504 579 443 650 l 1015 1 l 661 1 l 617 53 q 517 3 578 21 q 382 -14 456 -14 q 211 31 283 -14 q 101 147 139 76 q 63 296 63 218 q 82 410 63 353 q 149 510 101 467 l 325 297 q 374 220 338 250 q 475 190 411 190 q 490 190 482 190 q 506 192 497 190 l 243 504 m 854 288 l 664 504 q 671 571 669 539 q 672 626 672 603 l 931 626 q 915 466 931 558 q 854 288 899 374 z "},"¶":{"ha":806,"x_min":49,"x_max":806,"o":"m 599 0 l 599 1000 l 806 1000 l 729 810 l 729 0 l 599 0 m 529 1000 l 529 0 l 397 0 l 397 315 l 336 315 q 118 394 188 315 q 49 657 49 472 q 120 922 49 843 q 336 1000 192 1000 l 529 1000 z "},"§":{"ha":679,"x_min":49,"x_max":631,"o":"m 586 329 l 431 444 l 431 453 q 419 495 431 481 q 385 524 408 510 l 199 643 q 120 725 143 679 q 97 842 97 771 q 165 1005 97 951 q 389 1060 233 1058 q 497 1055 447 1060 q 576 1044 546 1050 q 606 1039 606 1039 l 585 854 q 564 857 585 854 q 510 863 543 860 q 443 867 478 867 q 371 858 393 867 q 349 826 349 850 q 357 803 349 813 q 383 783 365 794 l 500 708 q 569 654 540 683 q 615 583 599 625 q 631 476 631 542 q 586 329 631 382 m 286 -140 q 156 -133 215 -140 q 49 -112 97 -125 l 69 76 q 121 69 69 76 q 257 61 172 61 q 333 106 333 61 q 325 132 333 124 q 301 150 317 140 l 190 224 q 121 278 151 250 q 73 349 90 307 q 56 454 56 390 q 101 604 56 550 l 276 474 q 275 464 275 469 q 287 423 275 438 q 321 393 299 408 l 492 276 q 567 197 544 240 q 589 93 589 154 q 519 -81 589 -24 q 286 -140 449 -139 z "},"©":{"ha":1057,"x_min":50,"x_max":1007,"o":"m 50 619 q 119 838 60 742 q 274 992 178 933 q 490 1058 371 1050 l 490 940 q 333 891 403 933 q 220 779 264 849 q 168 619 176 710 l 50 619 m 888 621 q 835 781 879 711 q 720 892 790 850 q 560 940 650 935 l 560 1058 q 780 994 682 1053 q 938 840 878 936 q 1007 621 999 743 l 888 621 m 288 619 q 338 753 297 703 q 440 824 379 803 q 567 846 501 846 q 632 841 603 846 q 693 828 661 836 l 693 624 l 588 624 l 567 718 q 505 697 528 718 q 476 619 482 675 l 288 619 m 493 101 q 273 169 371 110 q 116 328 175 229 q 50 551 57 426 l 168 551 q 218 388 175 460 q 333 272 261 315 q 493 221 404 228 l 493 101 m 543 310 q 365 367 438 310 q 286 551 293 424 l 476 551 q 513 472 483 494 q 591 451 543 450 q 697 464 639 451 l 697 326 q 623 314 667 318 q 543 310 579 310 m 563 101 l 563 221 q 724 271 653 228 q 838 385 794 314 q 888 547 881 457 l 1007 547 q 940 326 1000 424 q 783 169 881 228 q 563 101 686 110 z "},"®":{"ha":1063,"x_min":50,"x_max":1013,"o":"m 51 624 q 121 840 61 744 q 276 992 181 935 q 492 1058 372 1050 l 492 940 q 336 890 406 932 q 224 780 267 849 q 171 624 181 711 l 51 624 m 890 622 q 838 782 882 713 q 722 893 793 851 q 561 940 651 935 l 561 1058 q 782 995 683 1053 q 941 841 881 938 q 1011 622 1001 744 l 890 622 m 603 317 l 544 588 l 544 597 q 574 668 574 611 q 560 733 574 719 q 507 747 547 747 l 347 747 l 321 853 l 532 853 q 680 814 631 853 q 729 674 729 775 q 696 554 729 596 l 751 317 l 603 317 m 347 317 l 347 678 l 507 678 l 507 317 l 347 317 m 565 101 l 565 221 q 728 273 657 229 q 844 390 800 317 q 892 556 888 463 l 1013 556 q 947 329 1007 429 q 788 169 886 229 q 565 101 689 110 m 496 101 q 274 169 372 110 q 116 328 175 229 q 50 554 57 428 l 169 554 q 219 389 175 461 q 334 273 263 317 q 496 221 406 229 l 496 101 z "},"™":{"ha":1051,"x_min":21,"x_max":982,"o":"m 21 869 l 21 1000 l 414 1000 l 414 869 l 21 869 m 982 956 l 758 574 l 683 574 l 435 1000 l 650 1000 l 729 813 l 808 1000 l 982 1000 l 982 956 m 825 544 l 982 817 l 982 442 l 825 442 l 825 544 m 478 801 l 636 526 l 636 442 l 478 442 l 478 801 m 135 799 l 300 799 l 300 442 l 135 442 l 135 799 z "},"°":{"ha":650,"x_min":57,"x_max":593,"o":"m 593 779 l 471 779 q 422 866 461 833 q 325 899 383 899 q 228 866 267 899 q 179 779 190 833 l 57 779 q 140 949 68 886 q 325 1013 211 1013 q 510 949 439 1013 q 593 779 582 886 m 471 708 l 593 708 q 511 538 583 603 q 325 474 439 474 q 140 538 211 474 q 57 708 68 603 l 179 708 q 227 621 189 654 q 325 588 265 588 q 422 621 383 588 q 471 708 461 654 z "},"|":{"ha":389,"x_min":111,"x_max":278,"o":"m 278 -167 l 111 -167 l 111 1118 l 278 1118 l 278 -167 z "},"¦":{"ha":389,"x_min":111,"x_max":278,"o":"m 111 558 l 111 1118 l 278 1118 l 278 558 l 111 558 m 278 393 l 278 -167 l 111 -167 l 111 393 l 278 393 z "},"†":{"ha":482,"x_min":115,"x_max":385,"o":"m 128 576 q 121 583 126 576 q 115 597 115 589 q 131 626 115 603 q 160 682 146 650 q 175 742 175 714 q 168 783 175 769 q 153 812 161 797 q 146 856 146 826 q 183 935 146 908 q 264 961 219 961 q 347 934 308 961 q 385 850 385 907 l 385 576 l 128 576 m 267 832 q 291 842 282 832 q 300 865 300 851 q 291 890 300 881 q 267 899 282 899 q 243 890 253 899 q 233 865 233 881 q 243 842 233 851 q 267 832 253 832 m 304 -1 q 181 53 224 10 q 138 156 138 96 q 146 283 138 213 l 169 507 l 365 507 l 365 249 l 304 -1 z "},"ℓ":{"ha":738,"x_min":-10,"x_max":713,"o":"m 458 1010 l 458 843 q 390 703 417 807 q 363 461 363 599 q 403 244 363 326 q 533 160 444 163 q 628 179 574 158 l 600 13 q 518 -7 558 0 q 439 -14 478 -14 q 288 22 364 -14 q 161 143 211 57 q 92 108 121 121 q 38 86 64 96 l -10 229 q 42 249 15 238 q 111 279 69 260 q 99 418 99 343 q 142 730 99 600 q 265 932 185 860 q 458 1010 346 1004 m 525 854 l 525 1008 q 668 941 624 999 q 713 801 713 883 q 683 644 713 731 q 597 467 654 557 q 454 293 539 376 q 427 364 438 324 q 410 451 417 404 q 494 590 465 524 q 535 711 524 656 q 546 803 546 767 q 525 854 546 843 z "},"‡":{"ha":819,"x_min":115,"x_max":722,"o":"m 128 576 q 121 583 126 576 q 115 597 115 589 q 131 626 115 603 q 160 682 146 650 q 175 742 175 714 q 168 783 175 769 q 153 812 161 797 q 146 856 146 826 q 183 935 146 908 q 264 961 219 961 q 347 934 308 961 q 385 850 385 907 l 385 576 l 128 576 m 267 832 q 291 842 282 832 q 300 865 300 851 q 291 890 300 881 q 267 899 282 899 q 243 890 253 899 q 233 865 233 881 q 243 842 233 851 q 267 832 253 832 m 304 -1 q 181 53 224 10 q 138 156 138 96 q 146 283 138 213 l 169 507 l 365 507 l 365 249 l 304 -1 m 710 369 q 717 363 711 369 q 722 349 722 357 q 708 320 722 344 q 678 265 693 296 q 663 204 663 233 q 670 163 663 176 q 685 134 678 149 q 692 90 692 119 q 655 12 692 39 q 574 -15 618 -15 q 491 13 529 -15 q 453 96 453 40 l 453 369 l 710 369 m 571 114 q 547 104 557 114 q 538 81 538 94 q 547 57 538 67 q 571 47 557 47 q 594 57 585 47 q 604 81 604 67 q 594 104 604 94 q 571 114 585 114 m 533 947 q 658 894 615 936 q 700 790 700 851 q 692 663 700 733 l 668 439 l 472 439 l 472 697 l 533 947 z "},"℮":{"ha":968,"x_min":68,"x_max":900,"o":"m 313 397 l 313 446 l 744 446 l 744 688 q 515 758 661 751 l 515 810 q 803 703 706 803 q 900 397 900 604 l 313 397 m 447 -11 q 163 113 257 4 q 68 397 68 221 q 165 701 68 603 q 447 808 261 800 l 447 757 q 322 738 378 754 q 224 690 265 722 l 224 121 q 319 67 264 88 q 447 40 374 46 l 447 -11 m 517 -14 l 517 38 q 674 68 601 40 q 792 143 747 96 q 836 251 836 190 l 890 251 q 840 116 890 175 q 706 23 790 57 q 517 -14 622 -11 z "},"№":{"ha":1397,"x_min":0,"x_max":1356,"o":"m 824 0 l 499 0 l 0 1000 l 322 1000 l 824 0 m 824 156 l 560 668 l 560 1000 l 824 1000 l 824 156 m 1167 424 l 1167 583 q 1175 626 1172 599 q 1178 693 1178 653 q 1167 799 1178 771 l 1167 961 q 1312 894 1268 954 q 1356 692 1356 835 q 1312 490 1356 549 q 1167 424 1268 431 m 1097 576 l 1097 424 q 951 490 996 431 q 906 692 906 549 q 951 896 906 836 q 1097 961 996 956 l 1097 806 q 1083 693 1083 776 q 1097 576 1083 606 m 57 740 l 321 207 l 321 0 l 57 0 l 57 740 m 924 269 l 924 376 l 1339 376 l 1339 269 l 924 269 z "},"€":{"ha":782,"x_min":28,"x_max":747,"o":"m 474 763 l 151 763 q 297 956 197 900 q 538 1013 396 1013 q 742 981 631 1013 l 719 782 q 656 797 682 793 q 599 801 629 801 q 474 763 524 801 m 28 536 l 28 690 l 668 690 l 668 536 l 28 536 m 28 314 l 28 468 l 668 468 l 668 314 l 28 314 m 147 246 l 478 246 q 603 210 524 210 q 747 231 667 210 l 747 17 q 542 -17 638 -17 q 292 45 392 -17 q 147 246 192 107 z "},"₵":{"ha":694,"x_min":28,"x_max":660,"o":"m 428 -103 l 428 1108 l 536 1108 l 536 1010 q 594 997 565 1004 q 654 981 624 989 l 633 789 q 581 801 604 797 q 536 807 558 806 l 536 215 q 660 236 592 218 l 660 22 q 536 -6 594 1 l 536 -103 l 428 -103 m 357 -6 q 113 139 197 19 q 28 501 28 258 q 67 778 28 671 q 181 941 107 885 q 357 1011 254 997 l 357 735 q 308 517 308 664 q 321 381 308 438 q 357 289 333 325 l 357 -6 z "},"¢":{"ha":618,"x_min":28,"x_max":588,"o":"m 288 439 l 29 439 q 61 589 33 514 q 144 722 89 664 q 282 800 199 779 l 282 947 l 424 947 l 424 808 q 506 801 464 807 q 582 785 549 794 l 582 469 l 439 469 l 411 614 q 324 576 354 614 q 288 439 293 538 m 28 371 l 286 371 q 331 227 292 268 q 438 186 371 186 q 588 208 504 186 l 588 11 q 509 -4 553 1 q 424 -12 465 -10 l 424 -143 l 282 -143 l 282 -6 q 154 49 210 8 q 65 167 99 89 q 28 371 32 246 z "},"₡":{"ha":778,"x_min":28,"x_max":743,"o":"m 432 -101 l 340 -81 l 551 1113 l 643 1092 l 432 -101 m 182 -86 l 393 1107 l 485 1086 l 274 -107 l 182 -86 m 719 782 q 688 789 703 786 q 660 793 674 792 l 693 988 q 717 982 706 985 q 742 976 729 979 l 719 782 m 149 103 q 58 262 89 164 q 28 499 28 360 q 99 832 28 717 q 300 986 169 947 l 149 103 m 519 -12 l 558 214 q 743 235 642 214 l 743 22 q 519 -12 625 -8 z "},"¤":{"ha":835,"x_min":49,"x_max":786,"o":"m 601 551 l 464 694 l 647 889 l 786 744 l 601 551 m 226 553 l 49 744 l 188 889 l 364 699 l 226 553 m 413 750 l 356 810 q 386 815 371 813 q 418 817 401 817 q 471 813 446 817 l 413 750 m 717 429 l 647 501 l 717 575 q 725 503 725 540 q 717 429 725 465 m 117 435 q 112 468 114 451 q 110 503 110 485 q 112 536 110 519 q 117 569 114 553 l 179 501 l 117 435 m 647 119 l 468 308 l 606 456 l 786 264 l 647 119 m 188 119 l 49 264 l 226 453 l 364 306 l 188 119 m 418 190 q 388 192 403 190 q 358 196 374 193 l 414 254 l 469 194 q 418 190 444 190 z "},"$":{"ha":726,"x_min":35,"x_max":692,"o":"m 303 -103 l 303 1108 l 411 1108 l 411 -103 l 303 -103 m 476 774 l 476 1010 q 611 994 558 1004 q 664 983 664 983 l 636 760 q 613 763 636 760 q 553 769 590 765 q 476 774 517 772 m 231 993 l 231 417 l 214 425 q 88 525 132 463 q 43 707 43 588 q 88 894 43 822 q 231 993 132 965 m 476 0 l 476 603 l 511 588 q 649 484 606 546 q 692 308 692 422 q 641 107 692 186 q 476 0 590 28 m 231 229 l 231 -8 q 126 6 175 -3 q 35 25 76 15 l 63 249 q 110 241 63 249 q 231 229 158 233 z "},"₫":{"ha":782,"x_min":28,"x_max":775,"o":"m 283 181 q 126 224 182 181 q 49 336 71 267 q 28 485 28 406 q 99 732 28 658 q 306 806 171 806 q 442 788 369 806 l 442 864 l 236 864 l 236 957 l 442 957 l 442 1019 l 692 1049 l 692 957 l 775 957 l 775 864 l 692 864 l 692 192 l 479 192 l 458 254 q 283 181 393 181 m 365 369 q 400 375 381 369 q 442 394 419 381 l 442 611 q 412 615 426 614 q 385 617 397 617 q 303 583 321 617 q 286 483 286 550 q 303 395 286 421 q 365 369 319 369 m 42 0 l 42 107 l 692 107 l 692 0 l 42 0 z "},"₣":{"ha":658,"x_min":0,"x_max":644,"o":"m 76 394 l 76 810 l 0 1000 l 644 1000 l 603 778 l 347 778 l 347 617 l 578 617 l 536 394 l 76 394 m 0 194 l 0 324 l 508 324 l 508 194 l 0 194 m 76 126 l 347 126 l 347 0 l 76 0 l 76 126 z "},"₲":{"ha":788,"x_min":28,"x_max":767,"o":"m 400 -103 l 400 1108 l 508 1108 l 508 -103 l 400 -103 m 696 756 q 575 772 629 768 l 575 1008 q 647 1000 611 1006 q 721 986 683 994 l 696 756 m 332 -3 q 102 142 176 25 q 28 493 28 260 q 106 822 28 699 q 329 988 185 944 l 329 611 q 322 558 324 588 q 319 494 319 529 q 322 410 319 450 q 332 339 325 371 l 332 -3 m 767 69 q 684 19 736 40 q 578 -4 632 -1 l 578 494 l 767 494 l 767 69 z "},"₭":{"ha":840,"x_min":28,"x_max":829,"o":"m 389 660 l 118 660 l 118 1000 l 389 1000 l 389 660 m 699 660 l 411 660 l 538 1000 l 829 1000 l 699 660 m 28 435 l 28 589 l 821 589 l 821 435 l 28 435 m 118 367 l 389 367 l 389 0 l 118 0 l 118 367 m 407 367 l 694 367 l 819 0 l 528 0 l 407 367 z "},"₤":{"ha":729,"x_min":7,"x_max":715,"o":"m 414 760 l 118 760 q 246 949 146 886 q 490 1011 346 1011 q 577 1005 533 1011 q 667 988 621 999 l 667 772 q 524 796 585 796 q 414 760 451 796 m 7 536 l 7 690 l 647 690 l 647 536 l 7 536 m 7 310 l 7 464 l 647 464 l 647 310 l 7 310 m 119 222 l 715 222 l 715 0 l 33 0 l 33 174 l 119 222 z "},"₺":{"ha":908,"x_min":28,"x_max":881,"o":"m 431 963 l 160 849 l 160 1000 l 431 1000 l 431 963 m 28 718 l 668 988 l 668 833 l 28 564 l 28 718 m 28 492 l 668 761 l 668 607 l 28 338 l 28 492 m 160 319 l 431 432 l 431 249 q 580 322 540 257 q 619 513 619 388 l 881 513 q 826 225 881 339 q 653 56 772 111 q 338 0 533 0 l 160 0 l 160 319 z "}}}
